<?xml version="1.0" encoding="UTF-8" standalone="no"?><!DOCTYPE svg PUBLIC "-//W3C//DTD SVG 1.1//EN" "http://www.w3.org/Graphics/SVG/1.1/DTD/svg11.dtd"><svg width="100%" height="100%" viewBox="0 0 2192 1985" version="1.1" xmlns="http://www.w3.org/2000/svg"  xml:space="preserve" style="fill-rule:evenodd;clip-rule:evenodd;"><rect id="CHGA_colorized_logo" x="0" y="0" width="2191.57" height="1984.37" style="fill:none;"/><clipPath id="_clip1"><rect x="0" y="0" width="2191.57" height="1984.37"/></clipPath><g clip-path="url(#_clip1)"><g id="Layer_x0020_1"><path id="Triangle" d="M68.833,187.7l1030.2,1.2l1030.2,1.5l-516.3,891.6l-516.3,891.3l-1027.8,-1785.6Z" style="fill:url(#_Radial2);stroke:#373435;stroke-width:0.9px;"/><path id="Triangle_0" d="M1101.73,1974.8l-580.2,-1019.4l576.3,2.1l576.3,2.4l-286.2,507.6l-286.2,507.3Z" style="fill:url(#_Linear3);stroke:#373435;stroke-width:4.17px;"/></g><g id="Layer_x0020_2"><path d="M873.133,1205.3c-2.7,-1.2 -4.8,-2.1 -7.8,-3c-2.1,1.5 -3.3,3 -4.5,5.7c-0.6,1.2 -0.9,2.4 -1.5,3.6c-0.9,1.5 -1.2,1.8 -2.1,3c-3.6,6.3 -1.2,9.9 -1.2,17.4c-1.2,0.9 -2.1,1.2 -3.6,2.4c-4.2,3.3 -6.3,6.3 -11.4,9.3c-5.7,3.6 -9,8.4 -5.4,16.8l6.6,3c3,1.5 3,3.3 5.4,4.5c2.7,0 4.5,-0.6 6.9,-0.6c4.2,0.3 3.9,-1.2 6,1.8c1.8,-0.3 0.9,-0.6 2.7,-0.9c0.9,-0.3 3,-0.3 3.9,-0.3c4.8,0.6 2.7,0 7.5,-0.3c-1.2,-2.1 -1.8,0.6 0.9,-6.3c1.5,-4.8 1.2,-10.2 1.8,-15.3c8.1,3.6 3.6,3 16.5,0.6c3.9,-0.6 9.3,-2.4 13.2,-4.5l2.1,-1.2c1.2,3.9 3,6.9 3,11.4c0,2.1 -1.2,9 -0.9,11.7c3.3,0.3 4.5,1.2 6.6,2.1c5.1,-2.7 7.5,-9 10.5,-13.5c4.5,-6.9 0.3,-4.5 0.9,-9c0.3,-3.3 3.6,-5.4 6.3,-6.6c0.3,2.1 1.5,2.7 2.4,4.5c2.4,-0.3 3.3,-0.9 5.4,-0.6c-1.8,2.1 -3.9,6.3 -6.9,7.8c-2.7,1.2 -2.4,0.3 -3.3,3.9c-1.2,3.6 -0.3,3.6 2.7,3l0.3,2.4c2.7,-0.3 5.7,0.6 7.5,1.5c1.5,0.9 -1.5,1.8 2.1,0.9c-0.9,4.5 -3.3,1.5 -2.4,15.6c0.6,6.9 -3.3,9.9 -5.4,15c1.2,1.5 0.9,0.6 1.5,2.4l0.6,2.1c0.6,1.8 2.7,2.7 3.6,4.8c1.5,3.6 4.5,7.8 5.4,10.2c1.8,-0.9 1.2,-1.5 3.3,-0.9c2.7,0.3 1.2,0.3 2.7,1.8c1.5,-0.3 2.4,-0.9 4.2,-1.5c-0.6,8.1 3.9,13.5 10.5,17.4c3.3,1.8 1.8,0.9 4.8,1.2c2.1,-0 3,1.2 4.8,2.1c7.5,4.2 4.2,1.8 11.7,3c2.4,3.9 0.6,3.3 3.9,7.2c2.4,2.7 2.4,4.8 4.2,7.2c3.3,5.1 2.1,1.8 3,8.4c0.6,6.3 4.2,10.2 8.4,14.7c4.8,5.1 9.6,7.8 15.6,3c5.1,-4.2 3,-1.8 9,-1.8c0.6,-1.5 0.6,-1.2 1.5,-3c1.5,-1.8 2.4,-4.2 4.2,-6c1.2,-1.2 0.3,-0.6 1.2,-1.2c3.9,-1.8 4.5,-0.3 8.7,-3.9c6.9,-6 14.1,-6.6 15.3,-9l2.1,-2.7c1.2,-1.2 0.6,-1.5 2.4,-2.7c1.2,-0.9 1.8,-1.2 3,-2.1c2.1,-1.5 4.2,-3.3 7.2,-3.9c-1.5,3.9 -1.2,6.9 0,11.1c1.2,5.4 6.3,7.5 9.9,11.4c-0.6,3.9 -1.2,7.5 -2.7,10.5c-0.6,1.5 -3.6,7.5 -4.8,9c-5.4,0.9 -5.7,-1.8 -6.3,-5.7c-3,-15.9 6.3,-3.9 -2.1,-17.7c-2.7,-3.9 -1.5,-4.5 -7.2,-4.8l-1.8,1.8c-1.2,0.9 -0.6,1.2 -0.9,2.7c-0.6,1.5 0,-1.5 -0.9,1.2l3.3,22.2c-7.2,-0.3 -6.3,0.3 -10.8,4.5c-5.4,4.5 -10.5,-5.1 -15.3,0.3c-1.5,1.8 -0.3,3 -2.4,6c-4.5,5.7 -8.7,1.8 -13.5,1.8c-3.3,-0.3 -6.9,2.4 -11.7,2.4c-5.1,-0 -2.1,-0.6 -6.6,0.6c-1.2,-9.9 -0.3,-3 -7.2,-5.4c-0.9,2.1 -1.5,2.4 -2.4,4.8l-0.6,-0.9l0,-0.6c-1.2,-1.8 -0.9,-2.4 -1.5,-4.5c-1.8,-8.4 -2.4,-7.8 -10.2,-7.2c-1.2,2.1 -0.3,3 -1.2,5.4c-0.9,2.7 -1.5,1.8 -1.8,5.1c-0.3,2.7 -0.3,3.6 -0.6,6c-0.9,5.4 -1.2,12.9 2.4,16.8c2.1,2.1 6.9,3 8.4,5.7c2.1,3.9 0,4.8 3.9,9.9c2.4,3 2.7,6.9 4.5,9.6c1.2,1.8 6,4.2 9.3,4.5c4.8,0.6 6.3,-2.4 9,-4.8c2.1,1.8 3.3,3.9 6,5.1c3.6,1.5 9.9,3.6 12.3,-0.9c0.9,-1.5 1.5,-2.1 2.1,-3.6c2.4,-4.8 5.4,-10.2 9,-14.1c3.6,-3.6 5.4,-7.5 8.7,-11.1c2.1,-2.1 4.5,-6.9 7.2,-7.2c0.6,-0.3 -1.2,-0.9 0.6,0.6c3,1.8 3.9,1.5 6.6,4.5c2.1,2.1 4.5,3.3 6,5.7c1.2,1.8 -0.6,0.6 1.8,2.1c4.5,3.3 8.1,-0.3 12.6,-1.8c1.8,-0.6 1.2,-0 3,-1.2c2.1,-0.9 2.7,-2.1 5.7,-2.4c0.3,-6 3,-9.9 7.2,-13.2l6.6,-5.7c1.5,2.4 2.4,6 3.9,8.4c3,4.2 4.8,1.8 8.7,3.9c0.3,7.2 -1.5,14.1 -2.7,20.7c5.7,1.2 3.3,0.3 8.1,0.3c6.6,0 3.3,2.7 12.3,-2.4c1.2,-0.9 2.1,-2.7 3,-3.9c9.3,-14.1 0,-9.3 12,-21.3c1.8,-1.8 3,-2.7 6.6,-2.7c13.5,0 6.3,1.5 9.3,18l0.9,2.7c0.9,1.5 2.1,0.9 3.6,0.3c1.2,-0.3 -0.3,0 1.8,-0.6l10.5,-0.9c1.8,0.3 1.8,1.2 2.7,1.2l1.2,-0.3l0.3,0c2.4,-0.3 2.7,0.6 4.5,-1.2c2.7,-2.1 2.7,-3.9 2.4,-7.5c-0.6,-3.9 -1.5,-6.3 1.2,-10.8c1.2,-1.8 3,-4.5 5.7,-4.2c2.4,0 0.9,0.9 3.3,0c2.4,-0.9 0.6,-0.6 3,-0.9c2.7,-0.6 0.6,-0.6 2.7,0.3l3.9,1.5c3,1.5 3.9,2.1 7.2,3c7.5,2.4 9.9,0.3 18,0c1.2,-2.1 2.1,-3.3 5.1,-3.3c2.1,3.3 3,6.3 6,9c1.5,1.2 3,2.1 3.3,4.2c0,3 -1.8,2.4 -4.5,3l-1.2,2.4c3.3,1.5 0,-0.3 2.1,0.3c1.5,0.3 1.2,0.9 2.4,1.8c0,-0.3 0,-0.6 0.3,-0.3l1.2,-1.2c0.9,0.9 2.4,1.2 4.2,1.5c7.2,0.6 13.8,-7.2 19.8,-10.5c5.7,-3.6 3,-1.5 7.8,-0.9c1.8,-2.1 0.6,-2.1 3,-3.3c2.7,0.9 0.9,1.2 4.5,3c-0.6,3.6 -1.8,6.6 -3.9,9c-2.7,3.3 -9.9,2.4 -15.6,3.9l-10.8,1.8c-1.8,0.3 -3.6,0.6 -4.8,-0.9l-0.9,1.5c-3,3 -10.5,-0.6 -13.2,-1.8c-6.6,-2.4 -4.5,-0.3 -10.2,-0.6l0,-9.3c-4.5,-1.5 -10.2,-0.9 -15.3,-1.5c-3,-0.6 -2.1,-0.9 -4.8,-1.5c-0.3,8.1 1.5,6 -3.6,12.9c-1.2,1.8 -2.4,2.7 -3.6,4.8c-2.1,3.6 -3,2.1 -1.8,5.7c-3.6,-1.8 -3.3,3 -6,4.8c-3.3,1.8 -5.4,-0.3 -8.1,-1.2c-1.5,1.2 -1.5,1.5 -3.6,2.7c-1.8,0.9 0,0.3 -1.8,0.6l-3,0.9c-0.9,-0 -0.9,-0.3 -2.1,0.6c-0.9,0.9 -1.5,3.3 -2.1,4.2c-1.2,2.4 -5.1,5.4 -5.7,6.9c-0.9,3 0,7.2 -3.9,8.7c-4.2,-0.6 -6.6,-5.4 -6.3,-10.5c4.8,-1.5 11.7,-6.3 14.1,-10.8c1.2,-2.1 2.7,-3.3 4.2,-4.8l-3.3,-1.5c-1.2,-0.9 -1.8,-1.5 -2.4,-2.4c-1.8,0.6 -2.1,1.2 -3.9,2.1c-3.9,2.1 -8.1,3 -11.7,5.4c-5.1,3.3 -7.2,8.7 -15,3.9l-3.9,-1.8c-1.8,-0.3 -2.1,0.6 -4.8,-0c-3,-0.6 -0.9,-1.5 -3.9,-1.2c-2.1,0 -1.8,0.6 -4.2,0c-3.3,-0.6 0.3,-1.2 -4.8,-0.6c-2.7,0.3 -0.3,-0 -2.4,-0l-9.6,-2.1c-2.7,1.5 -5.1,3 -4.2,7.8c0.3,3 2.1,6 3.3,9c0.9,2.4 1.2,2.1 0.6,4.2c-0.6,1.8 -0.6,-1.5 -0.3,2.1c0,3 2.4,10.2 0,11.7c3.3,0.6 2.7,1.5 5.1,2.1c2.4,0.6 4.5,-0.3 6.6,-0.3c2.1,0.3 3.9,1.2 5.7,1.2c1.5,-0.3 3.6,-1.5 5.4,-1.8c7.8,8.7 2.1,9.6 6.6,18.3c3.9,6.9 13.5,1.8 18.3,-0.9c6.3,-3.6 6.3,-0.6 12.3,-2.7c15,-5.1 13.2,-11.7 22.5,-20.4c0.6,-0.6 1.5,-0.9 2.1,-1.5c1.8,-2.1 1.2,-2.7 5.1,-3c9.3,-0.6 2.7,8.7 7.2,12.3l2.4,2.1c2.7,1.8 9.3,1.2 12.6,1.2l0,1.5c1.8,-0.6 5.4,-1.8 6,-3c2.1,-6.6 0.6,-16.8 5.1,-21.9c1.8,0.9 0.9,0.9 3,1.8c6.3,2.4 3.9,-3.3 7.5,5.4c0.6,1.8 1.8,3.3 2.7,5.4c13.5,0 9.6,-3 11.7,-5.4c1.8,0.3 1.8,0.9 2.7,1.2c2.7,0.9 1.2,0.3 2.7,-0.6c-1.2,1.8 0,3.6 1.2,5.1c2.1,2.7 1.5,0.3 2.1,5.4c1.2,12 0.9,17.1 10.8,24.3c2.7,1.8 1.5,2.1 2.7,5.1c2.1,4.5 8.1,9.9 13.8,2.7l3.3,-2.7c3.3,-2.7 4.8,-4.5 8.4,-7.2c2.7,-1.8 5.4,-6.9 9.6,-4.8c2.1,5.4 -13.5,25.2 -17.1,30c-1.5,2.1 -3,3.3 -4.5,5.1c-1.5,2.1 -2.4,3.6 -4.2,5.4c-2.1,1.8 -2.7,3.3 -6,4.2c-5.4,-8.1 -7.2,-10.2 -16.8,-9.3c-8.4,0.6 -9.6,3.9 -16.2,11.4c-1.5,1.8 -3.3,2.7 -4.5,4.5l-4.5,5.1c1.5,1.5 0.9,1.8 -0.3,3.9c-0.9,1.8 -1.5,3 -2.4,4.8c-1.8,3 -3.6,6.9 -6,9.6c-1.8,-1.2 -2.7,-2.7 -5.1,-2.7c-1.5,0 -5.1,3.3 -7.8,4.5c-2.7,1.2 -8.1,2.1 -11.1,2.4c-1.5,-4.8 -6,-14.7 -5.7,-18.9c6.3,0.3 8.1,-0.9 13.2,-3.6c3.6,-1.5 5.7,3.6 14.7,-0.3c1.8,-0.6 4.5,-1.5 6,-3l13.2,-14.1c1.5,-1.5 7.5,-7.5 8.1,-10.2c3,-11.7 -2.4,-13.8 -4.2,-21.3c-1.8,-9.3 -4.5,-11.1 -15.3,-12c-1.2,2.1 0,1.2 -1.8,2.7c-4.8,-1.5 -4.8,-5.4 -11.4,-1.5c-4.8,3.3 -3.3,0.6 -7.2,1.8c-2.7,0.9 -0.6,0.3 -3.3,0.3c-3.9,0 -4.5,5.7 -6.6,8.7c-3,4.5 -2.1,7.5 -4.8,11.4c-4.5,-0.9 -18.6,-9.6 -27,-10.5c-3,-0.3 -13.2,13.5 -21,16.5c-13.2,5.4 -10.2,19.2 -3.3,28.8c4.2,6 -5.1,14.1 -7.5,21.9c-4.5,14.4 -9.9,3.6 -19.8,9c-5.1,2.4 -3.9,12.3 -3.9,17.1c-0.3,2.4 0.3,1.2 1.5,3c0.9,1.5 0.6,1.8 1.5,3.6c1.2,2.4 2.7,3 1.2,6.6c-2.1,5.1 -0.3,2.1 -1.2,7.5c-0.9,5.7 -2.7,10.2 -5.1,15l-3,6.6c-0.3,1.8 -0.3,17.4 0.6,18.6c0.9,2.1 3.3,2.7 4.5,5.1c2.7,5.4 0.6,8.7 8.7,10.8c3.6,1.2 3.9,-0.6 5.7,-3c1.2,-1.8 0.6,-1.2 2.4,-2.1l1.2,-1.2c0.9,-0.9 -0.3,0 1.2,-1.5l6,-4.2c1.8,-1.8 3,-3 5.4,-4.5c3,-1.8 4.5,-1.8 4.8,-5.4c3.6,0.9 4.5,1.2 7.5,-2.4c0.9,-0.9 0.3,-0.9 1.8,-2.1c2.1,-2.1 7.2,-5.1 10.5,-3.3c1.5,1.2 3,6.9 2.7,8.1c0,3.6 -3.9,3.3 -2.1,8.1c2.4,7.5 7.8,6.3 13.2,9.6c-1.2,8.1 -12.9,14.1 -15.9,20.4c-0.6,1.8 -0.9,1.5 -1.8,3c-5.7,0 -6.6,-1.2 -11.1,2.4c-0.9,0.6 -3,2.4 -5.1,1.5c-1.8,-1.2 -0.9,-4.5 -1.2,-6.6c-0.6,-13.8 1.8,-15 2.1,-21.9c-1.8,-1.5 -1.2,-0.3 -2.4,-0.9l-2.4,-2.1c-1.5,0.9 -10.5,4.5 -11.4,5.7c-1.5,3.6 1.2,13.5 -5.4,11.4l-1.8,3.6c-9.9,0 -7.8,1.8 -13.5,5.1c-1.8,-0.6 -1.2,-0.9 -3,-1.2c-1.2,1.2 -2.4,2.7 -2.1,4.8c0.9,4.8 0.9,1.8 -1.5,2.1c0,3 1.2,5.7 0.6,8.7c-0.6,3 -2.4,3.6 -2.1,8.1c0.3,3.3 0.3,8.1 1.2,11.4c0.9,2.4 0.6,2.1 2.7,2.7c-1.2,1.2 -3.9,1.8 -3.3,3.9c0.6,-1.8 -0.6,-1.2 2.1,-1.5c-1.2,2.7 -0.3,0.3 0,1.5l2.4,7.2c3.6,0 5.4,-2.1 8.4,-3c2.1,-0.6 2.4,1.5 5.7,-3.3l10.5,0c2.1,0.3 2.4,0.9 3.9,1.8c1.5,0.9 2.4,1.2 3.6,2.1c5.1,3.3 5.7,17.1 3.6,22.5c-3.6,9 1.5,6.6 4.5,11.1c0.9,1.2 1.2,2.7 1.8,3.9c2.4,4.8 1.5,0.9 3.9,7.8c0.9,2.7 1.2,1.5 1.2,4.8c-9.6,-13.8 -9.6,-11.1 -21,-17.7c0.6,-7.2 2.4,-15.9 -3.6,-21.6c-2.1,-2.1 -5.7,-3.6 -9.6,-3.3c-5.4,0.3 -11.1,0 -17.1,1.8c-1.5,0.3 -3.6,0.9 -5.1,1.2c0.6,-2.4 3.9,-6.3 2.1,-9c-0.6,-1.2 -2.1,0.3 -1.2,-3.9c0.6,-1.8 0.9,-3.6 0,-5.4c1.2,-1.2 0,0 1.2,-0.9c0,0 0.9,-0.3 0.9,-0.6c-2.4,-0.6 -3,-1.8 -3.6,-4.5c-0.6,-2.7 -1.2,-4.8 -1.5,-7.5c0,-1.5 0.3,-2.1 0,-3c-0.6,-1.5 0,0 -0.6,-1.2l-4.5,-4.8c0.6,-2.4 4.2,-3 5.7,-11.7c0.9,-4.8 -1.5,-6.6 -3.9,-9.3c-0.6,-1.2 -0.9,-1.5 -2.1,-2.4c-6,-3.3 -15.6,-3.6 -21.9,-1.5c-3.3,1.2 -3,2.1 -4.8,4.5c-6.3,-1.8 -1.2,-1.2 -11.7,-2.7c-4.8,-0.6 -0.9,-1.8 -5.4,1.5c-2.4,1.5 -6.9,1.2 -9.9,2.1c-2.4,0.9 -4.2,0.3 -6.6,1.5c-6.9,3 -10.2,6.3 -17.4,1.5c-5.1,-3.3 -5.1,-4.2 -12.3,-3.3c-4.5,0.9 -9.3,1.2 -12.6,3.3c-4.5,2.7 -4.2,6 -4.8,11.7c-0.9,5.1 -4.2,3.6 0.6,10.8c1.8,2.4 5.7,7.5 7.8,8.4c-1.8,7.2 -5.7,2.7 -8.1,9.9c-1.5,4.5 -2.4,10.2 -0.3,14.7c-1.5,0.6 0,-0.3 -1.5,0.3c-0.9,0.3 -0.9,0.9 -2.1,0.9c-1.8,0 -1.8,-2.1 -1.8,-4.2c0,-6.6 6,-6.3 0.3,-14.1l-6.9,-9.6c-0.3,-0.6 -0.6,-1.2 -0.9,-1.8l1.5,-0.6c0.9,-0.3 0.9,-0.3 1.8,-0.6c0.9,-5.7 -6.3,-7.5 3.3,-24c1.5,-2.7 3.9,-5.1 5.7,-6.6c11.4,-9.9 7.8,-4.8 15,-9c1.5,-0.9 0.3,-0.3 1.2,-2.4c1.2,-2.4 2.4,-2.1 2.7,-3.6l0.6,-4.2c5.4,-0.3 6.9,1.8 9.3,5.7c1.2,2.1 1.8,4.8 3.6,6.6c2.7,2.1 1.2,0.6 0.9,2.4c-0.3,2.4 2.4,3.6 4.2,2.4c1.5,-0.9 -0.6,0 1.2,-0.9c4.2,3.6 4.5,2.7 9.3,1.5c2.4,-0.6 2.7,-0.3 4.2,-1.5c2.4,-1.5 1.8,-1.5 2.7,-4.2l2.1,-6.9c-2.7,-1.5 -3.9,-0.9 -6.3,-2.1l-0.6,-0.3c0.6,-2.1 0.6,-3 -0.3,-5.4l0,-0.3c-2.7,-7.5 0.9,-6 -3,-11.7c-1.5,-2.1 -0.3,-2.7 -1.8,-5.1c-4.5,-7.2 -12.3,-8.1 -14.4,-17.4c-0.3,-2.1 -2.1,-5.7 -3,-7.8c-1.2,-2.4 -0.3,-1.8 -2.7,-2.4c-3,-1.2 -4.2,-1.2 -6,1.2c-0.6,0.6 -0.9,1.2 -1.5,1.8c-2.4,2.7 -4.2,5.7 -6.9,8.1c-0.9,0.9 -3.3,2.4 -3.9,3.3c-1.5,3 0.6,6.6 -3,8.1c-0.9,0.3 -2.1,0.6 -3.3,0.6c-0.9,-2.4 -0.3,-3.6 -1.8,-6c-3.6,-5.1 -1.2,-14.1 -0.6,-20.1l0.3,-13.8c0,-3 0.6,-3.6 0.9,-6.3c0.3,-3.6 -0.3,-2.7 3.6,-3.9l-0.3,-3.6c-1.8,-0.9 -1.8,-1.5 -3.3,-3c0,0 0,-0.3 -0.3,-0.3l-6.3,-4.2l-0.3,0l0.6,2.1c0,0 0.3,0 0.3,0.3c0,0 0.3,0 0.6,0.3c-2.4,0 -3,1.2 -4.2,3.3c-2.1,3.9 -0.9,6.6 -2.1,11.7l0,1.5c0,0 0,0.3 -0.3,0.9l-0.9,1.5c0.3,0.9 0.6,1.5 1.2,2.1l-0.9,0.9c-5.1,7.5 -1.2,20.4 -4.5,21.3l-4.2,9.9c-4.8,5.7 -2.7,0.9 -8.1,10.2c-1.8,2.7 -2.4,0.6 -4.2,2.4c-0.6,0.6 -0.6,0.9 -1.5,1.5c-0.9,-1.8 -0.9,-0.9 -1.8,-2.7c-0.3,0 -0.6,-0.9 -0.6,-0.9l-0.6,-2.4c-0.9,-2.4 -0.3,-3.3 -0.3,-5.7c0,-3.6 -0.9,0.6 -0.3,-2.7c0.3,-0.6 2.1,-3.6 2.4,-4.5c2.1,-5.1 5.7,-7.5 2.4,-13.5c-0.6,-0.9 -0.9,-1.2 -1.5,-2.1c-2.1,-3 -2.7,-3.3 -11.7,2.4c-4.5,2.7 -8.1,-1.2 -12.9,-0.3c0.6,-4.8 -2.4,-4.5 -1.2,-8.4c0.9,-3.6 3,-4.5 4.8,-7.2c1.2,-2.1 0.6,-1.8 2.4,-3.6l1.8,-1.5c8.1,-5.4 10.2,1.5 17.1,-10.5c1.2,-1.5 2.1,-2.7 2.7,-3.9c0.9,-1.8 0.6,-2.7 1.5,-4.2c1.5,-1.8 0.6,-0.3 1.5,-1.2c0.9,-0.9 0,0.3 0.6,-0.9l2.4,-2.4c3.6,-2.4 1.2,0.9 3,-3.3c0,0.3 0.3,0.6 0.3,0.6c0.3,0 0.3,0.3 0.3,0.3l0.3,0.3l1.8,0.9c2.4,0.9 1.5,0 4.2,0c1.5,0.3 1.8,0.9 3.3,1.8c1.5,0.6 2.7,1.2 4.2,1.5c3.3,1.2 8.4,4.8 10.8,4.5c3.9,-0.6 1.2,-1.5 4.5,-1.5c2.1,0 3.6,1.8 5.7,-0.6c0.9,-1.2 0.9,-1.2 2.4,-2.1c1.5,-1.2 1.2,-1.2 3.3,-0.9c2.4,0.3 1.5,0.6 3.3,1.5c3,1.5 3.3,0.3 6,3c2.7,2.7 5.7,2.7 9,3.6c0,0.3 0.3,0.3 0.3,0.3l0.9,0.3c1.5,0.3 2.7,1.2 3.6,2.7c0.6,0.9 0.3,0.6 0.9,1.5c0.3,0.6 0.3,0.6 0.6,1.5c0.6,1.2 1.2,1.8 1.2,3.3c0,2.7 -1.5,5.1 -1.5,7.2c0,4.5 2.1,4.8 -0.9,10.2c-2.4,4.5 -4.5,5.1 -6,7.8c1.8,2.4 1.8,6 3.9,7.5c11.4,9.3 5.7,4.8 12,2.1c5.4,2.4 4.2,9.9 12.3,4.8c2.4,-1.8 2.1,-2.7 4.8,-3.3c1.2,2.1 2.4,4.5 3.3,6.6c1.2,2.4 1.8,4.8 5.4,4.8c2.4,0 6.3,-1.8 3.3,2.4c-2.4,3.3 -2.1,2.1 -2.1,7.2c0,6 -3,7.2 0.3,12.3c1.5,2.4 1.5,3.3 3.3,4.5c1.8,1.2 3.3,0.9 4.8,3.3c2.4,3.6 3.6,4.8 9,5.7c2.4,0.3 5.1,0.3 6.9,-0.6c1.2,-0.6 1.5,-1.8 2.1,-3c0.6,-0.9 -1.2,-0.3 0.9,-0.6c6,-0.6 8.4,1.2 11.1,-5.1c1.5,-3.6 -0.3,-3.9 -1.2,-7.2c-0.6,-2.1 -0.3,-0.9 0.6,-2.4c0.3,-1.2 0.3,-0.6 0.6,-1.8c0.6,-4.8 -3.9,-19.2 -5.7,-23.4c-1.5,-4.2 -4.2,-9.3 -3.9,-14.4c1.2,-0.9 -0.9,-0.3 2.1,-0.6c-2.4,-0.6 -0.3,-5.1 0.9,-7.5l3.3,-8.7c1.8,-3.6 1.2,-0.9 2.7,-3l4.2,-7.8c5.4,-8.1 -0.3,-1.8 -0.6,-11.1c0,-6.9 0.3,-6.6 -3,-11.7c-3.6,-5.7 -1.8,-8.1 -3.3,-14.4c-0.9,-3.6 -2.4,-4.8 -3.9,-7.5c-3,-5.4 -1.2,-19.8 -15.6,-19.8c-1.2,-9 -1.5,-6.3 2.1,-14.1c4.8,-9.6 5.1,-15 13.2,-23.1c2.1,-2.1 7.8,-7.2 7.5,-10.8c-0.9,-1.5 0,-0.3 -1.2,-1.5c-2.1,-1.5 -4.2,-1.2 -6,-2.7c-1.5,3.9 -4.8,5.4 -7.5,8.7c-3,3.6 -2.7,6.3 -7.8,8.4c-0.3,-10.2 -1.2,-35.1 0.6,-43.8c0,-0.9 0.6,-12.6 0.3,-13.5c-0.9,-0.6 -0.6,-0.3 -1.5,-1.2c-1.2,-0.9 0.3,-1.2 -2.7,-0.9c-2.7,0.3 -1.2,1.8 -5.7,2.7c-0.9,5.7 0,12.9 -1.2,22.2c-0.3,-0.3 -0.3,-0.6 -0.6,-0.6l-0.3,-0.9c-0.6,-2.1 0.6,-5.7 -0.6,-7.5c-0.6,1.2 -0.6,18.9 -0.6,21.3c-2.4,-0.6 -2.7,-1.2 -3,-4.2c-0.3,-2.4 -0.3,-3.9 -0.9,-6.3c-0.6,-3.9 -2.4,-8.7 -2.4,-12.3c0,-3.6 1.8,-7.2 1.5,-9.9c-0.9,-4.8 -3.6,-3.9 -6.3,-5.7c-2.4,2.4 -3.3,3.9 -3.3,7.5c0,3.3 0,7.5 -1.5,9.6c-3.3,-3 -7.2,-7.5 -9.9,-11.4c-3.9,0.6 -3,0 -6.6,0.3c-2.1,7.8 -3.3,3.6 6,16.8l11.1,16.5c2.7,4.5 3.3,8.7 5.7,13.8c1.2,1.8 2.1,1.8 2.4,4.5c0.6,3.6 -0.3,32.4 -1.5,37.8c-7.5,2.4 -14.4,5.7 -21.6,8.7c-3.3,1.5 -3.6,3.3 -6.6,3.6c-1.8,-4.2 -2.7,-6.9 -5.4,-9.6c-2.1,-2.1 -6.3,-3.9 -10.2,-4.5c-7.8,-1.2 -4.8,-5.7 -11.7,-18c-4.8,-8.4 -7.5,-9.9 -13.5,-16.2c-2.4,-2.4 -5.1,-5.1 -8.1,-6.6c-3.3,-2.1 -7.5,-1.5 -12,-2.4c0.3,-5.7 6.6,-6 2.7,-14.4c-1.8,-3.6 -2.4,-6 -6.6,-7.2c-5.4,-1.8 -10.5,-1.8 -16.5,-3.3c-1.2,-7.2 -1.8,-26.1 -1.5,-33.9c0,-10.8 -0.3,-23.4 5.1,-32.4c2.4,-4.5 4.5,-8.1 7.8,-11.7c2.7,-3 5.1,-7.5 8.7,-9.9l8.1,-4.5c3,-1.8 1.5,-3.3 2.4,-6.3c0.6,-2.4 0.3,0.3 0.6,-2.4c-1.5,-0.3 -2.1,0 -2.7,0c-2.1,-0.3 0.6,0 -2.1,-0.9c-2.4,1.8 -4.8,3 -7.5,4.2l-8.4,4.5c-0.3,-5.4 -1.2,-9.3 -1.8,-14.4c-0.3,-3.6 -0.9,-8.4 -4.2,-9l-3.3,-0.3l0,13.5c0,7.2 1.5,10.5 -0.3,16.8c-1.5,5.7 3.3,4.2 -0.9,9.9c-0.9,1.5 0,0 -0.9,1.8c-0.3,0.3 -0.3,0.3 -0.3,0.6l-0.9,1.5c-1.5,-1.2 -1.5,-1.2 -2.4,-3c-4.5,-8.4 -4.8,-15.9 -7.5,-23.1c-1.2,-3.6 -0.6,0 -1.8,-3.3c-1.5,1.8 -4.5,3.6 -5.7,4.8c-3.3,3.6 1.5,13.8 2.4,17.7c3,12 6.3,6.9 3.6,28.2c-0.9,5.7 -0.3,10.2 -0.6,15.6c-0.3,2.1 0.6,2.7 0.6,4.2c-0.3,6.9 0.6,14.4 0,21.6c-6.3,2.7 -6,1.8 -9.9,6c-5.1,4.8 -3.9,5.1 -7.2,8.7c-3.9,4.5 -4.8,13.5 -2.1,18.3c4.5,7.2 -1.5,5.4 -5.4,15c-2.4,6.3 -5.4,3.6 -5.7,10.2c-0.3,8.4 -2.7,16.8 1.2,24.6c0.6,-1.5 -0.6,-0.3 0.9,-0.9c2.4,-0.6 3.9,-0.3 6.3,-1.5l4.5,3.3c3.3,1.8 -0.3,2.1 3,3.9c2.4,1.2 3.3,-0.6 6,0.6c3,1.5 1.5,2.7 6,1.2c0.3,4.8 0.3,9.9 3.3,12.9c4.8,4.5 9.9,-2.1 14.1,2.1c3.9,3.9 -3.3,8.4 -6,9.6c-3.6,1.2 -3.6,0 -6.3,2.7c-1.5,1.8 -2.7,3.6 -4.8,4.5c-9.3,-4.2 -10.5,-11.1 -20.7,-3c-10.8,8.7 -9.6,16.5 -14.4,17.4c0.3,-4.5 1.2,-9.3 3,-12.9c2.4,-4.8 4.5,-5.7 6.9,-9.9c1.8,-3.3 9.9,-12.3 13.2,-15c2.1,-1.8 1.5,0 2.1,-2.4c-0.9,-1.2 -1.5,-0.9 -2.1,-1.8c-0.3,-0.3 -2.4,-6.9 -6.6,-1.5c-1.2,-1.2 -0.6,-1.2 -2.4,-1.8c-1.8,1.8 -2.4,3 -4.2,4.5l-4.5,4.5c-3,3 -5.1,7.8 -8.7,9.3c-0.6,-5.1 -1.5,-14.7 4.8,-15.3c-0.9,-7.5 -4.5,-13.2 -4.5,-23.1c0,-1.5 0.6,-0.6 0,-3.3c-1.8,-8.4 3,-18.3 1.5,-23.7c-0.3,-0.3 -1.8,-2.1 -2.4,-2.7c-2.7,-2.4 -2.7,0.6 -7.5,-0.3c0,3.6 0,6.9 -0.3,10.2c-0.3,3.6 -0.6,6.9 -0.6,10.8c-5.1,-1.8 -7.5,-16.2 -9.3,-20.4c-1.8,-4.5 -11.1,-22.5 -18,-15.9c-1.8,1.5 -1.8,2.7 -1.2,4.8c0.6,2.4 3.3,3.3 6,9.6c1.2,3.6 8.1,19.2 5.7,22.8c-3,-5.4 0.6,-6 -6.3,-10.2c-5.1,-3 -6.6,-3.3 -10.8,1.2c-1.8,-0.9 -3.3,-3.3 -4.2,-5.1c-1.8,-3.3 0,-4.2 0.3,-7.5c-1.2,-1.5 -4.2,-3.9 -5.7,-5.1c1.5,-2.7 6.3,-6.3 8.1,-10.2c0.9,-2.1 0.3,-3.3 0.9,-5.1c0.9,-2.4 1.2,-1.2 2.4,-3.6c3.3,-6 -1.5,-10.5 5.7,-12.6l6,10.2c4.2,-3 6.3,-7.8 10.2,-11.1c2.1,-2.1 4.2,-5.1 6.6,-6c2.1,2.4 6,13.5 5.7,16.8c-0.3,4.5 -5.4,11.1 -2.4,18c0.9,2.4 4.8,3.6 7.2,4.2c6,1.8 4.2,3 10.2,-2.7c1.2,-1.2 1.5,-1.8 2.7,-3c4.8,-4.8 3.6,-9 9,-17.4c0.3,-0.3 0.9,-1.2 1.2,-1.8c0,-0.3 0.9,-1.5 0.9,-1.8c0.9,-2.1 -0.9,-0.9 0.6,-5.4c2.7,-8.4 3.3,-15 -2.4,-22.5c-2.4,-3.6 -3.6,-2.4 -8.1,-3.6c-3.3,-0.6 -5.1,-1.8 -8.4,-3c-2.7,-0.6 -7.2,-1.8 -9.3,-2.7c-0.3,-8.4 -0.3,-12 -4.5,-17.7c-2.4,-3.6 -2.1,-2.7 -6.9,-3.9c-4.2,-0.9 -4.2,-1.8 -8.7,-0.3c-0.3,-6.6 0.9,-1.5 2.4,-6.3c1.8,-4.8 0.3,-7.8 3.6,-13.2l5.7,-11.7c0.3,-1.5 0.6,-1.5 1.2,-2.7c2.1,-4.5 6,-8.7 9.9,-12c3,0.6 5.1,2.7 7.8,0c1.8,-1.8 2.7,-3.6 4.5,-5.7c4.8,2.1 8.1,8.1 15.6,7.2c3.9,-0.6 3.6,-4.8 10.5,-9.3l0.3,0c4.5,-3.3 0,-9 -0.9,-11.7c-2.1,-5.7 -2.1,-8.7 -5.1,-13.2c-0.6,-0.9 -0.9,-1.5 -1.5,-2.7c-1.2,-3.6 -3.9,-5.4 -5.7,-9c-1.5,-2.7 -1.5,-1.8 -4.8,-1.8c0,-3.9 -2.4,-5.1 -5.4,-6.9c-3.6,-2.1 -9,-0.6 -9,4.5c0.3,1.8 0.6,2.1 0.3,3.6c-0.6,2.4 -0.9,0.9 -1.5,3.6c-1.8,6.3 7.2,8.1 5.1,14.7c-2.1,6 -6.9,7.8 -12.3,6.9c-5.7,-0.6 -3.3,-0.9 -7.2,2.1c-2.4,1.8 -4.2,2.7 -6,4.5c2.1,5.7 2.1,3.3 4.8,6.9c-0.6,2.4 -1.8,3.6 -3,5.1c-0.9,0.9 -0.6,0.9 -1.8,2.1l-3,2.1c-0.3,-4.2 0.9,-18 2.1,-22.2c-5.4,-0.9 -3.9,-3.6 -10.8,0.6l-7.2,62.1c-0.6,10.2 -3,8.4 -7.5,15c-5.7,8.1 0.9,8.4 -12,11.1c-2.1,0.3 -3.3,4.2 -4.8,5.7c-0.9,0.6 -0.9,0.6 -1.8,1.2l-6.6,8.1c-1.5,3.3 -6.6,5.7 -6.6,10.5c0,5.4 5.4,11.7 -1.8,16.5c-2.4,-2.7 -3.9,-6.6 -4.8,-9.6c4.8,-6.3 3.6,-5.1 0.6,-11.7c-0.3,-0.6 -0.6,-1.2 -0.9,-1.8c-3.3,-7.5 -3.3,-14.7 -0.9,-22.8c3.3,1.2 7.8,9 8.4,12c3,-2.1 4.2,-4.8 6.3,-7.2c0.6,-0.6 1.2,-0.9 1.5,-1.2c1.8,-0.9 0,0.6 1.8,-1.2c1.2,-1.2 0.6,-0.3 1.2,-1.5c1.5,-3 0.9,-5.1 -0.3,-8.4c-1.2,-3 -2.7,-4.8 -3.9,-7.5c-2.4,-5.1 -2.4,-12 -4.8,-17.1c-1.8,-3.3 -8.1,-4.5 1.8,-15.9l3.6,-5.1c6,-8.4 6.3,-18 16.8,-15.6c8.4,1.8 12,3 12.9,-6.6c0.3,-5.1 3,-6.9 4.5,-11.4c0.9,-2.7 -1.8,-3.9 2.1,-5.1l0.6,0c2.4,-0.9 3.9,0.3 6.3,-0.6c4.8,-1.8 7.5,0.9 9.9,0.3l0.9,-2.4c0.3,-0.6 0.3,-1.8 0.6,-2.7c0.9,-6.6 3.3,-12.9 6.6,-18.6c1.2,-1.8 1.5,-2.1 2.7,-3.3c2.7,-2.4 4.2,-5.4 7.5,-6l-0.9,-4.2c0.3,-1.5 1.2,-3.3 0.3,-4.8l-1.5,0c-0.3,0 -1.2,0.3 -1.5,0.3l-1.8,0.9c-3,0.9 -5.1,5.4 -6.9,7.8c-1.5,2.1 -3.6,6.3 -6.3,7.8c-0.6,-12.9 1.5,-23.1 1.2,-35.1c-2.7,-1.2 -1.2,0.3 -3,-1.8c-3.3,-3.6 -3.9,-1.2 -6.3,1.2c0,5.1 0.6,9.9 -0.6,15.3c-0.6,1.5 -1.5,0.6 -2.1,2.4c-0.6,0.9 -0.6,2.1 -1.2,3.3c-5.1,-3.3 -0.9,-3 -7.8,-4.2c-1.5,-0.3 -1.2,-0.6 -3,-0.9c-3,1.2 -0.3,1.5 -3.3,3.3c2.7,3 8.7,6.9 8.7,12.9c-7.2,0.3 -15.6,1.5 -22.5,-0.9c-1.2,-0.6 -1.5,-0.9 -2.7,-1.2c-1.8,-0.9 -1.8,-0.6 -3.3,-1.5c-0.3,-2.7 0.6,-3.6 0,-5.1c-1.2,-2.7 -1.5,-0.3 -1.5,-5.4c-3.6,-2.4 -8.4,-3.3 -12,-5.4c-1.2,-0.9 -3.3,-1.8 -4.2,-2.1c-4.5,2.7 -8.4,4.5 -12.9,1.5c-1.5,-1.2 -1.8,-1.8 -3.3,-3.3c-2.4,-2.4 -5.7,-4.5 -10.5,-3.6c-1.2,1.5 -1.8,2.7 -3.3,4.2c-8.1,8.1 -9.6,5.7 -18,4.2c-4.8,-1.2 -7.5,1.5 -9.3,6c-1.8,5.1 -2.7,6.9 -7.8,8.1c-2.1,-3 -1.2,-8.1 -3,-11.4c-2.4,-3.6 -7.8,-5.4 -10.8,-7.8c-0.3,-0.3 -0.6,-0.3 -0.9,-0.6l-5.4,-4.5c-2.4,-2.4 -4.2,-6 -9.3,-5.1c-4.5,0.6 -5.4,3.6 -9.6,5.4c-11.7,4.5 -5.7,-0.3 -14.7,8.1l-11.1,11.7c0.9,4.5 3,8.1 4.8,12c1.8,3.6 3.9,7.2 6,11.1c0.9,1.8 2.1,3.6 3,5.4l6.3,10.5c4.5,7.2 7.2,15 11.7,22.2c0.9,1.8 2.1,3 3.3,5.1l18.3,32.4c1.2,1.8 1.8,3 3,5.1l14.1,24.3c3.3,6.3 6.3,13.2 10.2,19.2c3.6,5.4 5.7,11.1 9,16.5c4.5,6.6 7.8,14.4 12.3,21.3l12.6,21.6c1.8,3 4.8,7.8 6.6,10.8c2.7,4.5 6.9,10.5 9.3,15.6c2.7,6.3 7.8,12.6 10.8,18.6c0.6,0.9 0.9,2.1 1.5,3l15.3,26.7c3,5.4 7.2,10.5 9.6,16.2l11.7,22.2c1.5,2.1 2.4,3 3.6,5.1c4.8,9 18.9,31.5 21.6,37.5c0.6,1.5 2.1,3.6 3.3,5.4l9.3,15.9c0.9,1.8 2.4,3.9 3.3,5.4c1.5,3.3 4.2,7.5 6,10.5c2.4,3.9 3.9,6.9 6.3,10.8c1.2,2.4 2.1,3.3 3.3,5.4l22.8,39.9c0.6,1.2 0.9,2.1 1.5,3l40.2,70.2c1.2,2.4 1.8,3.6 3,5.7c1.2,2.1 1.8,3.6 3,5.7c5.4,10.5 12.3,21 18.6,31.8c2.4,3.9 4.2,7.2 6.3,10.8c2.1,4.2 3.6,6.9 5.7,11.1c1.8,3.6 12.9,21 15.9,26.4l6,10.8c3,5.7 6.9,10.5 9.9,15.9c2.1,4.5 15.9,29.7 18.6,32.4c0.6,0.6 4.5,3.3 5.4,3.6c2.1,0.6 4.8,-0.3 7.2,-0.6c0.3,-6.3 0.9,-6 3.9,-9.9l9.3,-15.9l0,-0.3l20.4,-36.3c1.5,-2.7 3.6,-6 5.4,-9c4.5,-7.5 7.8,-14.4 12.3,-21.6l93.6,-162.3c0.9,-1.5 1.8,-2.4 2.7,-4.2c5.7,-8.7 13.8,-21 18.6,-30c1.5,-2.7 3.3,-5.1 5.1,-8.4l40.5,-69.6c0.9,-1.2 1.8,-3 2.7,-4.5l7.5,-13.5c3.9,-6 6,-11.1 10.2,-17.1c3.6,-6 6.6,-12 9.9,-18c6.6,-11.1 14.1,-23.7 20.7,-34.8l5.1,-8.4c3.3,-5.4 13.8,-20.7 16.2,-25.5c0.9,-2.4 0.9,-2.4 2.4,-4.5c2.4,-3 11.4,-19.5 12,-22.2c1.2,-5.4 -2.1,-7.2 -3.6,-10.5c-2.1,-5.1 0.3,-2.7 -4.2,-9.6c-4.8,-7.5 -2.4,-9.3 -11.1,-15.9c-5.4,-3.9 -9,-4.8 -15,-3.9c-0.9,4.2 -3,8.7 -6,11.4c-0.9,0.6 -1.2,0.9 -2.4,1.5c-1.2,0.9 -1.5,1.2 -2.7,1.8c-1.8,1.2 -4.2,2.7 -6.3,2.4c-3.3,-5.7 -2.1,-10.2 -7.8,-14.4c-2.7,-2.1 -3.9,-2.1 -6,-4.5c-2.1,-2.4 -2.4,-5.4 -2.1,-8.7c0.6,-7.5 5.4,-9.6 8.1,-14.4c9.6,-16.2 -4.5,-19.2 -8.1,-27.3c-3.3,-6.9 -6.6,-7.8 -14.1,-8.1c-9.6,-0.6 -9.3,5.4 -16.8,5.4c-3.9,0 -6,-1.5 -8.4,-3.3c-3.3,-2.4 -3.9,-1.8 -9,-2.4c-2.1,-4.8 -3,-7.8 -8.4,-9.9c-4.2,-1.8 -11.4,-1.2 -15.9,0.3c-6.3,2.4 -13.5,14.1 -19.5,17.1l-6.6,-7.2c-3,-4.2 -0.3,-13.2 -3.6,-21c-2.1,-4.5 -3,-4.8 -5.7,-7.8c-10.2,-11.4 -10.8,-7.5 -16.8,-6c-10.8,2.7 -8.1,7.5 -10.8,17.1c-4.8,0.3 -8.1,0.3 -12,0.9c-11.7,2.1 -12.9,-0.9 -15.9,10.8c-0.3,1.2 -0.9,3.9 -1.5,4.8c-1.2,3 -2.4,2.4 -2.4,6c0,11.1 6,10.8 -3.6,24.3c-9,-1.5 -10.2,-6.3 -16.8,-10.2c-3.9,-2.1 -6,-1.2 -4.8,-6.6c2.7,-13.5 5.1,-12.9 -0.9,-28.2c-1.5,-3.6 -3,-7.8 -5.1,-10.8c-8.1,-12.3 -12.9,-4.5 -21.3,-4.8c-0.3,-4.5 1.5,-6 3.3,-9.3c2.7,-5.1 -0.9,-20.1 -4.8,-24.6l-4.8,-4.2c-15.9,-11.4 -16.5,-1.8 -25.8,-2.1l-6.9,0c-0.3,-2.4 -1.2,-3.6 -1.5,-6.3c-1.2,-6.3 -4.2,-12.6 -8.4,-17.4c-10.8,-11.7 -15.9,-0.3 -21,2.4c-8.1,4.2 -10.2,13.2 -20.7,7.2c-4.8,-3 -13.2,-6.3 -19.5,-3c-1.2,0.9 -1.5,1.2 -2.4,1.8c-1.2,0.9 -1.8,0.9 -3,1.5c1.8,-8.7 6.3,-20.1 2.7,-28.8c-1.8,-4.8 -5.4,-5.7 -10.8,-6.9c-6.6,-1.5 -6.9,-2.7 -10.5,-7.5c-6.6,-8.7 -13.5,-26.4 -30.3,-17.1c-2.1,0.9 -3.6,2.7 -6.3,2.1c-3.3,-0.9 -2.1,-2.4 -5.7,-2.1l-0.6,0c-4.5,0.9 -6.6,9.3 -12.3,11.7c-3.9,1.8 -6.3,1.2 -9.6,2.1c-3.6,1.2 -4.8,3.3 -7.8,4.5c-2.7,-4.8 -1.8,-8.7 -3.9,-13.5c-2.1,-4.2 -5.1,-6.3 -8.7,-9c-4.5,-3.3 -8.7,-3.3 -13.2,-0.6c-4.8,2.7 -5.4,5.4 -6.6,11.7Z"/></g><g id="Layer_x0020_5"><path id="Glider" d="M993.433,516.5c1.5,-1.8 -0.9,-0.9 1.8,-0.6c3.3,0 3,1.5 6.6,3.3c9.9,4.2 60.3,28.8 63.6,33.3c-2.4,1.8 -12,4.5 -15.3,5.4c-1.8,0.6 -3.6,0.6 -5.4,1.5c-1.5,0.6 -3,1.5 -4.8,1.8c-13.5,3.9 -46.8,15.3 -57.9,16.2c-1.2,7.2 5.7,10.8 9.9,9.3c2.7,-0.9 4.5,-1.8 7.5,-3l8.1,-2.4c3,-1.2 4.8,-1.2 7.8,-2.4l3.3,-1.2c9.6,-2.1 18.6,-5.4 28.2,-7.5c8.4,-2.1 15,-4.8 23.4,-7.5c9.9,-3 10.2,-6.3 27,0.9c11.1,4.8 3.3,0 9,2.1c-1.5,2.4 -5.4,5.4 -7.5,7.5c-3.6,3 -4.5,4.8 -7.8,8.4c-3.3,3.6 -8.4,7.2 -11.7,11.4c-2.4,3 -1.8,2.4 -3.9,4.5c-1.5,1.2 -2.4,2.7 -3.6,4.2l-7.5,8.1c-6,7.2 -13.5,12.9 -20.1,19.5c-6.9,6.6 -12.6,13.5 -19.2,19.8c-1.5,1.2 -2.7,2.7 -3.9,4.2l-23.4,24c-3,3 -5.1,4.2 -7.8,7.2c-6,6.9 -13.2,12.3 -19.8,19.2c-2.4,2.7 -1.5,6.3 -8.7,10.2c-6,3.3 0,4.5 -14.7,12c-4.2,2.4 -11.1,5.1 -14.1,8.1c-1.5,1.8 -2.4,2.4 -3.6,3.9c-4.8,5.4 -6.3,9.3 -8.7,17.1c-2.7,8.7 -5.1,15.3 -3.6,24c0.9,4.2 2.4,6.3 6.3,8.4c2.1,1.2 3.6,2.4 6.3,2.4l16.8,-0.3c6.9,-0.9 23.7,-4.8 28.5,-9.9l0.6,-0.9c1.8,-3 13.5,-3.6 15.9,-1.2c2.4,-3 -0.9,-1.8 3.3,-2.1c-0.9,3 -1.5,3 -2.1,5.4c0,-0.9 0.9,-2.7 1.8,-4.2c1.2,-1.5 0,-0.6 1.8,-1.8c1.8,-1.5 0.9,-0.9 2.1,-0.6c3.3,0 8.7,-0.6 11.7,-1.8l14.4,-4.5c1.8,-3.6 0.9,0.3 0.3,-1.5c2.4,1.8 2.4,1.5 5.1,-0.3c3,-1.8 3.6,-3.6 6.3,-4.5c0.3,-0.3 0.3,-0.3 0.6,-0.3l3.6,-2.1c7.8,-4.8 3,-4.8 16.8,-0.9c8.1,2.4 13.2,5.1 22.5,7.2c4.2,1.2 8.1,3 12.6,4.2c3.3,-12 -6.9,-10.5 -13.5,-12.3c-7.2,-2.1 -12.9,-6.3 -18.3,-7.2c-2.1,-0.3 -3.3,-0.3 -4.8,-1.8c0.9,-1.5 1.5,-2.4 2.7,-3.9l0.3,-0.3l17.4,-11.7c0.3,-0 0.6,-0.3 0.6,-0.3c4.8,-1.8 6.6,-2.7 12.3,-0.6c1.5,4.5 2.1,17.4 3.3,20.4c2.1,5.1 2.4,0.6 4.8,13.8c1.2,6.6 3.9,4.8 5.1,10.5c0.6,1.8 0.9,3 1.5,5.1c1.5,3.3 8.7,11.1 12,12.9l12.6,8.1c0.6,0.3 3,0.9 3,0.9l6.6,0.9c0.3,-3.6 -0.6,-7.2 -1.8,-10.2c-1.5,-3.3 0,-1.8 -1.2,-3.3l-1.2,-1.2c-1.5,-1.8 -3.6,-4.2 -5.7,-6.3c-2.4,-2.4 -2.7,-4.2 -4.2,-7.2c-1.8,-3.6 -2.7,-3.6 -3.9,-7.5c-0.6,-3.3 -2.4,-7.2 -2.7,-10.2l-6,-32.1c-0.6,-3.9 0.3,-6 -0.3,-9.9l-0.3,-0.3l-0.6,-3.3l0,-0.6l-0.6,-1.5c-3.6,-16.5 -7.2,-16.2 -9.6,-20.7l-5.7,-11.4c1.8,-2.1 -0.3,-0.3 2.7,-1.2l6,-2.4c1.5,-0.6 2.1,-0.6 3.3,-1.5c7.2,-3.3 16.2,-14.4 16.5,-22.8c0,-4.2 -1.2,-9.9 -3,-13.8c-1.8,-3.9 -6.3,-7.5 -10.5,-9c-5.4,-2.1 -12.3,-3.3 -18,-0.3l-0.9,0.6c-0.9,0.6 -1.8,0.9 -2.7,1.5c-13.5,8.1 -10.5,8.1 -19.5,19.8c-1.8,2.4 -6,2.7 -7.8,4.5c-3.3,3.3 -4.5,0.9 -9,3.6c-3,1.5 -5.4,2.7 -7.8,5.4c-1.2,1.2 -1.5,1.2 -2.7,2.4c-11.7,11.4 -6.3,15.6 -15.3,17.7l-33,16.8c-2.7,1.8 -2.7,3 -6.6,3.6c2.1,-4.8 5.4,-4.8 8.7,-8.4l8.4,-8.4c3,-3 5.4,-4.2 8.4,-7.5c5.7,-6.6 18.3,-20.1 24.6,-25.2c3.9,-3.6 7.5,-9 12,-12.9l12,-12.3c3,-3.6 5.7,-4.5 8.7,-7.8c5.1,-5.4 11.7,-11.1 16.2,-16.8c5.1,-6.9 10.5,-9.9 14.1,-14.4c3,-4.2 6.3,-7.5 10.2,-10.5c3.6,-2.4 5.1,-5.4 8.4,-8.1c5.4,3.6 5.7,20.1 7.5,27c0.9,5.4 1.8,17.1 3.6,21.6c1.5,3.9 2.7,9.3 3,13.8c0.6,9 3.3,15 4.2,21c0.3,3 0.3,4.5 0.9,7.5c0.6,3 0.9,3.9 1.5,6.9l3.9,21.3c0.6,2.7 1.2,3.6 2.1,6.6c0.9,4.5 0.9,9.6 2.1,14.4c1.2,4.5 2.1,9.3 3,14.1c0.6,3 0.9,4.5 0.9,7.2l9.9,57c0.3,2.7 1.5,5.4 0.3,7.8l-15,-3.6c-3.6,-0.9 -3,-1.5 -3.9,0.3c-2.7,0.9 -2.1,-0.6 -1.5,5.1c0.6,3.9 0.3,2.1 1.5,5.7l5.1,-0c5.7,-0.3 14.7,2.7 18,6.3c2.4,-0.3 0.3,-0.9 2.4,-0.6c2.1,-0 0.9,0.6 4.2,0.9c0.3,-3.3 -0.9,-0 0.6,-3c1.2,-2.7 1.2,-0.3 0.9,-3c-0.3,-15.6 -6.9,-35.1 -8.7,-52.2l-7.5,-44.4c-0.9,-4.8 -1.5,-10.2 -2.4,-15c-0.6,-5.1 -1.8,-9.9 -2.7,-14.7l-6.9,-36.3c-2.1,-6.6 -3.3,-14.7 -4.8,-21.9c-1.2,-5.1 -1.8,-9.3 -2.7,-14.7c-0.9,-6.9 -5.7,-23.4 -4.8,-30c13.8,3 31.8,11.1 45,18c5.1,2.7 10.5,4.5 15.6,6.9c4.5,2.1 9.6,4.2 15,6.3l15.6,6.9c9,4.5 21,8.4 30.9,11.7c10.2,3.3 18.6,7.8 29.4,12.3l26.1,12c1.5,1.2 -1.2,-0.3 1.8,1.2l19.2,9.6c2.7,0.9 5.4,1.8 6.9,2.7c4.2,2.1 2.7,1.5 6.9,2.4c5.7,1.2 25.2,12.3 33,14.4c2.7,0.6 1.5,0.6 2.4,1.2c2.4,2.7 22.8,12.3 27.6,13.8l9.3,3.3c0.6,0.3 0.3,0.3 1.5,0.9l33.6,17.1c2.4,0.9 0.6,0.9 3.6,2.4l21.3,11.1c4.5,2.4 8.4,5.1 12,8.4c8.4,6.6 30.3,21.3 37.8,25.5c1.5,0.9 0.3,-0 1.2,0.9l42.3,29.1c2.7,2.7 1.8,0.6 1.5,3.6c0.9,-2.7 1.8,-1.2 6.9,2.4c3.3,2.4 3.3,2.7 7.2,4.8c2.1,1.2 0,0 1.8,0.9c0,0.3 0.6,0.6 0.9,0.9c3.6,2.4 6.9,4.8 11.4,6.3c1.8,0.9 0.9,0.3 1.8,0.9l28.2,20.7c9,6.6 17.7,11.7 27,20.1l24,17.7c2.7,1.5 2.1,1.5 4.5,0.6c0.3,0.9 0.3,0.9 0,1.8c0,2.4 -0.3,-1.2 0,2.1c3.9,1.2 6.6,3 6.9,-2.1c0.3,-5.1 -2.1,-8.7 -4.2,-12.9c-1.8,-3.3 -12,-14.4 -15,-17.7c-2.4,-2.4 -4.8,-3.9 -7.2,-6.6l-62.1,-58.2c-2.1,-2.4 -0.6,-1.5 -3.3,-3.6l-5.4,-4.8c-10.2,-8.4 -19.8,-18 -29.7,-27l-11.1,-9.9c-4.5,-4.2 -9,-9 -14.7,-12.6c-1.5,-0.9 -2.1,-1.5 -3.3,-2.7c-1.5,-1.8 -1.2,-2.1 -3.3,-3.6c-1.5,-0.9 -2.4,-1.2 -3.9,-2.7l-34.5,-27.6c-3.9,-3 -8.7,-5.4 -10.8,-9.6c-2.1,-4.2 -8.7,-5.7 -12.3,-8.7c-3,-2.7 -3,-3.9 -6,-6.6c-4.2,-3.9 -11.4,-8.4 -15.6,-12.3c-4.8,-5.1 -9.6,-9.6 -15.9,-13.2c-3.6,-2.1 -3,-4.5 -6.9,-7.8l-10.8,-8.1c-2.4,-1.8 -5.1,-3.9 -7.8,-6l-12.3,-8.4c-4.2,-2.1 -2.1,-1.8 -3.6,-3.3c-0.6,-0.9 -6.6,-5.4 -7.5,-6c-5.7,-3.3 -10.5,-8.1 -15,-12.6c-3.3,-3 -26.4,-21 -31.5,-23.7c-5.1,-2.4 -4.5,-3.3 -8.1,-6l-18,-15.3c-1.8,-1.5 -2.7,-1.5 -4.5,-3c-6.9,-6.3 -4.8,-3.3 -8.1,-6c-3,-2.4 -4.8,-3.6 -7.5,-6l-7.5,-6c-3.9,-3.3 -6.6,-7.2 -10.5,-9.9c-4.2,-2.7 -2.4,-1.8 -9.3,-8.7c-2.1,-2.1 -5.1,-4.8 -7.2,-6.9c-7.5,-6.9 -8.1,-6 -11.7,-9c-2.7,-2.4 -0.6,-0.9 -1.5,-4.2c-7.8,-1.5 -13.8,-3.9 -21.3,-6c-7.8,-2.1 -14.4,-3 -22.5,-5.4c-7.2,-2.1 -14.7,-4.2 -21.6,-5.7l-21,-6.6c-0.3,-3.3 4.8,-14.7 6,-18.9c1.2,-3.9 1.5,-7.2 2.1,-10.2c0.6,-3.6 2.4,-6.6 3.3,-10.2c-4.5,-1.8 -7.2,-0.6 -10.8,0.3l-11.4,36.6c-9,-2.7 -45,-13.2 -54.6,-14.7l-39,-9.3c-9,-2.7 -3.3,-1.8 -11.4,-3.3c-12.9,-1.8 -62.4,-15.3 -76.8,-18.9c-11.7,-3 -29.1,-10.2 -39,-11.7c-9.6,-1.5 -25.2,-7.2 -39.6,-9.6c-8.1,-1.5 -18,-4.5 -26.1,-6.9l-23.7,-6.6c-17.4,-4.2 -34.2,-9.9 -52.2,-13.5c-18.6,-3.9 -36.3,-10.2 -54.9,-13.5c-8.4,-1.5 -16.8,-4.5 -25.2,-6.3c-8.7,-2.1 -18,-2.7 -24.9,-4.5c-9.3,-2.7 -15.9,-3 -21.9,-4.5l-15.3,-3.6c-3,-0.6 -3.9,-0.6 -5.7,-1.2c-15.9,-4.5 -31.8,-7.5 -47.4,-13.5c-3.6,-1.5 -6.9,-2.1 -11.4,-3c-17.4,-3.6 -27,-15.6 -42.6,-22.5c-16.5,-7.2 -39,-21.6 -56.7,-24.9c-2.7,-0.6 -7.8,-2.1 -12.3,-2.7c-2.4,-0.3 -3,0 -5.7,-0.3c-2.1,-0.3 -4.5,-0.9 -6.9,-1.2l-24.6,-1.8c-7.8,0.6 -14.4,0.6 -22.2,1.8c-3.9,0.6 -6.9,0 -11.4,1.2c-4.8,1.5 -11.7,0.3 -16.2,2.1l-3,2.1c-3,2.1 -7.5,2.4 -10.8,4.5c-1.8,1.2 -1.8,2.1 -3.9,3.6c-1.8,1.5 -2.7,1.5 -3.6,3.9c3.3,6.6 10.2,7.5 16.5,9l17.4,3.9c3,0.6 2.7,1.2 5.4,2.1c6.9,1.8 13.8,1.8 21,4.2c2.4,0.6 6.9,1.8 9.6,2.4c0,0 1.2,0.3 1.5,0.3c0.6,0 1.8,0.3 2.4,0.3l9.9,3c0.9,0.3 5.1,0 12.9,1.5c7.2,1.8 14.1,3 22.2,5.1c7.8,1.8 15.3,2.7 22.5,4.8c14.7,4.2 32.4,9 47.1,11.7c14.7,2.4 30.9,6.3 45,10.8c3.6,1.2 7.8,2.4 11.4,3c3.9,0.9 6.9,2.4 11.1,3.6c8.4,2.7 12.6,1.8 20.7,6.9c18.9,11.4 9.3,3.9 18.3,7.5c6,2.4 13.2,6.3 18.9,9l39,18c2.7,1.5 6.6,3.6 9.3,4.8c9.9,3.9 18.9,6.9 29.7,12l28.2,13.5c24,8.1 46.5,21.9 70.2,31.2c2.7,0.9 6.3,2.7 9,4.2c5.1,3 12.6,8.1 18.6,9c7.5,1.2 21.3,9.9 28.5,13.5c3,1.2 6.9,2.4 9.9,4.2c3.3,2.1 5.7,3.3 8.4,4.8l54.9,28.2c3,1.5 6.6,3.6 9.3,5.1c3.3,1.8 5.7,2.4 6.6,6Z"/></g><g id="Layer_x0020_6"><path id="Cloud_x0020_R" d="M1726.33,495.5l24.6,-0.6c6.9,-0.3 42.9,-0.3 48.9,-1.5l34.8,-3.3c3.6,0.3 4.8,3 15.9,-0.9l6.3,-3.3c0.9,-0.6 0,0 0,-0.3l-0.3,-0.6c0,-0.3 1.8,-2.7 2.1,-3.9c2.1,-6 0,-8.7 -0.3,-13.2c0,-1.5 -2.4,-4.8 -3,-6.3c-1.2,-5.7 0.6,0 -2.7,-5.4c-1.5,-2.4 -5.1,-5.7 -5.7,-6.6c-0.6,-1.2 -0.3,-0.6 -0.3,-2.1c-1.5,-0.3 -1.5,0.3 -2.4,-0.9c-1.5,-1.5 1.8,0.3 -1.2,-1.2c-1.8,-1.2 -0.3,0.6 -2.4,-1.8c-0.9,-1.5 -2.4,-3.6 -3.9,-4.5c-9,-5.4 -12.6,-4.5 -15.9,-5.4l-7.8,-1.2c0.6,-2.1 1.8,-4.5 2.1,-6.6c0.3,-0.6 -0.6,-6 -0.6,-6.3c-1.8,-0.3 -1.5,-1.2 -1.8,-2.7c-0.9,-4.2 -0.9,-4.5 -3,-6.6c-9,-8.4 -13.8,-1.8 -15.9,-6.3l-0.3,-0.3l-1.5,0.3l-1.5,0c1.5,-1.8 -0.3,-0.9 0,-3c0.3,-0.9 1.5,-2.1 2.1,-3.3c2.7,-3.9 6.3,-19.5 6,-24c-0.6,-14.1 -5.4,-16.8 -6.3,-18.9l-1.2,-2.7c-2.1,-2.4 -14.7,-12.6 -16.8,-14.1c-1.2,-0.9 -2.4,-1.2 -3.3,-1.8c-1.2,-0.6 -0.3,-2.1 -5.7,-3.3c-2.1,-0.3 -2.4,-0.6 -3.9,-0.9c-10.8,-2.1 -19.8,1.8 -26.1,2.4c-4.5,0.6 -2.1,3.6 -6,3.3c-0.6,-1.2 1.5,-11.1 1.5,-13.8c0.3,-4.2 -0.3,-10.8 -0.9,-14.7c-1.5,-8.7 -1.5,-6.3 -3.9,-12.3c-0.9,-1.8 -6.6,-8.7 -8.1,-9.9l-3.6,-2.1c-0.9,-0.6 -0.6,-0.3 -1.2,-0.9l-0.3,-0.3c-1.8,-1.8 -7.2,-3.6 -9.3,-4.2c-10.5,-3 -22.2,-6 -34.2,-4.5c-2.1,0 -5.1,0.3 -7.2,0.9c-4.8,1.5 -13.2,3.6 -17.1,6.3c-6.9,4.8 -11.4,9 -15.6,16.2c-1.2,1.8 -2.1,2.7 -3.3,4.8c-3.6,7.5 -3.9,8.4 -5.7,17.7c-0.9,4.5 -1.5,9.9 -1.8,14.4c-1.5,15.6 0.9,9.6 -3.9,11.7c-0.9,-1.5 -0.3,-1.5 -2.4,-2.7c-2.7,-1.2 -7.8,-3.6 -9.9,-3.9c-7.8,-1.8 -20.1,-2.4 -27.3,0.9l-0.9,0.6c-3.3,2.7 -5.1,3 -8.1,5.4c-4.5,3.6 -1.8,3.3 -4.5,4.5c-0.6,2.1 -3.3,5.1 -4.2,7.2c-6.6,15.9 -5.1,13.8 -4.8,31.2l0.9,5.4c1.2,4.2 0.3,3 2.1,3c-2.4,3.3 -1.5,1.2 -6.3,2.1c-2.7,-3.9 -2.1,-3.3 -6.6,-3.9c-2.4,-0.6 -2.4,-1.5 -6.9,1.2c0,0 0,0.3 -0.3,0.3l-0.3,0.3l-0.9,0.6c-1.5,1.2 -0.3,0.9 0.3,1.8c-0.9,0 -0.9,-0.6 -2.4,1.5c-1.2,1.8 -0.3,0.6 -0.3,2.4c0,1.2 -0.9,1.8 -1.2,3.3c-0.3,1.5 0,2.7 -0.3,3.9l-4.8,1.8c-0.3,0 -1.2,0 -2.1,0.3c0.3,-3 0.6,-3 -0.9,-4.8c-4.8,-6 -3.6,-3.3 -8.7,-7.2c-10.8,-8.4 -28.2,-5.1 -33.3,-0.3c-0.3,0.6 -0.3,0.3 -0.6,0.9l-6.6,7.2c-0.6,1.8 -0.3,1.8 -2.1,2.7l-0.6,0.3c1.8,2.4 1.5,-0.6 0.6,4.8c-0.6,3.9 0,9.3 0.3,13.2c0.3,3.9 -0.6,4.2 0,5.7c-3.9,-0.3 -2.1,-0.6 -3.3,0.3c-2.1,1.5 -0.9,0.3 -3.3,1.2c-1.5,-1.8 -4.5,-2.4 -6.6,-3.3c-1.2,-0.6 -0.3,-0.6 -2.1,-0.6c-3.6,0.3 -3.6,1.5 -4.8,2.4c-6.3,5.1 -3.6,9.9 -4.8,15.3c-1.5,0.6 -2.4,0.6 -3.3,1.8c-2.7,-1.2 -3.3,-1.2 -6.6,-1.2l-4.5,0.6c-2.4,0.6 -4.2,0.9 -5.4,2.4c-3.6,3.9 -2.1,0.3 -4.8,4.5c-1.2,2.1 -3.9,6.3 -4.2,8.4c-1.5,8.4 3.3,11.4 -1.8,15.3c-3.6,2.7 -7.5,2.4 -12.9,3l-9.6,3.3c-7.5,5.1 -1.8,0.3 -6.3,6.6c-1.5,1.8 -1.8,0.9 -1.8,4.2c3.9,-0.3 7.8,1.8 11.7,2.7c15.3,3.3 22.5,1.2 36.6,1.5c3.9,0 2.1,0.9 3.6,0.3c1.5,-0.3 6.9,0 8.7,0c3.9,0 7.8,-0.3 12,-0.6l71.7,-0.9c4.2,-0.3 8.1,0.6 12.3,0l69,-2.1c2.7,0 0.6,-0.6 4.8,-0.9c1.8,0 2.4,-1.5 3.9,0.3c1.8,-1.8 -0.3,-0.6 2.1,-1.5c2.7,-0.9 7.2,-0.6 9.9,-0.6l9.6,-0.3c8.7,-1.8 20.1,-1.8 29.4,-2.1c13.8,-0.6 29.7,-0.3 42.3,-0.6c4.8,-0.3 8.7,-0.6 13.2,-0.6Z" style="fill:#fefefe;"/><path id="Cloud_x0020_R_1" d="M1800.43,398.9c2.7,1.2 6.6,1.8 8.7,3.3c6.9,4.8 7.8,6.3 9.6,15.3c0.3,1.5 0.6,3.3 0.9,5.1c0.6,5.4 -3.3,6 6.6,6.9c2.7,0.3 4.2,0.9 6.6,1.8c4.5,1.5 7.2,3 10.2,5.7c0.6,0.9 1.2,1.5 1.8,2.1c3.3,3.6 0.3,1.2 6,6c2.7,2.4 8.4,11.1 9.9,15c0.6,1.5 1.5,4.5 2.1,5.7c2.7,4.8 2.4,15.6 -0.6,19.5c-4.5,5.4 -7.2,7.5 -15,9.6c-4.2,1.5 -18.6,3 -21.6,2.1l-0.9,-0.3c-2.4,-1.2 -3.9,-0.6 -6.6,-0.6c-2.7,-0 -4.2,0.3 -6.6,0.9c-2.4,0.6 -5.1,0.3 -6.9,0.6c-5.4,0.6 -8.4,1.5 -13.5,1.2c-4.5,-0.3 -8.4,1.5 -14.1,0.9c-3,-0.3 -9.6,0.6 -14.7,0.6l-15.9,-0c-5.4,0.3 -10.8,0.9 -16.5,0.6c-1.2,0.9 -17.1,1.5 -20.4,1.5c-4.8,-0 -3.6,-0.3 -10.5,-0c-3.6,-0 -7.8,0.3 -10.8,0.3c-7.5,-0 -35.1,0.6 -42.6,1.8c-12.6,1.5 -15.3,1.2 -25.8,1.5c-1.2,-0 -2.7,0.9 -4.2,1.2l-2.4,0.3c-16.5,2.7 -34.5,1.2 -51.9,2.1c-3.3,0.3 -7.2,0.3 -10.5,0.6l-9.9,0.3c-9.3,0.9 -27.3,-0.3 -33,0.3c-2.1,0.3 -2.7,-0 -4.5,-0l-5.7,-0c-9,-0 -20.1,1.2 -27.3,0.6c-5.1,-0.6 -11.4,0.9 -15.3,-0c-2.1,-0.6 -3,0.3 -9,0.3l-22.8,0.3c-3.3,0.3 -6.9,-0.3 -9.6,-0l-18.6,-1.2c-1.8,-0 -1.2,0.3 -2.4,-0.6c-1.8,0.3 -3.3,-0 -5.4,-0c-2.7,-0.3 -2.4,-0.6 -3.9,-2.4l-0.3,-0c0,0.3 -0.6,0.9 -1.8,0.6c-0.6,-4.8 -0.9,-11.4 1.2,-14.7c2.1,-3 4.2,-5.4 6.9,-7.8c3.6,-2.7 12.3,-5.7 17.4,-6c3.3,-0.3 4.2,-0.9 6.9,-1.5c-1.8,-4.5 0.3,-16.5 6,-23.4c6.3,-7.8 13.5,-9.3 23.1,-9.3c1.2,-6 3.3,-11.1 6.6,-15c5.7,-6.3 12.3,-1.5 15.6,-0.9c0,-5.7 -3,-12.6 3.6,-22.8c0.9,-1.2 5.7,-6.3 6.9,-7.2c3,-2.4 5.1,-4.5 8.4,-6c11.7,-5.1 23.4,-4.8 33.6,2.7c2.7,1.8 0.3,1.2 4.2,2.7c2.7,1.2 2.7,2.1 3.9,3.3c3.6,-1.8 3.9,-14.4 20.1,-11.7c0.3,-4.5 -3.3,-14.1 3,-29.7c1.2,-2.4 4.8,-7.8 6.3,-10.2c3,-4.2 3.9,-5.1 8.7,-8.4c4.8,-3.6 4.2,-3.3 10.5,-6c9.6,-4.5 10.8,-3.6 20.1,-3.9c1.8,-0 6,0.6 7.5,1.2c4.2,0.9 4.5,1.8 7.2,3c2.1,0.9 3.3,1.5 4.5,1.5c-0.3,-8.4 2.4,-19.2 4.5,-27.6c2.7,-9.6 14.4,-26.7 24,-32.4c1.8,-1.2 2.7,-2.4 4.5,-3.3c4.2,-2.4 13.5,-5.1 18.3,-6c2.1,-0.3 4.8,-0.6 7.2,-0.9c7.2,-0.6 23.1,0.6 28.5,3.6c6.6,3.6 8.7,1.8 11.4,3.6c1.5,1.2 3.9,1.8 5.1,3c3.3,3.3 2.7,1.2 4.5,3.9l0.6,0.9l0.3,0.6c1.2,1.8 2.7,0.3 4.8,3.6c4.8,6.3 3.6,5.4 6.3,12.9c0.6,0.9 1.2,1.8 1.2,2.7c0.3,1.2 0.3,2.4 0.6,3.9c1.8,9.3 0.3,14.7 0,22.5c7.5,-3.3 24,-4.8 30.9,-2.1c1.8,0.3 5.1,1.2 6,1.8c1.5,0.9 2.1,2.1 4.2,3.3c6.9,3.6 3,2.7 8.4,6.3c4.8,3.3 12,9.3 14.7,14.7c0.9,2.1 4.8,15.9 3.9,17.4c0.3,-0 0.3,-0 0.3,0.3c0,-0 1.8,2.7 0.6,8.1c-0.6,2.1 0.6,0.3 0.3,3c-0.3,0.9 -0.3,0.9 -0.6,1.5c0,1.8 0,-0.9 0,-0c0,0.3 0.3,0.6 0.3,1.2c0.3,2.4 -3,9.9 -3.9,14.1Z" style="fill:#fefefe;stroke:#000;stroke-width:4.17px;"/><path id="Cloud_x0020_L" d="M752.833,596.9l-171.3,2.1c-9,-0.3 -15.3,-0.9 -19.5,0c-6.3,1.2 -16.8,1.5 -24.3,1.2c-17.7,-0.3 -36.9,-1.5 -47.4,-0c-5.7,0.9 -6,-0.9 -10.5,-0.3c-3.6,0.6 -8.7,0.9 -12.6,0.3c-6.6,-0.9 -16.5,-0.6 -24,-0.6c-7.2,0 -44.7,-1.5 -45.9,-6c-6.3,1.5 -23.4,-13.2 -26.4,-21.9c-2.1,-6.3 0.6,-14.7 3.3,-20.1c4.5,-8.7 6.9,-7.5 13.8,-11.7c-3.3,-8.4 1.2,-22.8 7.5,-27.3c3,-2.1 11.1,-1.8 10.2,-5.4c0,-0 -3.3,-4.8 -4.8,-11.1c-4.8,-18 -1.8,-44.7 10.5,-59.1c13.5,-15.6 28.2,-25.5 48.9,-25.2c12,0.3 47.4,15.9 47.7,28.2l5.7,13.5c4.2,-3.3 10.8,-5.7 15.9,-6.6c4.2,-0.9 -0.6,1.2 3.6,-0.6c4.2,-1.8 11.7,-2.7 15.9,-2.1c7.2,1.2 26.4,6.6 30.3,15.3c8.4,5.1 6.3,27.3 5.7,36c8.4,-2.4 9.9,-6.3 20.7,-2.7c10.2,3.9 7.2,8.1 11.1,15.3c6.3,-6 26.7,-17.1 33.9,-13.2c10.8,0.6 24,2.7 33.6,8.7c15,9 11.1,14.4 15,28.2c2.7,0.6 11.1,-8.7 21.6,-3.6c13.5,6.9 5.4,5.4 12.3,15.3c9.6,-6.9 12.9,-13.5 26.7,-13.8c18.6,-0.3 24.3,9.6 27.6,9.9c4.2,2.4 3.9,3.3 6.9,7.5c1.8,2.1 1.2,2.1 2.7,3.6c1.2,0.9 2.4,2.7 1.5,4.2l1.5,0l-0.3,1.8l2.7,11.7c3.9,1.2 9,-0.9 13.5,-0.9c7.2,0 9.3,1.5 15.3,2.4c10.5,1.5 22.2,0.9 32.4,2.4c9,1.8 20.1,4.2 28.8,3.6c5.1,-0.3 16.5,5.4 18.9,8.4l-5.1,3.9c-2.1,0.9 -11.4,0.9 -14.4,0.9c-1.5,0 -13.2,0.9 -13.2,0.9l-126,6.9Z" style="fill:#fefefe;stroke:#373435;stroke-width:4.17px;"/></g><g id="Layer_x0020_7"><path id="Connecticut" d="M354.433,116.3c-3.9,6 -8.7,11.4 -14.1,15.9c-5.7,4.8 -11.7,9 -18.6,12.3c-6.9,3.3 -14.1,6 -21.9,7.8c-8.1,2.1 -16.2,3 -24.6,3c-12.3,0 -24.3,-2.1 -35.1,-6c-11.1,-4.2 -20.7,-9.6 -28.8,-16.5c-8.4,-6.9 -14.7,-14.7 -19.5,-24c-4.8,-9.3 -7.2,-18.9 -7.2,-29.4c0,-10.5 2.4,-20.1 7.2,-29.4c4.8,-9.3 11.1,-17.1 19.5,-24c8.1,-6.9 17.7,-12.3 28.8,-16.5c10.8,-3.9 22.8,-6 35.1,-6c8.4,0 16.5,0.9 24.6,3c7.8,1.8 15,4.5 21.9,7.8c6.9,3.3 12.9,7.5 18.6,12.3c5.4,4.5 10.2,9.9 14.1,15.6l-31.5,10.5c-2.4,-3 -5.4,-6 -8.7,-9c-3.6,-2.7 -7.5,-5.1 -11.4,-7.2c-4.2,-2.1 -8.7,-3.9 -13.2,-5.1c-4.8,-1.2 -9.6,-1.8 -14.4,-1.8c-8.1,0 -15.3,1.5 -22.5,4.2c-6.9,2.7 -12.9,6.3 -18,10.8c-5.1,4.5 -9,9.9 -12,15.9c-3,6 -4.8,12.3 -4.8,18.9c0,6.6 1.8,12.9 4.8,18.9c3,6 6.9,11.4 12,15.9c5.1,4.5 11.1,8.1 18,10.8c7.2,2.7 14.4,4.2 22.5,4.2c4.8,0 9.6,-0.6 14.4,-1.8c4.5,-1.2 9,-3 13.2,-5.1c3.9,-2.1 7.8,-4.5 11.4,-7.5c3.3,-2.7 6.3,-5.7 8.7,-9l31.5,10.5Zm107.7,39c-12.6,0 -24.3,-2.1 -35.4,-6c-10.8,-4.2 -20.4,-9.6 -28.8,-16.5c-8.1,-6.9 -14.7,-14.7 -19.5,-24c-4.8,-9.3 -7.2,-19.2 -7.2,-29.7c0,-10.2 2.4,-20.1 7.2,-29.4c4.8,-9.3 11.4,-17.4 19.5,-24.3c8.4,-6.9 18,-12.3 28.8,-16.2c11.1,-3.9 22.8,-6 35.4,-6c12.6,0 24.3,2.1 35.4,6c10.8,3.9 20.4,9.3 28.8,16.2c8.1,6.9 14.7,15 19.5,24.3c4.8,9.3 7.2,19.2 7.2,29.4c0,10.5 -2.4,20.4 -7.2,29.7c-4.8,9.3 -11.4,17.1 -19.5,24c-8.4,6.9 -18,12.3 -28.8,16.5c-11.1,3.9 -22.8,6 -35.4,6Zm0,-126c-8.1,0 -15.3,1.5 -22.2,4.2c-6.9,2.7 -13.2,6.3 -18.3,10.8c-5.1,4.5 -9.3,9.9 -12.3,15.9c-3,6.3 -4.5,12.6 -4.5,18.9c0,6.9 1.5,13.2 4.5,19.2c3,6 7.2,11.1 12.3,15.9c5.1,4.5 11.4,8.1 18.3,10.8c6.9,2.7 14.1,4.2 22.2,4.2c8.1,-0 15.3,-1.5 22.2,-4.2c6.9,-2.7 13.2,-6.3 18.3,-10.8c5.1,-4.8 9.3,-9.9 12.3,-15.9c3,-6 4.5,-12.3 4.5,-19.2c0,-6.3 -1.5,-12.6 -4.5,-18.9c-3,-6 -7.2,-11.4 -12.3,-15.9c-5.1,-4.5 -11.4,-8.1 -18.3,-10.8c-6.9,-2.7 -14.1,-4.2 -22.2,-4.2Zm268.8,123l-114.9,-87l0,87l-33.6,0l0,-146.1l3.6,0l115.2,88.5l0,-88.5l33.3,0l0,146.1l-3.6,0Zm190.5,0l-115.2,-87l0,87l-33.3,0l0,-146.1l3.6,0l114.9,88.5l0,-88.5l33.6,0l0,146.1l-3.6,0Zm75.3,-121.5l0,36.6l84.6,-0l0,25.5l-84.6,-0l0,34.2l95.4,-0l0,25.2l-129,0l0,-146.4l129,0l0,24.9l-95.4,0Zm285.3,85.5c-3.9,6 -8.4,11.4 -14.1,15.9c-5.7,4.8 -11.7,9 -18.6,12.3c-6.6,3.3 -14.1,6 -21.9,7.8c-7.8,2.1 -16.2,3 -24.6,3c-12.3,-0 -24,-2.1 -35.1,-6c-11.1,-4.2 -20.7,-9.6 -28.8,-16.5c-8.1,-6.9 -14.7,-14.7 -19.5,-24c-4.8,-9.3 -7.2,-18.9 -7.2,-29.4c0,-10.5 2.4,-20.1 7.2,-29.4c4.8,-9.3 11.4,-17.1 19.5,-24c8.1,-6.9 17.7,-12.3 28.8,-16.5c11.1,-3.9 22.8,-6 35.1,-6c8.4,-0 16.8,0.9 24.6,3c7.8,1.8 15.3,4.5 21.9,7.8c6.9,3.3 12.9,7.5 18.6,12.3c5.7,4.5 10.2,9.9 14.1,15.6l-31.2,10.5c-2.7,-3 -5.7,-6 -9,-9c-3.6,-2.7 -7.2,-5.1 -11.4,-7.2c-4.2,-2.1 -8.7,-3.9 -13.2,-5.1c-4.5,-1.2 -9.3,-1.8 -14.4,-1.8c-7.8,-0 -15.3,1.5 -22.2,4.2c-6.9,2.7 -13.2,6.3 -18.3,10.8c-5.1,4.5 -9,9.9 -12,15.9c-3,6 -4.5,12.3 -4.5,18.9c0,6.6 1.5,12.9 4.5,18.9c3,6 6.9,11.4 12,15.9c5.1,4.5 11.4,8.1 18.3,10.8c6.9,2.7 14.4,4.2 22.2,4.2c5.1,-0 9.9,-0.6 14.4,-1.8c4.5,-1.2 9,-3 13.2,-5.1c4.2,-2.1 7.8,-4.5 11.4,-7.5c3.3,-2.7 6.3,-5.7 9,-9l31.2,10.5Zm140.4,-85.5l-50.1,-0l0,121.5l-33.3,0l0,-121.5l-50.4,0l0,-24.9l133.8,0l0,24.9Zm61.2,121.5l-33.6,0l0,-146.1l33.6,0l0,146.1Zm203.4,-36c-3.9,6 -8.7,11.4 -14.1,15.9c-5.7,4.8 -12,9 -18.6,12.3c-6.9,3.3 -14.1,6 -22.2,7.8c-7.8,2.1 -15.9,3 -24.3,3c-12.6,-0 -24.3,-2.1 -35.1,-6c-11.1,-4.2 -20.7,-9.6 -28.8,-16.5c-8.4,-6.9 -15,-14.7 -19.5,-24c-4.8,-9.3 -7.2,-18.9 -7.2,-29.4c0,-10.5 2.4,-20.1 7.2,-29.4c4.5,-9.3 11.1,-17.1 19.5,-24c8.1,-6.9 17.7,-12.3 28.8,-16.5c10.8,-3.9 22.5,-6 35.1,-6c8.4,-0 16.5,0.9 24.3,3c8.1,1.8 15.3,4.5 22.2,7.8c6.6,3.3 12.9,7.5 18.6,12.3c5.4,4.5 10.2,9.9 14.1,15.6l-31.5,10.5c-2.4,-3 -5.4,-6 -9,-9c-3.3,-2.7 -7.2,-5.1 -11.4,-7.2c-3.9,-2.1 -8.4,-3.9 -12.9,-5.1c-4.8,-1.2 -9.6,-1.8 -14.4,-1.8c-8.1,-0 -15.6,1.5 -22.5,4.2c-6.9,2.7 -12.9,6.3 -18,10.8c-5.1,4.5 -9.3,9.9 -12.3,15.9c-3,6 -4.5,12.3 -4.5,18.9c0,6.6 1.5,12.9 4.5,18.9c3,6 7.2,11.4 12.3,15.9c5.1,4.5 11.1,8.1 18,10.8c6.9,2.7 14.4,4.2 22.5,4.2c4.8,-0 9.6,-0.6 14.4,-1.8c4.5,-1.2 9,-3 12.9,-5.1c4.2,-2.1 8.1,-4.5 11.4,-7.5c3.6,-2.7 6.6,-5.7 9,-9l31.5,10.5Zm100.8,38.7c-11.4,-0 -21.6,-1.5 -30.9,-4.5c-9.3,-2.7 -17.1,-6.9 -23.7,-12.3c-6.6,-5.4 -11.4,-11.7 -15,-19.5c-3.6,-7.5 -5.4,-15.9 -5.4,-25.2l0,-87.3l33.3,0l0,87c0,7.5 1.5,13.5 4.5,18.3c2.7,4.8 6.3,8.4 10.5,11.4c4.2,2.7 8.7,4.5 13.8,5.7c4.8,1.2 9,1.5 12.9,1.5c3.9,-0 8.1,-0.3 12.9,-1.5c5.1,-1.2 9.6,-3 13.8,-5.7c4.2,-3 7.8,-6.6 10.5,-11.4c3,-4.8 4.5,-10.8 4.5,-18.3l0,-87l33.3,0l0,87.3c0,9.3 -1.8,17.7 -5.1,25.2c-3.6,7.8 -8.7,14.1 -15,19.5c-6.6,5.4 -14.7,9.6 -23.7,12.3c-9.3,3 -19.8,4.5 -31.2,4.5Zm229.2,-124.2l-49.8,-0l0,121.5l-33.6,0l0,-121.5l-50.1,0l0,-24.9l133.5,0l0,24.9Z" style="fill-rule:nonzero;"/><path id="Association" d="M1411.03,1802l-89.1,-138l1.5,-2.4l163.8,8.4l-15,26.4l-25.8,-1.5l-34.5,59.7l14.4,21l-15.3,26.4Zm-13.5,-71.4l21,-36.3l-48.6,-4.2l27.6,40.5Zm74.1,-71.7l-11.7,-24.6c8.1,-3.6 15.6,-8.1 22.8,-12.9c6.9,-5.1 12.6,-11.1 17.1,-18.6c2.1,-3.9 3.6,-7.5 4.5,-11.1c0.6,-3.6 0.9,-6.9 0.6,-9.9c-0.3,-3 -1.2,-5.7 -2.7,-7.8c-1.5,-2.1 -3.3,-3.9 -5.1,-5.1c-2.7,-1.2 -5.1,-1.8 -7.8,-1.2c-2.7,0.3 -5.4,1.8 -8.1,3.6c-2.7,1.8 -5.4,4.5 -8.1,7.5c-3,3 -5.7,6.3 -8.7,9.6c-2.1,2.4 -4.2,5.1 -6.9,7.8c-2.4,3 -5.4,6 -8.4,9c-3.3,3 -6.6,5.7 -10.5,8.1c-3.9,2.4 -7.8,4.2 -12.3,5.4c-4.2,1.2 -8.7,1.5 -13.5,1.2c-4.8,-0.6 -9.6,-2.4 -14.7,-5.4c-7.2,-4.2 -12.6,-9.3 -15.9,-15c-3,-6 -4.8,-12 -4.8,-18.3c0,-6.3 0.9,-12.6 3,-18.9c2.1,-6.6 4.8,-12.3 7.8,-17.7c3,-5.1 6.3,-9.9 9.3,-13.5c3,-3.9 6.3,-7.2 9.6,-9.9c3.6,-2.7 7.2,-5.4 11.1,-7.5c4.2,-2.4 8.7,-4.5 13.8,-6.9l11.1,24.6c-7.5,3.6 -14.1,7.5 -19.5,11.7c-5.4,4.2 -9.9,9.6 -13.5,15.6c-1.2,2.1 -2.1,4.5 -3.3,7.5c-0.9,3 -1.5,6 -1.8,9c-0.3,3 0,6 0.9,8.4c0.9,2.7 2.7,4.8 5.1,6.3c2.7,1.5 5.4,1.8 8.1,0.9c2.7,-0.9 5.7,-2.4 8.4,-4.8c3,-2.1 5.7,-4.8 8.4,-7.8c3,-3 5.7,-5.7 8.4,-8.4c1.8,-2.1 4.2,-4.8 6.6,-7.8c2.4,-3 5.4,-5.7 8.4,-8.7c3,-3 6.6,-5.7 10.2,-8.1c3.6,-2.4 7.8,-4.2 12,-5.4c4.2,-1.2 9,-1.5 13.8,-0.9c5.1,0.9 10.2,2.7 15.9,6c6.6,3.9 11.7,8.4 15.3,13.5c3.3,5.1 5.4,10.5 6.3,16.8c0.6,6 0,12.6 -1.8,19.2c-1.8,6.9 -4.5,13.8 -8.7,21c-3.9,6.6 -7.8,12 -11.7,16.5c-3.9,4.5 -7.8,8.4 -12,11.7c-3.9,3 -8.1,5.7 -12.6,8.1c-4.5,2.4 -9.3,4.8 -14.4,7.2Zm68.1,-117.9l-11.7,-24.3c8.1,-3.9 15.6,-8.1 22.8,-13.2c6.9,-4.8 12.6,-11.1 17.1,-18.3c2.1,-3.9 3.6,-7.8 4.5,-11.4c0.6,-3.6 0.9,-6.6 0.6,-9.6c-0.3,-3 -1.2,-5.7 -2.7,-7.8c-1.5,-2.4 -3.3,-3.9 -5.1,-5.1c-2.7,-1.5 -5.1,-1.8 -7.8,-1.5c-2.7,0.6 -5.4,1.8 -8.1,3.9c-2.7,1.8 -5.4,4.2 -8.1,7.2c-3,3.3 -6,6.3 -8.7,9.9c-2.1,2.1 -4.2,4.8 -6.9,7.8c-2.4,3 -5.4,6 -8.4,9c-3.3,2.7 -6.6,5.4 -10.5,8.1c-3.9,2.4 -7.8,4.2 -12.3,5.4c-4.2,1.2 -8.7,1.5 -13.5,0.9c-4.8,-0.3 -9.6,-2.1 -14.7,-5.1c-7.2,-4.2 -12.6,-9.3 -15.9,-15.3c-3,-5.7 -4.8,-11.7 -4.8,-18c0,-6.3 0.9,-12.6 3,-19.2c2.1,-6.3 4.8,-12 7.8,-17.4c3,-5.4 6.3,-9.9 9.3,-13.8c3,-3.6 6.3,-6.9 9.6,-9.6c3.6,-3 7.2,-5.4 11.1,-7.8c4.2,-2.1 8.7,-4.5 13.8,-6.6l11.1,24.3c-7.5,3.6 -14.1,7.5 -19.5,12c-5.4,4.2 -9.9,9.3 -13.5,15.6c-1.2,2.1 -2.4,4.5 -3.3,7.5c-0.9,3 -1.5,6 -1.8,9c-0.3,3 0,5.7 0.9,8.4c0.9,2.7 2.7,4.5 5.1,6c2.7,1.5 5.4,1.8 8.1,0.9c2.7,-0.6 5.7,-2.4 8.4,-4.5c3,-2.1 5.7,-4.8 8.4,-7.8c3,-3 5.7,-6 8.4,-8.7c1.8,-2.1 4.2,-4.5 6.6,-7.5c2.4,-3 5.4,-6 8.4,-8.7c3,-3 6.6,-5.7 10.2,-8.1c3.6,-2.7 7.8,-4.5 12,-5.4c4.2,-1.2 9,-1.5 13.8,-0.9c5.1,0.6 10.2,2.7 15.9,6c6.6,3.6 11.7,8.1 15.3,13.2c3.3,5.1 5.4,10.8 6.3,16.8c0.6,6.3 0,12.6 -1.8,19.5c-1.8,6.9 -4.8,13.8 -8.7,21c-3.9,6.6 -7.8,12 -11.7,16.5c-3.9,4.5 -7.8,8.1 -12,11.4c-3.9,3.3 -8.1,6 -12.6,8.4c-4.5,2.4 -9.3,4.8 -14.4,6.9Zm124.5,-171c-5.4,9 -12,16.5 -20.1,22.5c-8.1,6 -16.8,10.2 -26.1,12.9c-9.3,2.4 -18.9,3 -29.1,1.8c-9.9,-0.9 -19.5,-4.2 -28.5,-9.6c-9,-5.1 -16.5,-11.7 -22.5,-19.8c-6,-8.1 -10.2,-16.8 -12.9,-26.4c-2.4,-9.3 -3,-18.9 -2.1,-28.8c1.2,-10.2 4.5,-19.5 9.6,-28.5c5.4,-9.3 12,-16.8 20.1,-22.8c8.1,-5.7 16.8,-10.2 26.1,-12.6c9.3,-2.4 19.2,-3.3 29.1,-2.1c10.2,1.2 19.5,4.5 28.5,9.6c9.3,5.4 16.8,12 22.8,20.1c6,8.1 10.2,16.8 12.6,26.1c2.4,9.6 3.3,19.2 2.1,29.1c-1.2,9.9 -4.5,19.5 -9.6,28.5Zm-108.9,-63c-3.3,5.7 -5.4,12 -5.7,18.3c-0.6,6.3 0,12.6 1.8,18.6c1.8,6 4.5,11.7 8.4,16.8c4.2,5.1 9,9.6 14.7,12.9c5.7,3.3 11.7,5.4 18.3,6c6.3,0.9 12.6,0.6 18.9,-0.9c6,-1.5 11.7,-3.9 17.1,-7.5c5.1,-3.6 9.6,-8.4 12.9,-14.1c3.3,-5.7 5.1,-12 5.7,-18.3c0.6,-6.3 0,-12.6 -1.8,-18.6c-1.8,-6 -4.8,-11.7 -8.7,-16.8c-3.9,-5.4 -8.7,-9.6 -14.4,-12.9c-5.7,-3.3 -12,-5.4 -18.3,-6c-6.6,-0.9 -12.9,-0.6 -18.9,0.9c-6.3,1.5 -12,3.9 -17.1,7.5c-5.4,3.6 -9.6,8.4 -12.9,14.1Zm192.9,-159.6c3.3,5.7 6,11.7 7.8,18.3c1.8,6.3 2.7,12.9 2.7,19.5c0.3,6.6 -0.6,13.2 -2.4,19.8c-1.5,6.6 -4.2,13.2 -7.8,19.2c-5.1,9 -11.7,16.5 -19.8,22.5c-8.1,6 -16.8,10.2 -26.4,12.6c-9.3,2.4 -18.9,3.3 -28.8,2.1c-9.9,-1.2 -19.5,-4.2 -28.5,-9.6c-9,-5.1 -16.5,-11.7 -22.5,-19.8c-6,-8.1 -10.2,-16.8 -12.6,-26.1c-2.7,-9.6 -3.3,-19.2 -2.1,-29.1c1.2,-9.9 4.2,-19.5 9.6,-28.5c3.3,-6 7.8,-11.7 12.6,-16.5c4.8,-4.5 10.2,-8.7 15.9,-11.7c6,-3.3 12,-5.7 18.6,-7.5c6.3,-1.5 12.9,-2.4 19.5,-2.4l-4.2,28.2c-3.6,-0 -7.5,0.9 -11.4,1.8c-3.9,1.2 -7.5,2.7 -11.1,4.5c-3.6,2.1 -6.9,4.5 -9.9,7.2c-3,2.7 -5.4,5.7 -7.5,9.3c-3.3,6 -5.4,12 -6,18.3c-0.3,6.3 0.3,12.6 2.1,18.6c1.8,6 4.5,11.4 8.4,16.8c4.2,5.1 9,9.3 14.7,12.6c5.7,3.6 11.7,5.4 18.3,6.3c6.3,0.9 12.6,0.6 18.6,-0.9c6.3,-1.5 11.7,-3.9 17.1,-7.5c5.4,-3.6 9.6,-8.4 12.9,-14.1c2.1,-3.6 3.6,-7.5 4.5,-11.4c0.9,-3.9 1.2,-8.1 1.2,-12c-0.3,-4.2 -0.6,-8.1 -1.8,-12c-0.9,-3.9 -2.4,-7.5 -4.2,-11.1l22.5,-17.4Zm57.9,-28.2l-14.1,24l-126.6,-73.2l14.1,-24l126.6,73.2Zm10.5,-18.6l-89.1,-137.7l1.5,-2.4l164.1,8.4l-15.3,26.1l-25.5,-1.5l-34.8,59.7l14.4,21.3l-15.3,26.1Zm-13.2,-71.4l20.7,-36.3l-48.6,-3.9l27.9,40.2Zm31.5,-202.8l-21,36.3l105.3,60.9l-14.1,24l-105,-60.9l-21.3,36.6l-21.3,-12.6l56.1,-96.6l21.3,12.3Zm130.8,16.5l-13.8,24.3l-126.6,-73.2l14.1,-24.3l126.3,73.2Zm54.9,-88.8c-5.4,9 -12,16.5 -20.1,22.2c-8.1,6 -16.8,10.2 -26.1,12.9c-9.3,2.4 -18.9,3 -29.1,2.1c-9.9,-1.2 -19.5,-4.5 -28.5,-9.6c-9,-5.4 -16.5,-12 -22.5,-20.1c-6,-8.1 -10.2,-16.8 -12.9,-26.1c-2.4,-9.6 -3,-19.2 -2.1,-29.1c1.2,-9.9 4.5,-19.5 9.6,-28.5c5.4,-9 12,-16.8 20.1,-22.5c8.1,-6 16.8,-10.2 26.1,-12.9c9.3,-2.4 19.2,-3 29.1,-1.8c10.2,1.2 19.5,4.2 28.5,9.6c9.3,5.1 16.8,11.7 22.8,19.8c6,8.1 10.2,16.8 12.6,26.1c2.4,9.6 3.3,19.2 2.1,29.1c-1.2,9.9 -4.5,19.5 -9.6,28.8Zm-108.9,-63.3c-3.3,6 -5.4,12 -5.7,18.3c-0.6,6.3 0,12.6 1.8,18.6c1.8,6 4.5,11.7 8.4,16.8c4.2,5.4 9,9.6 14.7,12.9c5.7,3.3 11.7,5.4 18.3,6c6.3,0.9 12.6,0.6 18.9,-0.9c6,-1.2 11.7,-3.9 17.1,-7.5c5.1,-3.6 9.6,-8.4 12.9,-14.1c3.3,-5.7 5.1,-11.7 5.7,-18.3c0.6,-6.3 0,-12.6 -1.8,-18.6c-1.8,-6 -4.8,-11.7 -8.7,-16.8c-3.9,-5.1 -8.7,-9.6 -14.4,-12.9c-5.7,-3.3 -12,-5.1 -18.3,-6c-6.6,-0.9 -12.9,-0.6 -18.9,0.9c-6.3,1.5 -12,3.9 -17.1,7.5c-5.4,3.9 -9.6,8.4 -12.9,14.1Zm219,-132.9l-123.3,39.6l75.3,43.5l-14.1,24.3l-126.6,-73.2l1.5,-2.7l124.8,-39l-76.5,-44.1l13.8,-24.3l126.6,73.2l-1.5,2.7Z" style="fill-rule:nonzero;"/><path id="Hang_x0020_Gliding" d="M193.033,515.9l-122.7,75.3l-13.8,-24l48.6,-30l-36.3,-61.8l-48.6,29.7l-14.1,-24l122.7,-75l13.8,24l-52.8,32.4l36,62.1l53.1,-32.7l14.1,24Zm-114,89.7l159.6,-10.8l1.5,2.4l-84.9,139.2l-15.3,-26.1l13.5,-21.6l-34.5,-59.1l-24.6,2.1l-15.3,-26.1Zm67.2,23.1l21,36l26.4,-40.5l-47.4,4.5Zm79.8,229.2l24.6,-127.2l-72.6,44.7l-14.1,-24l122.4,-75l1.5,2.4l-25.8,128.1l73.8,-45.6l14.1,24.3l-122.4,75l-1.5,-2.7Zm155.7,111c-2.4,1.5 -4.5,2.7 -6.6,3.9c-1.8,0.9 -3.6,2.1 -5.4,3c-1.8,1.2 -3,1.8 -3.9,2.4c-8.1,3.9 -16.5,6 -25.2,6.6c-8.7,0.3 -17.1,-0.9 -25.2,-3.6c-8.1,-2.7 -15.6,-6.9 -22.5,-12.6c-6.9,-5.7 -12.9,-12.6 -17.7,-21c-5.1,-8.7 -8.4,-18.3 -9.6,-28.2c-1.2,-9.9 -0.9,-19.5 1.5,-29.1c2.4,-9.3 6.3,-18.3 12,-26.4c5.7,-8.1 12.9,-15 21.6,-20.4c8.7,-5.1 18,-8.4 27.6,-9.9c9.9,-1.2 19.2,-0.6 28.5,1.8c9.3,2.4 17.7,6.6 25.8,12.3c7.8,5.7 14.4,13.2 19.8,22.2c6.6,11.4 9.9,23.1 10.2,35.7c0.6,12.6 -1.8,24.6 -7.2,35.7l-24,-13.2c3,-6.9 4.5,-14.4 4.8,-22.5c0,-8.1 -1.8,-15.3 -6,-22.2c-3.3,-5.7 -7.5,-10.5 -12.6,-14.1c-5.1,-3.6 -10.8,-6 -16.8,-7.5c-6,-1.2 -12,-1.5 -18.3,-0.6c-6.6,0.9 -12.3,3 -18,6.3c-5.4,3.6 -10.2,7.8 -13.8,13.2c-3.9,5.1 -6.6,10.8 -8.1,16.8c-1.5,6.3 -2.1,12.3 -1.5,18.6c0.6,6.6 2.7,12.6 6,18.3c2.4,4.2 5.4,8.1 9.3,11.4c3.6,3.3 7.5,5.7 11.7,7.5c4.2,2.1 8.7,3.3 13.5,3.6c4.5,0.6 9.3,0 13.8,-1.2l-27,-46.2l21,-12.9l42.3,72.3Zm117.3,201c-2.4,1.2 -4.8,2.4 -6.9,3.6c-1.8,1.2 -3.6,2.1 -5.1,3.3c-1.8,0.9 -3.3,1.8 -4.2,2.1c-8.1,4.2 -16.5,6.3 -25.2,6.6c-8.7,0.6 -17.1,-0.6 -24.9,-3.3c-8.1,-2.7 -15.6,-7.2 -22.8,-12.9c-6.9,-5.7 -12.6,-12.6 -17.4,-20.7c-5.4,-9 -8.4,-18.3 -9.9,-28.2c-1.2,-10.2 -0.6,-19.8 1.8,-29.1c2.1,-9.6 6,-18.3 11.7,-26.7c5.7,-8.1 12.9,-14.7 21.6,-20.1c8.7,-5.4 18,-8.7 27.9,-9.9c9.6,-1.5 19.2,-0.9 28.5,1.5c9,2.4 17.7,6.6 25.5,12.3c8.1,6 14.7,13.5 19.8,22.2c6.6,11.4 10.2,23.4 10.5,36c0.3,12.6 -2.1,24.3 -7.2,35.4l-24.3,-12.9c3.3,-6.9 4.8,-14.4 4.8,-22.5c0.3,-8.1 -1.8,-15.6 -5.7,-22.5c-3.3,-5.7 -7.5,-10.2 -12.9,-13.8c-5.1,-3.6 -10.5,-6.3 -16.5,-7.5c-6,-1.5 -12.3,-1.8 -18.6,-0.6c-6.3,0.9 -12.3,3 -17.7,6.3c-5.7,3.3 -10.2,7.8 -14.1,12.9c-3.6,5.4 -6.3,11.1 -7.8,17.1c-1.8,6 -2.4,12.3 -1.5,18.6c0.6,6.3 2.4,12.3 5.7,18.3c2.7,4.2 5.7,8.1 9.3,11.1c3.6,3.3 7.5,6 12,7.8c4.2,1.8 8.7,3 13.2,3.6c4.8,0.3 9.3,0 14.1,-1.2l-27.3,-46.5l21.3,-12.9l42.3,72.6Zm18.3,138.9l-21,12.6l-52.5,-90.6l122.4,-75l13.8,24l-101.7,62.4l39,66.6Zm3.9,55.2l-14.1,-24l122.4,-75l14.1,24l-122.4,75Zm47.1,80.4l-29.1,-49.5l122.7,-75l28.8,49.5c10.5,17.7 13.8,35.7 10.5,53.7c-2.1,9.3 -6,18 -11.7,26.1c-6,7.8 -13.8,14.7 -23.4,20.7c-9.6,5.7 -19.2,9.6 -28.8,11.1c-9.6,1.8 -18.9,1.2 -28.2,-1.8c-8.1,-2.4 -15.9,-6.6 -22.8,-12.6c-6.9,-6 -12.9,-13.2 -18,-22.2Zm5.7,-38.1l15,25.5c2.7,4.5 5.7,8.7 9.3,12.6c3.9,3.9 8.1,6.9 13.2,8.7c5.1,2.1 11.1,2.7 17.7,1.8c6.6,-0.9 14.4,-3.9 22.8,-9c8.4,-5.4 14.7,-10.8 18.6,-16.5c3.9,-5.4 6,-11.1 6.9,-16.8c0.6,-5.4 0,-10.8 -1.5,-15.9c-1.8,-5.4 -3.9,-10.2 -6.3,-14.4l-15,-25.5l-80.7,49.5Zm59.1,149.1l-14.1,-24l122.4,-75l13.8,24l-122.1,75Zm80.1,137.7l24.6,-127.2l-72.6,44.7l-14.1,-24.3l122.4,-75l1.5,2.7l-25.8,127.8l73.8,-45.3l14.1,24l-122.4,75l-1.5,-2.4Zm155.7,111c-2.4,1.2 -4.5,2.7 -6.6,3.9c-1.8,0.9 -3.6,1.8 -5.4,3c-1.8,1.2 -3,1.8 -3.9,2.1c-8.1,4.2 -16.5,6.3 -25.2,6.9c-8.7,0.3 -17.1,-0.9 -25.2,-3.6c-8.1,-2.7 -15.6,-6.9 -22.5,-12.6c-6.9,-5.7 -12.9,-12.9 -17.7,-21c-5.1,-8.7 -8.4,-18.3 -9.6,-28.2c-1.2,-9.9 -0.9,-19.8 1.5,-29.1c2.4,-9.6 6.3,-18.3 12,-26.4c5.7,-8.1 12.9,-15 21.6,-20.4c8.7,-5.4 18,-8.7 27.6,-9.9c9.9,-1.2 19.2,-0.6 28.5,1.8c9.3,2.4 17.7,6.3 25.8,12.3c7.8,5.7 14.4,13.2 19.8,22.2c6.6,11.1 9.9,23.1 10.2,35.7c0.6,12.6 -1.8,24.6 -7.2,35.7l-24,-13.2c3,-6.9 4.5,-14.4 4.8,-22.5c0,-8.1 -1.8,-15.6 -6,-22.2c-3.3,-6 -7.5,-10.5 -12.6,-14.1c-5.1,-3.6 -10.8,-6 -16.8,-7.5c-6,-1.2 -12,-1.5 -18.3,-0.6c-6.6,0.9 -12.3,3 -17.7,6.3c-5.7,3.6 -10.5,7.8 -14.1,13.2c-3.9,5.1 -6.6,10.8 -8.1,16.8c-1.5,6 -2.1,12.3 -1.5,18.6c0.6,6.6 2.7,12.6 6,18.3c2.4,4.2 5.4,8.1 9.3,11.4c3.6,3 7.5,5.7 11.7,7.5c4.2,1.8 8.7,3 13.5,3.6c4.5,0.6 9.3,0 13.8,-1.2l-27,-46.2l21,-12.9l42.3,72.3Z" style="fill-rule:nonzero;"/></g><g id="Layer_x0020_8"><path id="Triangle_2" d="M68.833,187.7l1030.2,1.2l1030.2,1.5l-516.3,891.6l-516.3,891.3l-1027.8,-1785.6Z" style="fill:none;stroke:#373435;stroke-width:16.67px;"/></g><g id="Layer_x0020_9"><g id="_2391924065616"><path d="M1404.43,1324.4l-2.4,-13.2c-4.2,-2.7 -0.3,-0.3 -4.5,-1.5c-3.3,-1.2 -1.5,0 -5.1,-1.8c-3.9,-1.5 -4.2,-3.3 -9.6,-3.3c-8.7,0 -9.9,6 -17.4,8.4l-5.1,-6c-17.4,-0 -12,-4.5 -17.1,-17.7c-3,-8.1 -1.8,-8.1 -3.3,-13.8c-1.2,-4.8 -5.1,-5.7 -9.3,-8.4c-16.2,-9.6 -10.2,-4.2 -28.5,-5.7c-9,-0.6 -20.1,-5.4 -30.3,-5.4c-7.8,-12.9 -3.3,-15.6 -21.9,-18.3c-6,-0.9 -3.3,1.5 -8.1,-3.9c-7.2,-8.1 -4.5,-17.4 -11.7,-28.5c-5.1,-8.4 -8.1,-14.4 -19.5,-2.4c-4.8,5.1 -2.7,8.7 -10.2,11.1c-6.3,2.1 -10.8,-1.5 -14.7,-3.9c-7.5,-4.8 -8.7,-3.3 -15.6,-5.7c-3.9,-4.5 -7.8,-15.3 -11.7,-20.4c-2.7,-4.2 -13.5,-12 -17.7,-14.7c-2.4,6 -1.8,6 -6.3,9.9c-8.1,6.9 -15.3,0.3 -24.3,-0.3c-5.4,-0.3 -7.2,1.8 -12.9,2.4c-0.3,0 -6.9,-20.1 -17.1,-16.2c-13.5,5.4 -13.8,5.1 -21.3,15c-13.5,-2.7 -7.5,-3.3 -15.3,-11.7c-4.8,-4.8 -11.4,-6.9 -19.2,-6.3c-10.5,-18 -16.2,-26.7 -33.9,-12.6c-4.5,3.6 2.4,1.2 -5.1,2.7c-5.7,0.9 -14.1,-2.1 -17.1,-5.4c-10.2,-12 -10.5,-7.8 -22.5,-3.9c-5.4,-16.5 -10.8,-12 -22.2,-12.3c-2.7,0 -10.2,-3 -12.3,-5.4c-3.9,-5.1 0,-8.1 -0.6,-15.9c-3.9,-3 -9.3,-7.2 -15.9,-7.5c-6.6,8.1 -15.3,14.7 -7.5,24.9c9.9,12.9 6.3,3.9 12.3,9c7.8,6.6 0.9,6.3 15,6.6c14.7,0.3 4.2,6.3 21.3,0c7.2,8.1 4.8,15.6 17.1,18.6c3.9,-3.3 3,-4.8 6.6,-9c7.2,4.2 7.2,7.5 19.2,9.6c2.7,10.2 5.7,10.5 0.6,18.3c-6.6,9.9 7.2,17.4 9.6,18c2.7,0.3 2.7,-0.9 3.6,-0.9c3.6,-0.3 4.8,1.5 8.7,0c8.7,-2.7 2.1,-11.4 -1.5,-14.4c1.2,-0.6 0.3,0.9 4.5,1.5c0.6,-13.8 -6.9,-14.7 -5.4,-22.2c2.1,6 6.9,4.5 13.5,3.6c1.8,3.6 6.9,8.7 10.8,10.8c16.2,0.9 10.2,-6.3 23.4,8.1c3.9,4.2 5.4,5.4 10.2,7.5c4.5,1.5 11.1,2.7 11.7,6.9c2.1,9.3 -7.5,27 3.6,30.9c8.4,3.3 1.5,-3.9 9.3,1.8c4.5,7.2 -0.3,12 10.5,15c2.4,-5.1 1.8,-4.8 5.7,-8.1c6.3,-4.8 -3.9,4.2 1.2,-0.9c7.8,-8.1 0.9,-17.7 3.6,-21c4.2,-2.7 2.7,1.5 9,-2.7c9,-6.3 20.1,-12.3 32.4,-13.2c3.3,6 9.9,14.4 15.6,18.6c13.8,10.5 15.3,0.6 26.4,0.3l14.1,23.4c3.9,13.8 3.3,18.6 -3.6,28.5c-11.7,2.4 -9.6,-2.7 -17.1,-2.1c-4.2,0.3 -9.6,4.8 -13.2,6.3c-2.1,-12.3 3.3,-28.8 -15,-43.8c-8.4,2.7 -19.5,8.4 -26.7,14.1c-7.8,6.6 -15.6,3.3 -16.8,9.6c0.6,4.5 3.6,7.8 6.9,9.6l22.2,-5.7c2.4,2.7 2.4,3.9 3.9,5.7c7.8,-0.9 6,-5.1 14.4,4.2c1.8,10.2 0,19.8 8.4,24.3c6,3 6,0 11.4,-0.6c4.2,-0.6 10.5,-0.6 15,-0.9c4.2,8.1 7.2,14.7 18.6,16.2c3.9,0.3 13.2,-0.3 16.2,-0.9c7.2,-1.5 5.1,-3.6 7.8,-10.8c3.6,1.5 8.1,8.4 12,3.6c5.4,-6.9 -9.9,-18.9 -16.2,-20.4c-3,2.1 -4.8,3.6 -6.3,8.7l-9.9,-1.2c-1.2,-10.2 0.9,-20.7 4.5,-29.7l33.9,-2.4l10.8,26.4c2.1,9.6 -0.9,24.9 7.8,30.6l-5.7,10.8c-2.4,4.2 -4.8,2.7 -7.5,8.4c-0.6,4.8 8.1,14.4 18.3,3.9c3.3,1.5 7.5,3.9 12,4.2l3,-6.3c27.3,-1.8 11.4,9 39.3,-2.7c-1.5,-9.3 -4.8,-12.6 -14.7,-10.8c2.1,-4.2 0.9,-9.9 1.2,-11.7c0.9,-10.2 -12.3,-12 -19.8,-11.1c-1.8,-6 -13.8,-13.8 3.6,-17.4c8.7,-1.8 4.8,0.6 11.4,3.9c5.1,-0.9 6.9,-3.3 10.8,-5.4c13.5,12.6 5.7,15.3 8.7,28.2c3,12.6 12.3,18 14.1,25.5c2.4,8.1 1.8,9.3 9,12c9.6,3.6 9.3,-3.6 22.5,-14.7c4.5,-3.9 6.3,-7.2 15,-7.5c-1.5,12.6 2.1,12.6 1.5,18.9c-2.4,28.8 8.7,21.3 -24.3,40.2c0.3,2.1 2.1,6 3.9,8.4l16.8,11.4c5.1,2.7 6,0.3 12,0c9.3,19.2 17.7,6.3 26.4,-6.6c3.3,-5.1 7.2,-9 10.5,-15c5.1,-9.6 12.3,-14.7 15,-24.3c0.6,-3.6 1.5,-5.7 4.8,-8.4c14.4,-11.7 -24.3,-17.4 -30.3,-17.1c-9.9,0.9 -14.7,-0.6 -21.9,-4.5Z"/><path d="M1450.03,1185.8c-14.1,-20.7 -4.2,-18.6 -15.6,-26.4c-7.5,-5.4 -22.2,-3.6 -30.3,-0.3c-7.2,3 -14.4,3 -20.7,-1.2c-8.1,-5.7 -6,-4.5 -13.8,-0.6c-5.1,2.4 -6,-1.5 -15.3,-0.3c-6.6,0.9 -13.2,2.4 -19.5,2.1c-15.9,-26.4 -23.7,-12.3 -32.7,-22.8c-11.1,-12.3 -9.3,-3 -17.7,-9.6c-8.4,-7.2 -6.6,-10.2 -19.8,-9.6l-6.3,11.7c-5.1,-3.9 -6.9,-4.8 -14.7,-6c0.6,-8.1 0.9,-4.2 -1.8,-10.8l-26.7,-5.4c-15.3,1.2 -16.2,-3.9 -22.2,-12.3c-19.2,-0.6 -4.2,-1.8 -31.2,-0.9c-12,0.3 -17.1,-9.3 -24.9,-4.8c-9.9,6 -8.4,7.5 -22.5,10.8c-30,6.6 -27.6,-11.1 -34.2,-16.5c-5.1,-4.5 -36.6,-3.9 -36.6,-3.9c-6.3,1.8 -11.1,5.7 -13.5,9.6c-9.6,-3.3 -7.5,-6.3 -18.6,-1.5c-5.1,2.1 -4.2,0.9 -8.4,4.5c-3.3,3.3 -2.7,3.9 -7.5,6c-5.7,-2.7 -4.2,-9.9 -13.8,-7.8c-5.1,1.2 -10.2,6.9 -11.1,11.1c1.5,2.4 1.8,3.9 5.1,6l8.4,-6.3c6,3 8.1,13.2 18.9,9.6c7.5,-2.4 9.3,-8.4 19.5,-10.8c1.8,2.7 -1.8,1.5 7.2,12.9c6,-1.2 2.4,-2.4 8.1,-2.1c2.1,0 6.6,2.1 9.9,2.7c11.7,2.7 5.4,-3.3 15.9,-6c1.5,2.4 6.6,13.8 15,16.5c9.6,3 1.8,-3.3 6.9,1.8c10.2,9.3 7.2,9.6 27.9,-2.4c10.5,-6 7.8,0 15.3,-0.3c4.8,0 28.5,-12 29.7,-12c0.6,0 20.7,1.2 21.3,1.2c-2.4,18 3.9,16.8 10.2,22.8c3.3,3 3.9,4.8 6.6,6.6c9.6,6 28.2,0.3 37.5,-3.6l-2.1,-10.2c12.6,1.5 1.8,2.7 15.6,8.1c14.4,6 6.9,5.1 14.7,9.9c3.3,-1.5 3.9,-1.5 7.5,-7.2c3.6,-5.1 1.5,-5.4 6.9,-7.8c12.6,6 9.9,14.4 10.2,26.1c-4.5,2.1 -6.6,3.6 -11.7,5.4c1.2,7.5 4.5,12.3 13.5,8.7c5.4,-2.1 6.9,-8.4 10.8,-12.6c25.5,8.4 18,-0.9 29.4,7.8c16.8,12 25.8,-0.6 34.8,6c7.8,6 1.2,6.3 12.3,5.1c-3.6,19.2 10.2,8.4 25.5,5.4c24.9,-4.8 7.5,-16.2 30.3,-15.6c0,9 5.4,25.2 10.2,30c9.9,9.6 20.4,-1.2 30,1.5c3.3,0.9 5.4,5.4 11.7,8.1c12.3,5.4 28.8,3 34.5,5.4c4.8,2.1 6.3,7.2 14.4,5.1c1.2,-12 -4.8,-10.2 -12,-15c-14.4,-9.6 -25.8,-1.5 -37.5,-6.3c-6.9,-3 -4.8,-3.3 -8.4,-7.8c-5.7,-6.9 -15,-1.8 -24.6,-1.8Z"/><path d="M881.233,959c0.3,10.8 8.7,8.7 17.4,9l79.5,1.2c16.8,0.6 35.7,2.4 51,1.8c6.9,-0.3 20.4,-0.3 26.4,0.3c8.1,0.6 16.8,1.5 25.2,0c20.4,-3.3 24.9,-2.1 46.8,-3c8.7,-0.3 17.1,0.9 26.1,-1.2c6.6,-1.5 5.1,-1.8 10.5,-0.9c24.3,3.9 9.3,2.4 35.7,3c17.7,0.3 91.5,4.8 103.8,3.9c9.9,-0.9 18,0.6 26.7,0c9,-0.6 12.9,-3 24.3,-2.4c17.1,0.6 56.4,-4.2 75.3,-5.4c32.7,-2.1 63,6 97.5,9.9c17.4,2.1 34.8,0.9 51.9,1.5c16.8,0.9 36.3,-1.2 51.9,0.3c7.8,0.6 16.2,2.4 23.7,3c12.6,1.2 2.7,-5.1 18,-1.8l0.9,0c1.8,-4.5 3.3,-10.2 -1.5,-14.1l-2.4,-1.8c-7.8,-3.9 -6.6,0.9 -26.1,-1.2c-39.9,-4.5 -102.6,4.8 -151.5,-5.7c-32.4,-6.9 -65.7,-6.9 -98.4,-2.4c-16.8,2.1 -35.4,1.5 -51.3,2.1c-9.3,0.3 -14.1,4.2 -24.3,3.6c-11.4,-0.9 -12.6,-1.2 -24,-0.3l-130.5,-3.6c-38.1,-3.6 -86.7,4.8 -129.3,1.5c-31.2,-2.4 -71.7,3 -106.2,0.6c-10.8,-0.6 -40.5,-5.4 -47.1,2.1Z"/><path d="M1506.43,1217.9c-3.3,2.7 -3.6,3.3 -6.3,7.5c-2.1,3.6 -3.6,6.3 -6.6,7.8c-4.5,-9.6 2.4,-8.1 -8.4,-14.1c-14.4,-8.1 -8.4,-11.7 -19.5,-9.9l-5.7,0.6c-3.3,0.3 -1.2,-0.9 -3.9,0.9c-1.8,1.2 -8.7,9.3 -18.3,15.9c-16.8,11.4 -10.2,6 -17.4,3.6c-6,-1.8 -0.9,2.1 -9.6,-1.8c-5.1,-2.7 -5.1,-3.3 -11.4,-1.5c-5.4,1.2 -12.9,3.3 -17.1,-5.7c-3.3,-6.3 -4.2,-15.3 -14.7,-11.1c-5.4,2.1 -8.7,8.4 -14.7,12.6c-11.4,8.4 -8.4,1.2 -21,4.8c-0.6,-7.8 -4.5,-18.3 -7.8,-24c-3.6,-7.2 -7.2,-15.6 -15.3,-18c-23.1,-5.4 -36.6,21.9 -42,22.8c-7.2,-0.6 -7.5,-3.9 -12.9,-3.9c-27.3,0 -11.4,18 -7.2,18.3c0,0 8.7,-6.6 21,-0.9c8.1,3.9 7.8,9.9 12.9,14.1c8.7,-1.8 1.2,-3.9 18.9,-1.5c3,0.3 6.3,0.3 9,2.1c3.3,2.1 0.3,0 3.3,3c11.7,11.1 6.6,12.3 13.5,16.2c6.9,3.9 0,-0.3 6.6,0.3c6.6,0.6 -0.9,2.1 9,3.3c3,-3 4.8,-5.4 8.1,-7.2l11.1,9c7.2,5.7 6.6,21.3 30.3,4.5c6.3,-4.5 16.2,-4.5 24,-6.3c2.4,2.4 3.3,6.3 6.6,7.8c4.5,2.4 3,0.6 10.5,1.2c7.8,0.6 10.2,-6.3 18.3,-9c6.3,4.2 1.5,4.5 10.2,8.7c6.9,3.3 4.2,3.3 9.6,8.4l10.5,-5.1l9.3,8.7c9.3,-10.5 7.8,-3.9 13.2,-11.4c3.9,-5.4 5.4,-10.5 8.4,-17.7l6.9,-19.5c2.1,-11.1 -4.5,-12.3 -11.4,-13.5Z"/><path d="M1159.63,1033.1c-25.5,0.9 -17.7,-5.4 -29.7,-9.9c-17.4,-6.9 -36.9,-12.3 -54.3,-0.6c-7.2,4.8 -9.9,7.8 -20.7,5.7c-5.4,-1.2 -11.7,0.9 -20.1,-4.2c-6.3,-3.6 -9.3,-8.7 -17.7,-9.9c-9.9,-2.1 -13.2,-2.4 -20.1,-7.8c-4.5,1.5 -3.9,2.1 -9.3,3.9c-3.9,1.2 -7.5,1.5 -10.5,3c-1.8,0.9 -6.3,4.5 -7.8,6.3c-5.1,4.5 -2.1,1.8 -4.5,8.4c-4.5,-2.4 -5.1,-0.6 -11.1,-1.5c-5.7,-0.9 -4.2,-2.4 -8.4,-3.3c-0.6,0 -21.9,1.2 -23.4,1.5c-8.4,2.1 -4.5,9 -18.3,4.5c-5.4,-2.1 -17.4,-2.7 -22.8,-0.9c1.2,3.9 0.3,2.1 3.9,3.9l18.6,4.2c15.9,5.4 8.7,5.4 23.7,-0.3c3.6,-1.5 7.2,-1.2 12.6,-2.7c11.7,-3.3 13.2,7.2 23.4,0.9c6.3,-3.6 0.9,-0.9 9.3,-1.8c6.9,-11.1 8.7,-8.1 17.7,-10.8l14.4,-1.8c2.1,0.3 18.3,5.1 19.2,5.7c6.6,4.2 8.1,11.7 15.9,12.6c4.8,0.3 8.4,-1.5 11.4,-1.8c6,-0 7.8,7.8 22.2,3.9l9.9,-3.9c14.4,-9.9 28.2,-5.1 46.5,-5.7c11.7,16.8 17.1,13.2 26.4,15c7.2,1.5 10.2,4.2 15.3,-1.2c2.1,-2.4 0.9,-2.1 4.2,-5.4c3,-3 2.7,-1.8 5.4,-6c3.6,3.6 3,1.2 9.3,7.5c4.8,4.8 10.2,3.9 17.7,3.9c16.5,-0 11.1,11.4 28.2,12.3c8.1,-0 9,-2.4 17.1,-1.2c5.4,0.6 9.3,0.9 15,2.1c13.2,2.4 1.5,4.8 35.1,5.1l36,0.9c18.9,-3 12.6,-4.5 27.6,6.9c9.9,7.5 16.8,9.6 29.4,5.1c9,-3 5.7,-2.1 12.6,-6.6c6,-3.9 9.6,-0.6 16.5,-0.6c0.3,-0 6.6,-15.3 22.5,-6.9c12.6,6.6 5.1,6.9 22.8,10.5c15.3,2.7 28.8,36.6 39,15.9c10.8,2.7 37.2,3.6 39,4.2c7.2,2.1 7.8,7.8 24.3,7.5c4.2,-0 17.1,6.3 21,3.9c2.4,-1.5 6.3,-8.1 -6.9,-10.8c-18,-3.3 -22.2,3.3 -34.5,-9c-5.1,-5.1 -8.4,-2.7 -16.8,-3c-6.6,-0 -15.6,-1.8 -21.3,-0.9c-6.9,0.9 -9.3,6.6 -15.9,3c-4.8,-2.7 -12,-15.3 -23.7,-19.8c-6.6,-2.4 -10.2,0.3 -17.4,-4.5c-11.4,-7.2 -19.5,-9 -34.5,-2.7c-4.8,1.8 -11.1,3 -15.3,4.8c-6,2.4 -8.1,4.2 -15.6,6.3c-7.2,2.4 -11.4,2.4 -18,-1.2c-12.6,-6.9 -12.3,-8.4 -18.3,-13.5c0,-0.3 1.2,-1.8 -8.4,-2.7c-6.6,-0.3 -14.7,-1.2 -21.3,-0.6c-7.2,0.3 -15.9,-0.9 -21.6,-0c-5.4,0.9 -3.9,1.8 -9,1.5c-8.1,-0 -25.8,-3 -33.6,-5.7c-20.1,-7.5 -28.5,2.1 -44.4,-7.8c-4.8,-3.6 -8.4,-4.8 -14.1,-7.8c-8.4,-4.5 -7.8,-3 -17.1,-4.5c-6.9,-1.2 -7.5,-5.7 -15.3,-2.1c-4.8,2.1 -8.4,7.2 -11.4,10.5Z"/><path d="M520.633,950.3c-2.1,18.6 34.2,14.1 62.1,15.6l9.9,-0.9c0.6,-0.3 2.4,-1.5 2.7,-1.5c9.3,-4.2 18.6,-3.9 28.8,-3c22.8,1.8 74.7,-0.3 95.7,1.8l16.2,0.6l1.5,0l7.5,-0.3c12.9,0 1.2,-12.3 -5.4,-14.4l-30,-0c-21,-0.9 -43.2,-0.6 -64.5,-0c-21.3,0.6 -42.3,-0 -63.9,1.2c-10.2,0.6 -18.9,1.8 -30,1.8c-8.7,-0 -23.7,-1.2 -30.6,-0.9Z"/><path d="M687.133,1104.8c-3.9,3.9 -7.5,10.5 -9.3,16.5c-6,-0.6 -6,-2.1 -12.3,-3c-2.4,-9.9 -3.3,-4.8 -9.6,-12c-3.9,-4.8 -8.4,-6.9 -15.6,-6.9c-1.8,4.2 -2.1,7.5 -4.2,12.3l-11.4,-1.2c-0.6,-3.6 -2.1,-8.7 -4.8,-12.3c-2.4,-3.3 -6.9,-5.7 -12.9,-4.5c-0.9,5.7 8.7,21.9 12.3,28.2c4.2,8.4 10.2,19.5 22.5,19.2l4.8,-14.1c3.3,4.8 2.1,11.4 8.7,13.5c10.8,3.9 6,-4.2 15,-2.7c10.5,1.5 18,-6.6 24,-16.8c6,2.1 10.8,5.4 23.4,0c7.8,-3 0.6,-3.3 9.6,-5.1c7.2,-1.2 6,2.1 11.1,-3.9c-3,-4.2 -10.2,-5.4 -18,-7.5c-10.2,-2.4 -4.5,9 -18.6,4.8c-7.5,-2.4 -3,-4.8 -14.7,-4.5Z"/><path d="M565.033,1036.7l1.2,4.8c9.3,4.8 10.2,0.3 16.8,-5.7l1.5,-1.2c3,-2.1 2.7,-1.2 7.8,-1.5c11.7,-0.9 0.9,-4.5 20.4,-6c12,-1.2 9.3,11.7 33,1.8c6.3,-2.4 12,-8.7 18.9,-8.1c8.1,0.9 11.1,9.6 16.8,12.3c9.3,4.5 15.9,-1.8 21,-5.4c8.7,-6.6 18.6,0.9 23.7,-5.4c0.9,-1.5 1.2,-2.7 1.2,-4.2c-0.6,-5.1 -3.6,-5.1 -17.4,-5.1c-14.4,0 -8.1,5.7 -20.4,8.4c-11.7,2.7 -12,-3 -19.5,-6c-22.2,-9.3 -24.3,5.7 -43.5,5.4c-9.6,-0.3 -16.8,-7.5 -33.6,0.3c-7.5,3.3 -19.8,2.7 -27.9,15.6Z"/></g><g id="_2391924064912"><path d="M801.733,795.2l0,2.7c-0.3,1.5 0,3.3 0,5.1c0,0.9 -0.3,1.2 0,2.1c0.3,1.8 0,0.6 -0.3,2.1l0,2.4l0.3,-0c0,-0 0.3,-0.6 0.3,0.3l0,0.3l-0.6,1.8c0,1.2 0,-0.9 0.3,0.3c0.3,0.6 0,0.6 0,0.9c-0.3,0 -0.3,0 -0.3,0.3l0.3,9c0,1.8 -1.2,6.9 -1.2,11.7c0,1.8 0.6,4.2 0.6,6.3c-0.3,1.2 -1.2,3.6 -2.7,4.2c0,-0 -5.4,0.9 -5.7,0.9c-2.1,0.3 -3.6,0 -5.7,-0.3c-0.6,0.6 -0.9,1.8 -1.5,2.4l-4.8,8.1c-0.3,0.9 -0.9,1.2 -1.5,2.4c0,0.3 -0.3,0.9 -0.6,1.5c-0.3,0.6 -0.6,0.3 -0.9,1.2c-0.3,0.9 0,0.6 -0.6,1.2c-0.6,0.9 -0.6,0.6 -0.9,1.5c-0.3,0.9 -0.9,1.8 -1.5,3c-0.3,0.6 -0.3,1.2 -0.9,1.8c-0.3,0.6 0,-0.3 -0.3,0.6c-1.2,1.8 -1.8,3.6 -3.3,5.4l-3,5.1c-1.5,1.8 -4.2,9.6 -4.8,12.3c-0.9,4.2 -1.8,5.7 -2.7,9.3l-1.5,4.5c-1.2,3 -4.5,12 -4.2,14.4c0.3,3.3 0.3,3.6 0.3,7.2l-0.6,4.8c-0.3,1.8 0,3.9 -0.3,5.4c0,1.2 0,2.7 1.2,3c-0.6,0.6 0,1.8 -1.5,3c-3.9,3.3 -3.9,1.8 -4.5,6l-0.3,6.3c0,3.3 -0.9,8.4 -0.9,11.4c0,3.6 -0.9,10.8 -0.9,11.7c0,2.1 -0.9,5.7 -0.9,8.1c0,1.8 -0.6,4.5 -0.6,6.3c0,1.2 0.9,1.8 1.8,2.4c3,3.3 2.7,5.7 4.5,8.4c-1.2,2.1 -0.3,0.6 -0.3,2.7c0,0.9 -0.6,0.9 -0.6,2.4c0,3.6 0,7.2 0.3,10.8l0,7.5c-0.3,2.4 0,5.1 0,7.5c0,3.6 0.3,5.7 -0.3,9.6c-0.3,3.6 -0.3,4.5 -0.6,8.1c0,0.9 0,1.5 -0.3,2.7l-0.3,13.8c-0.3,1.8 -0.6,3.3 -0.6,6.6c0,3.9 0,3 -0.6,6.6c-0.3,2.4 -0.6,5.1 -0.6,7.2c0,1.5 0.3,2.7 0.3,4.2l0,4.2c0.3,1.2 0.3,2.7 0.3,3.9c0.6,5.7 0,4.5 -0.3,6.6c0,1.2 0.3,5.4 0.3,7.2c0,3 -0.3,5.4 -0.3,8.7c0,2.4 0,5.1 -0.3,7.5c0,2.7 0,5.4 -0.3,7.8c-0.6,6.3 0.3,7.5 0.3,10.2c-0.3,1.5 0,2.4 0,3.6c-0.6,0.6 -1.2,0.6 -1.8,0.9c-0.9,0.6 -1.2,0.9 -2.1,1.2c-1.5,0.6 -3,0.9 -4.5,1.5l-3.9,2.1c-3,1.8 -9.3,4.5 -12.6,5.7c-1.2,0.3 -1.2,0.3 -2.1,0.6c-7.5,3 -2.7,1.2 -6.6,1.2c-0.3,0.3 -1.5,3.3 -3,5.1c-0.3,0.6 -0.9,1.5 -1.5,2.7c-0.6,0.9 -1.2,1.2 -1.8,2.1c-1.2,1.8 -2.7,3 -3.9,4.8c-0.6,1.2 -0.9,1.5 -1.8,2.4c-1.2,2.1 -0.6,0.9 -2.4,1.8c-0.3,0.6 -1.8,11.4 -2.1,13.2c-0.3,1.5 -0.6,3.3 -0.6,4.8l-1.8,8.7c-0.3,0.6 -0.3,1.2 -0.3,2.1c-0.9,3.6 0.6,2.4 -2.1,6c0.6,1.2 1.5,1.5 2.4,2.4c0.9,0.3 2.1,1.2 2.7,2.1c0.9,0.9 2.7,1.8 4.2,3c0.3,0.3 0.9,0.6 1.2,0.9c1.2,0.6 1.8,1.2 3,1.8c1.8,1.2 2.1,1.8 4.5,2.7c1.2,0.3 2.4,0.6 3.6,1.2c0.9,0.6 0.6,0.3 1.8,0c0.3,0.9 0,0.9 1.2,1.2l6.9,-0.6c0.9,-0.3 1.5,-0.6 2.1,-0.9c0.9,0 1.8,-0.3 2.7,-0.6l7.5,-1.2c1.5,-0.3 1.2,-0.6 2.4,-1.2c0.9,1.5 3.9,3 5.1,4.2l3.3,2.1c0.9,0 0.3,-0.6 3.6,-0.9l6.9,-0.3c1.5,-0.6 3.6,-0.9 5.4,-1.2c2.1,-0.9 4.5,-1.8 6.9,-1.8c0,-1.2 -0.6,-8.4 0,-9.3c0.3,-0.3 0.6,-0.6 0.9,-0.6c1.8,0 0.3,0.3 0.9,0.3c0.6,-0.3 0,-0.6 3.6,-1.5c2.7,-0.6 12.3,-3.6 14.7,-4.8c6.6,-3.3 14.7,-4.8 21.9,-7.8l10.5,-4.5c1.2,-0.6 2.1,-0.9 3.3,-1.2c2.4,-0.9 4.5,-2.1 6.9,-3c1.2,-0.3 2.7,-0.9 3.9,-1.5c3.9,-2.4 6.6,-2.7 9.9,-4.5c2.7,-1.5 5.7,-2.4 8.4,-3.9c0.9,-0.6 1.8,-0.6 2.4,-1.5c0.3,-0.9 0.3,-0.6 0.9,-1.5c0,-0.3 0.3,-0.9 0.3,-0.9c0.3,-1.5 -0.3,-3.3 -0.3,-5.1c0,-1.2 0.6,-3 0.6,-4.2c-0.3,-1.8 -0.3,-3.3 -0.3,-5.1c0.3,-5.4 0.9,-8.4 0.6,-13.2c0,-2.4 0.3,-4.5 0.3,-6.9c0,-3.3 -0.6,-6.6 -0.3,-9.9l0,-5.1c0,-2.7 0.9,-6.6 0.6,-9.6c-0.3,-2.7 0,-4.5 -0.3,-7.2c0,-1.2 -0.3,-2.4 -0.3,-3.9l0,-3.9l-0.3,-5.1c0,-0.9 0.3,-0.6 0,-1.5c-0.3,-3.6 0,-6 0.3,-9.6c0,-1.2 0.3,-2.4 0.3,-3.9c-0.3,-1.5 -0.3,-2.4 -0.3,-3.9c0.3,-2.7 0,-3.9 0,-7.8c0.3,-5.1 -0.6,-10.2 -0.3,-15.6c0.3,-3.3 0.3,-11.4 0,-14.7c-0.6,-3.6 0,-7.2 0.3,-10.8c0,-0.6 0.3,-1.8 0.3,-2.4c0,-0.6 -0.3,-1.8 -0.3,-2.7c0,-3 0.9,-10.2 0.3,-12.6c-0.3,-3.6 -1.2,-14.4 -0.9,-17.7c0.3,-1.8 2.1,-2.7 3,-3.9c0.6,-0.6 0.9,-1.2 1.5,-1.8c0.6,-0.9 0.9,-1.5 1.2,-2.7c0.3,-0.6 0.3,-1.8 0,-2.7c-0.3,-1.5 0,-1.8 0,-3.3c1.5,-0.9 1.2,-1.2 1.2,-4.5c0,-2.4 -0.6,-3 0,-6.3l0,-10.8c0.3,-0.9 -0.3,-12 0,-13.2c0.3,-2.1 0.6,-1.5 -1.5,-4.8c-0.6,-1.2 -0.9,-1.5 -1.8,-2.4c-3,-2.7 -2.1,-2.4 -2.1,-6.6c0,-2.1 0.3,-2.4 0.3,-3.9c0,-1.8 -0.3,-3.9 0,-5.7l0.3,-7.8c0,-1.8 0.9,-1.8 0.3,-3.6c-0.6,-2.1 -1.2,-4.2 -1.8,-6.3l-2.1,-5.7c-1.2,-3.3 -2.7,-6 -3.6,-8.7l-3.3,-9c-2.1,-4.5 -5.4,-13.5 -7.5,-17.1l-2.1,-3.9c-0.9,-2.4 1.2,-1.2 -0.9,-4.5c-1.5,-2.4 -3.9,-4.5 -5.4,-6.6c-1.2,-1.8 -2.1,-3 -3.3,-5.1l-2.7,-5.4c-0.6,-0.9 -0.6,-1.5 -2.1,-1.8c-0.9,-0.3 -2.1,-0.6 -3,-0.6c-2.4,-0.3 -5.4,0 -7.8,0c0,-3.9 -0.6,-2.4 -0.6,-5.1c0,-4.2 -0.3,-8.7 0,-13.2c0.6,-4.8 0.3,-16.8 -0.3,-22.2c-0.3,-1.2 -0.6,-3 -0.6,-4.2l0,-6.9c-0.3,-2.7 -0.6,-1.2 -1.5,-3c-0.6,-1.5 -1.5,-3.3 -2.7,-4.5l-0.3,-0.6c-0.6,-0.6 0,-1.2 -1.2,-2.1c-0.3,0 -1.2,-0.3 -1.8,-0.3l-3,5.7c-0.3,0.3 -0.3,0.6 -0.3,0.9c-0.6,1.2 -1.2,3.3 -1.2,4.8Z" style="fill:#fefefe;"/><path d="M805.633,803l0.3,6.9c0,5.7 -0.6,10.5 -0.6,16.2c0,7.2 -1.2,12.9 -1.2,17.1c0,1.5 0,0.9 -0.3,2.1l0,0.6c0,0.9 0,2.4 -0.3,3.3c-0.3,1.2 -1.5,0.6 -2.4,0.6c-4.5,0 -4.5,0.9 -11.1,0.3c-0.9,0 -1.2,-0.3 -2.1,-0.6c-0.9,0.9 -1.5,2.1 -2.1,3.3c-0.3,0.6 -0.3,0 -0.6,0.6l-0.3,1.2c-0.3,0.9 -0.6,0.6 -1.2,0.9c-0.3,0.9 0.3,-0.3 0,0.6c-0.3,1.2 -1.5,2.7 -2.1,3.9l-1.5,2.1c-0.6,0.6 -0.3,-0.3 -0.6,0.9c-1.2,2.4 -2.1,5.1 -3.6,7.2c-0.6,0.6 -1.2,2.7 -2.7,4.8c-0.3,0.3 -0.6,0.6 -0.6,0.9c-0.6,0.6 -0.9,0.6 -0.9,1.2l-2.7,5.1c-1.2,2.1 -1.8,4.5 -2.7,6.6c-0.3,0.9 -0.3,1.5 -0.6,2.4c-1.5,5.4 -3,9 -4.5,14.4c-0.6,1.8 -1.2,2.7 -1.8,4.5c-0.3,1.5 -0.9,3.3 -1.2,5.1c-1.2,3.3 -0.9,4.5 -0.6,8.1l-0.6,6c0,1.2 -0.3,2.4 -0.3,3.6c0,1.2 -0.9,6 0.3,6.6c-0.6,0.9 -1.2,1.2 -0.3,2.4c1.2,1.8 -0.3,2.1 -1.5,3.6c-1.5,2.4 -3.6,2.1 -3.6,5.4c0,0.9 -0.3,1.8 -0.3,2.7c0,2.7 0,6.9 -0.3,9.3c-0.9,7.5 -1.2,15 -2.1,22.5c-0.3,1.8 -0.3,3.6 -0.3,5.1c-0.3,4.5 -0.9,2.7 2.1,6.3c2.4,2.7 2.4,5.4 3.3,6.3c0.9,1.2 0.6,0.3 0.6,1.8c0.6,3.9 0.3,7.8 0,11.7c0,1.5 -0.3,1.5 -1.2,2.1l-0.3,10.5c0.6,6 0.3,3.6 0.3,8.7c0,1.2 0.3,2.7 0,4.2c-0.6,5.7 -0.6,4.8 -0.9,10.2c-0.3,4.8 -0.6,9.6 -0.6,15c0,1.5 -0.3,3.3 -0.3,4.8c-0.3,4.5 0.3,7.2 -0.3,12.9c-0.3,1.5 -0.6,2.7 -0.6,3.9c-0.3,3 0.3,9.6 0.3,12.9c0,1.5 0.3,2.7 0.3,3.9l-0.3,12.9c0,2.4 -0.3,4.5 -0.6,6.9c0,2.7 0,4.5 -0.3,6.9l-0.6,15c0,0.9 0.9,8.1 0.6,9.3c-1.2,0.6 -1.8,0.3 -3.6,0.9c-0.3,0.3 -0.6,0.3 -0.9,0.3c-1.2,0.6 -3,1.5 -4.2,2.1c-1.2,0.6 -3,0.6 -4.2,1.5c-1.2,0.6 -2.7,1.5 -3.9,2.1c-1.5,0.6 -3,0.9 -4.2,1.5c-0.6,0.3 -1.2,0.6 -1.8,0.9c-0.9,0.3 -1.5,0.6 -2.4,0.9c-2.4,0.9 -6.3,2.7 -9,2.7c0,1.8 -0.9,1.5 -1.5,3l-6.9,9.9c-0.6,0.9 -0.9,1.8 -1.8,2.4c-0.6,0.9 -1.2,1.5 -1.8,2.4c-0.6,1.5 0,1.8 -1.8,2.1l-1.8,11.1c-0.6,3.6 -0.9,7.5 -2.1,11.1c-0.6,1.8 -0.3,3.6 -0.6,5.4c0,1.5 -0.6,2.1 0,3c0.3,0.6 5.4,4.5 6,4.8c0.9,0.3 1.2,0.3 2.1,1.2c2.1,1.8 5.1,3.6 7.8,4.2c2.7,0.9 3.3,1.8 4.5,1.8l2.4,-0c2.1,-0 3,-0.6 4.8,-1.2c2.1,-0.3 8.1,-1.8 9.9,-2.1c2.1,-0 3,-1.5 3.9,-0.6l6.3,4.5c2.4,1.5 0.9,0.9 5.4,0.3c1.5,-0 4.2,0.3 5.7,-0.3c1.5,-0.6 2.4,-1.5 4.2,-1.8c0.9,-0 2.4,0.3 3,-0c1.2,-0.6 -0.3,-1.2 3,-1.2c0.3,-2.1 0.6,-4.8 0.6,-6.9c0,-2.7 -0.3,-3.9 0.3,-6.6c5.1,-0 0.3,6 3.3,4.5c1.5,-0.9 2.7,-1.2 4.2,-1.8c1.2,-0 1.8,-0.3 3,-0.6l8.4,-3c0.3,-0.3 0.6,-0.3 1.2,-0.6c3,-0.9 6.3,-2.7 9.3,-3.6c1.2,-0.3 2.1,-0.3 3,-0.9l8.4,-2.7c0.9,-0.3 1.5,-0.6 2.7,-1.2c0.9,-0.3 1.5,-0.6 2.7,-1.2c1.8,-0.6 3.6,-1.2 5.4,-1.8l10.5,-4.5c2.4,-1.2 5.4,-2.1 7.8,-3.3l5.4,-2.4c2.7,-0.9 4.8,-2.4 7.5,-3.3c0.9,-0.3 2.1,-0.9 2.7,-1.2c0.3,-0.3 0.9,-0.6 1.2,-0.9c0.6,-0.6 0.6,-0.6 1.2,-0.6c0,-1.8 -0.3,-2.7 -0.3,-4.5c0.3,-3.3 0,-6.6 0.3,-9.6c0.3,-5.1 0.3,-9.9 0.6,-14.7l0,-21.9c0.3,-2.1 0.6,-4.5 0.6,-6.6l-0.3,-10.8c-0.3,-3 -0.3,-4.8 -0.3,-7.8l-0.9,-6.6l0,-2.1c0,-0.6 -0.3,-1.5 -0.3,-2.1l0,-6.6c0,-3 0.9,-1.8 1.2,-2.7l0,-7.5c0,-1.2 0.3,-2.4 0.3,-3.6c-0.3,-1.2 -0.3,-2.7 -0.3,-3.9c-0.3,-6 -0.3,-11.7 -0.3,-17.1l-0.3,-8.1c-0.3,-3 0.3,-9.3 0.6,-11.7c0.3,-2.1 0,-3.9 0,-5.4l0.6,-11.1c0,-2.7 -0.6,-12.6 -0.9,-15.3c-0.6,-0.3 -1.2,-0.9 -2.1,-1.2c0.3,-2.1 2.1,-3.6 3.3,-4.8c1.2,-1.5 2.4,-2.7 3.3,-4.5c1.2,-1.8 0.3,-1.5 0.3,-3.3c-0.3,-0.9 0.9,-2.1 0.6,-6.9c-0.3,-1.5 -0.9,-0.9 -0.6,-3c1.2,-0.3 0.9,0.6 1.2,-0.3c0.3,-2.1 0.3,-7.8 0.3,-10.2l0,-16.8c0.3,-3.3 0.6,-2.4 -2.1,-6.3c-0.6,-0.9 -1.2,-1.2 -2.1,-2.1c-2.4,-2.7 -1.2,-3.6 -1.2,-6.3l0,-3.9c0.3,-0.6 0.3,-0.9 0.3,-1.5c0.6,-3.3 0,-1.8 0.3,-3.3c0.3,-3 0,-2.4 0.3,-4.2l0,-3c-0.3,-3.6 1.5,-3.3 0.3,-6.6c-1.2,-3 -1.8,-5.7 -3,-8.4l-5.1,-12.6c-0.3,-1.8 -1.2,-3.9 -1.8,-5.7c-0.3,-0.6 -0.3,-0.6 -0.6,-1.2c-1.8,-4.2 -2.4,-5.1 -4.2,-9.3c-0.3,-0.9 -0.6,-1.8 -0.9,-2.7c-0.6,-1.2 -0.9,-1.2 -1.5,-2.7c-0.3,-1.2 -1.2,-2.1 -1.8,-3.3c0,-0.6 -0.3,-0.9 -0.6,-1.5c-0.9,-2.1 -2.4,-6 -3.6,-7.5l-4.2,-5.4c-0.6,-0.9 0,0.3 -0.3,-1.5c-0.9,0.3 -0.3,0.6 -0.6,0.3c-0.9,-0.9 0,-1.2 -0.9,-2.1c-0.9,-1.5 -1.8,-2.1 -2.4,-3.9c0,-0.6 0.3,-0.3 0,-0.9c-0.9,0.6 -0.3,0.6 -1.2,0.9c-0.6,-0.9 -0.3,-0.9 -0.9,-1.2c-3,-0 -5.4,-0.3 -8.4,-0c-0.6,0.6 -0.6,1.2 -1.5,1.5c-1.5,-0.6 -0.6,-1.5 -2.7,-1.2l-1.5,-0c0,-1.5 0,-3 1.8,-3.3c0,-3 0,-0.3 -0.3,-2.7l0,-0.3c0,-1.5 -0.6,-2.4 -0.6,-3.9c-0.3,-1.2 0,-0.9 0.9,-1.5l-0.3,-5.1l0,-1.5c0,-1.2 0.3,-1.8 0.3,-3c0,-1.2 0.3,-2.1 0.3,-3c0,-0.9 -0.3,-1.8 -0.3,-2.7l0,-4.5c0,-0.6 0,-0.9 0.3,-1.2c0,-0 0.3,-0 0.3,-0.3c-0.3,-0 -0.3,-0 -0.6,-0.6c-0.6,-1.5 0,-4.5 0,-5.7c-0.3,-1.2 -0.3,-2.4 -0.3,-3.6c0,-2.1 -0.3,-4.2 -0.6,-6.6c-0.6,-7.2 0.9,-4.5 -2.1,-11.1l-0.3,-0.9c-0.3,-0.3 -0.3,-0.3 -0.6,-0.6c-1.2,2.7 -1.5,2.7 -2.4,6c-0.3,1.8 0,2.4 0.3,3.9c0,1.5 -0.3,3 -0.3,4.5Z" style="fill:#fefefe;"/></g><g id="_2391924058448"><path d="M798.433,751.7c0,3.3 0,7.2 -0.3,10.5c-0.3,1.8 -0.9,3.6 -1.2,5.4c-0.6,2.1 -0.9,3.3 -1.2,5.4c-1.2,3.9 -3.6,8.1 -5.7,11.7c-0.3,0.6 -0.3,0.6 -0.6,0.9c-0.3,0.3 -0.6,0.9 -0.9,1.2c-0.9,2.4 -2.4,5.1 -3,7.5c-0.3,3.3 -0.6,7.8 -0.3,11.1l0.3,24.9c0.3,2.1 0.3,4.2 0,6.6c-2.1,0 -4.8,-0.6 -7.2,-0.6c-3,7.5 -6.9,12 -8.7,16.2l-1.5,3c-0.6,0.9 -0.9,1.8 -1.5,3c-0.3,0.9 -0.6,1.5 -1.2,2.7l-6,12.6c-0.3,0.3 -0.6,0.9 -0.9,1.5c-2.1,5.1 -3,6.9 -4.2,12.6c-1.2,4.5 -2.1,8.7 -3.6,13.2l-1.8,6.6c-0.3,1.2 -0.6,2.1 -0.9,3.3l-2.4,8.1c-0.3,0.6 -0.6,0.9 -0.6,1.5c-1.5,5.1 0.6,9.9 0.6,15l0,6.3c0,2.4 -0.6,2.7 -2.4,3.6l-3.9,2.7c-1.2,0.6 -0.6,0.6 -1.5,1.5c-1.2,0.9 -1.2,1.5 -1.8,3.3l3.9,0.9l-1.5,27.3c-0.6,5.1 -0.3,10.5 -0.9,15.3c-0.3,2.4 1.5,3.3 2.7,4.8c1.2,0.9 2.7,3.6 3,5.1c0.3,1.5 0,17.4 0,21l0.3,49.2l0,2.7c0,4.5 -0.3,15.6 -0.6,20.4c0,1.5 0.3,3 0,4.5c-0.9,7.8 0.3,32.1 -0.6,39c0,1.5 0.3,8.1 0.3,9.9c0,-0 -2.4,0.9 -3,1.2l-6.3,1.8c-2.7,0.6 -10.5,2.4 -12,3.3l-7.8,4.5c-1.5,0.9 -3.6,1.5 -5.4,2.4c-0.9,0.6 -1.2,1.2 -2.1,1.8c-1.2,1.2 -1.2,0.3 -2.1,1.8c-0.3,0.9 -0.9,1.8 -1.2,2.7l-1.8,2.4c-3.3,4.2 -2.1,2.7 -4.5,7.2c-3.3,5.7 -3,9 -3.9,15.9l-1.8,9c-0.3,1.2 -0.6,2.1 -0.6,3.3c-0.3,1.2 -0.6,2.1 -0.6,3.3c-0.3,1.8 -0.3,4.8 -1.5,6l-1.8,2.1c0.3,1.2 0.9,1.5 1.5,2.4c2.4,3.6 2.4,2.4 6.9,5.1l11.7,6c2.1,1.2 4.5,2.4 6.3,3.9c3.3,2.7 3,1.2 8.7,-0l12.6,-2.1c2.4,-0.6 4.2,-0.9 6.6,-0c2.7,0.9 6,2.4 9,3c1.2,0.3 2.1,0.3 3.6,0.3c5.4,-0 6,-0.3 10.5,-1.2c3.3,-0.6 7.2,-0 8.1,-3.9c0.3,-2.1 0.3,-5.1 0.3,-7.8c2.7,-0.6 4.8,-1.5 6.9,-2.4c5.1,-2.1 8.7,-1.8 14.4,-4.8c2.1,-0.9 3.9,-2.4 6,-3.6c5.1,-2.4 9,-3.3 13.8,-5.1c6,-2.1 10.2,-5.1 16.8,-6.9c1.2,-0.6 2.7,-0.9 3.6,-1.5c1.8,-0.6 7.2,-2.4 8.4,-3c2.1,-1.2 12,-5.1 13.8,-5.7c1.2,-0.3 2.4,-0.3 3.6,-1.2c2.7,-1.8 4.2,-0.3 4.2,-7.5c0,-6.3 0.6,-11.1 0.6,-17.1l0.3,-17.7c0,-12 -0.3,-26.1 -0.9,-38.1c0,-6.3 -1.2,-14.7 -1.2,-21.3c-0.3,-4.2 -0.9,-8.4 -0.9,-12.9c0,-3.9 -0.9,-10.5 -0.9,-16.2l-0.9,-33.9c0,-1.5 -0.6,-9 0,-10.5c0.3,-1.2 0.6,-4.2 0,-5.4c-0.6,-0.9 -1.2,-2.1 -2.1,-1.8l-1.5,-0c-0.6,0.3 -0.9,0.6 -1.8,0.6c0,0.9 0.3,1.8 0,2.7c0,1.5 -0.6,0.9 -0.3,3c0,6.6 -0.3,15 -0.6,21.9c-0.3,3 0,6 0.3,9c0.3,3.6 0.3,6.6 0.3,10.5c0,3.9 0.3,8.1 0.3,12.3c0,3.9 0.3,8.1 0.3,11.7l1.2,14.4c0.3,5.1 0.6,10.5 0.6,15.6c0,3 0.6,7.2 0.6,10.8c0,7.5 0.6,14.7 0.6,22.2l0,14.7c0,4.2 -0.3,7.8 -0.3,12.6c0,3.9 -0.9,8.1 -1.5,12c0,3 -0.9,2.7 -2.7,3.9c-2.7,1.8 -6.9,3.6 -9.6,4.5c-0.9,0.3 -4.2,1.8 -4.8,0.9c-0.6,-0.3 -1.2,-7.5 -1.5,-8.7c-0.9,-7.5 3.6,-4.5 0.6,-15.9c-3,-0.9 -7.5,-2.1 -10.2,-0c-0.6,0.3 -1.8,2.4 -2.4,3.3c-0.9,2.4 -1.8,5.7 -0.3,8.1c2.1,3 3.3,2.1 3.3,6.9c0.3,6 -0.6,5.4 0.9,10.8c-1.8,1.2 -6.9,3 -9.6,3.9c-1.2,0.6 -2.4,0.9 -3.3,1.5c-3.3,1.5 -6.9,2.1 -10.2,3.9c-0.9,0.6 -2.4,1.2 -3.3,1.5c0,-1.8 0,-2.7 0.3,-4.2c0,-1.2 0,-3 0.3,-4.2c0.3,-3.9 1.8,-12.3 0.9,-15.9l-1.2,-3.6c-0.3,-1.5 -0.3,-1.5 -1.5,-2.7c-2.4,0.9 -1.8,4.8 -1.8,6.9c0,3.9 -0.3,23.7 -1.2,25.2c-0.6,0.9 -5.4,2.7 -6.3,3c-6.9,2.7 -13.8,5.4 -21.3,6.9c0,-1.8 -0.3,-8.7 -0.9,-9.9c-0.6,-1.8 -0.3,-0.9 -1.2,-1.5c-0.9,-0.9 -0.3,-0.9 -0.9,-1.5c-1.2,-1.8 -3,-0.3 -3.3,1.2l1.5,20.7c0,1.8 -0.6,1.8 -4.5,1.8c-2.1,-0 -4.2,0.6 -6.9,0.3l0,-12.6c0,-1.2 0.9,-1.5 0.3,-4.8c0,-0.9 -0.3,-0.9 -0.6,-2.1c-0.9,0.9 -0.3,-0.6 -2.1,-0c-0.6,0.9 -0.3,1.8 -0.6,2.7c-0.6,1.5 -0.3,0.3 -0.3,2.1c0,3.3 1.5,12.6 0.9,15.6l-2.1,0.6c-1.2,-0 -4.2,-0 -4.5,-0.3l-0.3,-0.3l0,-1.2c0.3,-3.6 -0.6,-6 -0.6,-8.1c0,-1.5 0,-2.4 -0.3,-3.6c-0.3,-1.2 -0.6,-2.1 -0.6,-3.3c-0.3,-1.5 -0.3,-3.3 -1.2,-4.5c-1.2,-1.2 -1.2,-1.8 -3,-1.2l-0.9,-0c0.6,6.3 1.2,12.9 0.9,19.5c-1.8,-0 -3,-1.2 -4.5,-0.6c-1.5,0.6 -3,1.2 -4.8,1.5c-3,0.6 -6.9,1.2 -10.5,1.2c-0.6,-6 -0.3,-10.5 -0.6,-16.2c0,-1.5 0.3,-2.1 0.3,-3.3c-0.3,-7.2 2.1,-8.7 -2.4,-8.7c-0.6,-0 -3.3,0.9 -3.3,1.2l0,0.3c-0.3,0.9 0,-0.9 0,0.3l0,2.7c0,4.8 -0.3,14.7 -0.6,19.5c-0.3,3.6 2.1,5.7 -9.9,-0.3c-1.5,-0.9 -3,-1.5 -4.5,-2.4l-4.5,-2.1c-1.8,-0.9 1.8,-21.3 2.7,-24.6c0.3,-1.8 1.2,-6.9 1.5,-8.1c2.1,0.3 3.9,1.8 5.4,3l9.6,7.2c1.2,0.6 3,-0 4.5,-0c1.5,0.3 1.5,-0.6 4.2,-1.5c3.6,-0.9 6.9,-1.5 10.5,-1.8c2.1,-0.3 5.1,-0.6 7.2,-1.2c1.2,-0.3 2.1,-0.6 3.3,-0.9c1.5,-0.3 2.1,-0.6 3.6,-0.9c-2.1,1.8 -4.5,5.4 -6,7.8c-1.2,1.5 -3,1.8 -2.4,3.9c0.3,1.5 6.9,2.4 8.7,3c1.8,0.3 2.1,0.3 3.3,1.5c1.2,-0.6 1.5,-0.3 2.1,-0.3c0.9,-0.3 0.3,-0.3 0.6,-0.6l0,-0.3l0.3,-0c0.3,-0.3 0.3,-0.3 0.6,-0.3c1.5,-0.6 2.7,-0.9 3.9,-1.8c2.1,-1.5 5.1,-2.4 8.4,-2.4c-0.3,-3.6 -2.4,-8.7 -5.1,-10.8c-1.2,-0.6 -2.4,-1.5 -3,-2.7l6,-1.8c5.4,-1.5 5.4,-1.5 11.1,-3.6c2.1,-0.6 3.9,-1.5 5.7,-2.1c4.5,-1.5 9.9,-2.7 13.5,-5.4c1.2,-0.6 1.5,-1.2 2.4,-1.8c0.6,-0.3 1.8,-0.6 2.7,-0.9c1.2,-0.9 0,-1.2 2.4,-1.5c-0.3,-2.1 0,-3.9 -0.3,-6c0,-1.8 0.3,-3.9 0.3,-5.4l0.3,-17.7c0,-4.2 -0.6,-8.4 -0.9,-12.3c-0.3,-3 -1.2,-6.3 -0.3,-9.3c0.6,-2.1 0.9,-6.9 0.6,-9.3l-0.3,-44.7c0,-8.7 0.3,-24 0,-31.8c-0.3,-2.4 0.3,-17.1 0,-18.9c-0.3,-2.4 0,-0.6 0,-2.4c0,-1.2 -0.9,-2.1 -1.8,-2.4l-0.9,2.4c-0.6,2.4 0.6,4.5 0.6,6.6l0,10.2c0,1.8 -0.3,4.2 -0.3,5.7c0,14.7 -0.6,28.5 -0.6,43.2c-0.6,-0 0,-0 -0.6,-0.3l-0.3,-0c-0.3,-0 -0.3,-0.3 -0.6,-0.3c-3,-1.5 -4.8,-1.2 -5.4,2.7c-0.3,3 -1.5,8.4 2.1,10.2c4.8,2.4 3.6,-7.5 4.5,-9.3c0.3,0.3 0.3,-0 0.3,0.3c0.3,1.5 -0.3,45.6 -0.3,47.7c-1.8,-1.8 -1.2,-2.7 -6,-2.1c-0.3,0.6 -0.3,1.2 -0.3,1.5c-0.3,1.2 0,0.6 0,1.8c0,3.9 -3.9,12.3 3.3,12c0.9,-1.5 1.8,-3.6 2.7,-5.1c0.3,1.8 0.6,3.3 0.6,5.1l0.3,5.7c0.3,0.3 0.3,0.3 0.3,0.9l0,0.3c0,1.5 0,3 0.3,4.5l0,12c-0.9,-0.3 -1.2,-0.9 -1.8,-1.5c-1.8,-1.5 -7.8,-7.2 -9.3,-8.7c-0.6,-0.6 -0.9,-1.2 -1.5,-2.1c-1.5,-0.9 -2.4,-2.4 -3.6,-3.3c-0.9,-0.9 -1.2,-0.9 -1.8,-1.8c-3.6,-3.6 -9.3,-7.5 -14.4,-7.5c-2.7,-0 -7.2,1.8 -9.6,2.4c-1.5,0.6 -3,1.2 -4.5,1.8c-0.3,0.3 -0.6,0.3 -0.9,0.3c-1.2,0.3 -2.4,0.9 -3.6,0.9l0.6,-23.7l0,-3.3l0.6,-21.6c0.3,-1.5 0.3,-3.3 0.3,-4.5c0.6,-11.1 0.6,-23.4 0.6,-34.5l-0.3,-35.7c0,-3.9 -0.6,-13.2 0.3,-17.1c0.6,-1.5 0.9,-1.8 2.4,-1.8c1.5,-0 11.4,1.5 15.3,1.8c1.5,0.3 2.7,0.3 4.2,0.3c0.9,0.3 0.9,-0 1.8,0.3l1.5,-0l17.7,1.2c3.6,0.3 3.6,-0.3 5.7,-0.3c0.9,-0 0.9,-0 1.8,0.3c1.5,-1.2 2.4,-0.6 4.5,-0.6c1.2,-0 1.5,0.6 2.4,0.6c1.8,0.3 3.3,-0.9 5.1,-0.9l5.4,-0c1.8,-0 4.8,0.6 6.3,0.6c1.2,-0 2.1,-0.9 6.6,-0.9l6.9,-0.6c2.7,-0.3 5.1,-0 7.2,-0.3c1.2,-0.3 2.7,-0.6 3.6,-0.6c1.2,-0.3 2.1,-0 3.3,-0c0.9,-0 2.1,-0.6 3,-0.9c1.2,-0.3 2.4,-0.3 3.9,-0.3l0,-3.3c2.1,-1.2 2.1,-1.8 3.3,-3.3c0.6,-0.9 0.6,-0.6 1.2,-1.2c0.3,-0.9 0.3,-3 -0.6,-3.6l-2.7,-1.2c-1.2,0.9 -1.5,2.4 -2.7,3.3l0,0.3l-0.3,-0c-1.2,0.6 -0.6,0.3 -2.7,-0l-1.2,-0c-0.9,0.3 -0.9,-0.3 -0.9,-0c-0.9,0.3 -1.8,3 -2.1,4.2c-0.3,0.6 -0.6,1.5 -0.9,2.1c-0.6,0.9 -0.6,1.2 -1.8,1.5c0,-2.1 0.6,-3.9 -0.3,-6c-0.6,-2.1 -1.8,-3.3 -3.9,-3.6c-1.5,3.6 -2.7,6.9 -2.1,11.1l-3.3,-0c0,-1.8 1.8,-9.3 -3,-9.3c-3.3,-0 -3.9,8.4 -5.1,9.3c-0.6,-0 -0.9,0.3 -1.5,0.3c-1.5,-0.3 -1.2,-2.1 -1.5,-4.2c0,-2.1 -0.6,-4.2 -2.4,-4.8c-2.1,-0.6 -4.2,3.9 -4.5,6.3c0,0.6 0,1.8 -0.3,2.7l-3.3,0.6c0.3,-4.2 0.9,-5.4 -0.3,-9.3c-1.2,-0 -3.9,0.3 -4.5,1.2c-0.3,1.5 0.6,3.6 0.6,4.5c-0.3,0.6 -1.2,0.9 -1.5,1.2c-0.6,0.9 -0.6,1.2 -1.2,1.8l-0.9,-0.3c-0.9,-2.4 1.2,-2.7 -0.3,-6.6c-0.3,-0.6 -0.9,-1.2 -1.5,-1.2c-0.9,-0.3 -3.6,0.6 -4.2,1.2c-1.2,0.9 -1.5,2.4 -1.8,4.2c-1.2,-3.3 1.5,-3.6 -0.9,-6.9c-0.6,-0.6 -1.2,-0.9 -1.8,-0.6c-0.9,0.6 -0.3,-0 -0.6,0.9l-0.3,0.6c-0.3,0.9 0.6,6.6 0.6,8.1c-1.5,0.3 -3.3,0.9 -4.8,0.6c-1.5,-0 -1.5,-2.1 -2.7,-4.2c-0.9,-1.2 -1.5,-2.7 -3.3,-3c-6.3,-1.2 -1.8,6.9 -1.5,7.8c-3.9,-0.6 -4.2,-0.6 -5.7,-3.9c-2.7,-6 -7.5,-6 -7.5,-2.4c0,2.1 1.8,3.9 2.1,5.7l-4.2,-0.6c-2.1,-4.5 0,-8.1 -6.9,-8.4c-0.6,1.5 -2.1,2.1 -0.9,3.9c0.9,1.2 1.8,2.7 1.8,4.2c-2.7,-0 -2.7,-0 -3.9,-1.8c-0.6,-0.9 -1.5,-2.7 -1.8,-3.9c-0.3,-1.2 -0.3,-0.9 -1.2,-1.5c-0.6,-0.6 -0.9,-0.9 -1.5,-1.2c-1.5,-0.9 -2.4,-1.2 -3.9,-0.9c-0.3,3.3 1.2,4.8 1.2,7.5l-1.8,-0c-0.3,-1.5 -0.6,-1.8 -1.2,-3c-1.2,-2.1 -4.8,-7.5 -4.8,-9c1.2,0.3 5.1,0.3 6.6,0.3c5.4,-0 11.1,0.6 16.8,0.6l3.9,0.3l2.1,-0l6.3,0.3l0.9,-0c0,-0 0.9,0.3 1.2,0.3l2.7,-0c1.8,-0 4.2,0.3 5.7,0.3c3.6,-0 8.1,0.6 12,-0l24.9,-1.5c4.2,-0 9,-0.6 12.9,-0.6c2.1,-0 5.1,-0 7.5,-0.6c3.9,-0.6 9.6,0.6 9.6,-1.5c0,-0.6 0,-0.9 -0.3,-1.2c0.6,-0.3 0.3,0.3 0.6,-0.6l-0.3,-0l-0.9,-0.3c-0.9,-0.3 -0.6,0.3 -1.8,0.3c-1.2,0.3 -2.7,0.3 -3.6,0.3c-2.7,-0.3 -11.7,-0.3 -14.7,-0c-3.3,0.3 -6.6,1.2 -10.2,1.5c-8.1,0.9 -16.2,0.9 -24.6,1.5l-4.2,-0.3l-14.1,-0l-10.2,-0.3c-5.4,-0 -13.8,0.3 -18.9,-0.3c-3,-0.3 -6,-0.3 -9,-0.6c-0.9,-0 -1.5,-0 -1.5,-0.9c0,-2.7 -0.3,-5.4 0,-8.1c1.8,-0.3 3.9,-0.3 6,-0.3c1.8,-3.9 1.2,-8.4 1.5,-12.3c0,-6 2.7,-9.3 -5.1,-9.9l-0.6,-6.3c3.9,-0 10.2,1.5 17.1,1.5c7.2,-0 16.8,-0.3 23.4,-0c1.2,-0 1.5,-0.3 2.7,-0.3l3,0.3c4.8,-0 3.9,-1.2 4.5,6.6c0,3 -0.6,6 -0.3,9.3c0,2.7 -0.3,6 -0.3,8.7c0,1.5 0.3,3 0.3,4.8c0,1.5 -1.2,3 0.3,4.8c1.8,-0 2.1,-0.6 2.1,-2.4c0,-6.9 0.9,-15.3 1.2,-22.8c0,-2.4 0,-6.9 0.6,-9c1.5,-0 3,-0.3 4.5,-0.3c0.6,-0 1.8,-0.3 2.7,-0.3c4.5,0.6 18,-0.9 23.7,-0.9l18.3,-0c2.7,-0 5.7,-0.3 8.1,-0l0.9,0.3c0.3,1.8 0.3,9.9 0.6,13.2c0.9,6 0,12.3 0,18.3c0,1.5 0.6,1.8 0.3,3.6c-0.3,0.9 0,1.5 0,2.4c0,0.6 -1.2,-0 1.5,1.2c1.2,0.3 2.1,1.2 3.3,0.6c0.9,-0.3 1.2,-0.6 1.2,-1.2c1.2,-3.9 1.2,-8.1 1.2,-12l0,-5.1c0,-3 -0.6,-6.6 -0.6,-9.3c0,-0.3 -0.3,-0.9 -0.3,-1.5c-0.3,-3.6 -0.6,-6.9 -0.6,-10.2c0,-0.9 0.3,-0.3 0.9,-0.9c0.3,-0.3 0.3,-0.6 0.6,-1.2c-1.2,-2.1 -2.4,-4.2 -4.2,-5.7c-0.9,-0.6 -0.9,-1.2 -1.2,-2.1c-0.6,-0.9 -0.9,-1.2 -1.5,-1.5c-0.6,-0.3 -0.9,-0.3 -1.2,-0.6c-0.3,-0 -1.2,-0.3 -1.5,-0.3c-2.1,-0.6 -15.6,0.3 -18,0.6l-13.5,0.3c-6.9,-0 -18,-0.9 -24.3,-0.3l-3,-0l-3.9,0.3c-1.5,-0 -3,-0.3 -6,-0.3c-5.1,0.3 -14.7,0.3 -19.2,-0.3c-4.5,-0.3 -9.6,-0.6 -14.1,-0.6c-0.9,-0 -2.7,0.3 -3.9,-0c-0.3,-0 -0.3,-0.3 -0.3,-0.3l0,-3c0,-1.2 -0.3,-2.7 -0.3,-3.6l0,-6.9c0,-6.3 0,-7.2 2.1,-12.3c0.9,-1.8 1.5,-3.6 2.1,-5.4c2.4,-5.4 4.8,-17.4 6.3,-23.7c0.3,-0.9 0.3,-2.7 1.5,-3.6l0.3,-0.3c1.8,-0.6 7.8,0.3 9.9,0.3c7.8,-0 7.5,-2.4 9,2.4c1.5,5.4 4.8,13.2 6,18.3l8.1,21.6c1.2,3.9 1.5,2.1 0.6,7.8c-0.3,1.2 -0.9,5.7 -0.6,6.6c0.3,0.6 0.6,0.9 1.2,1.2c0.9,-0.3 0.3,-0 0.9,-0.9c0.9,0.3 0.3,0.3 1.2,0.6c-0.3,-2.7 -0.9,-10.8 0.6,-12.9c0.6,-0.3 0.9,-0.6 1.5,-1.2c0.6,-0.6 0.6,-0.6 0.9,-1.5c0.9,-1.2 1.2,-1.5 2.1,-3c1.5,-3.9 2.4,-7.5 3.9,-11.1c1.8,-3.9 4.5,-10.2 5.7,-14.4c0.3,-1.2 0.9,-2.4 1.2,-3.6c0.6,-1.2 1.2,-2.4 1.5,-3.9l2.4,-7.8l7.2,0.3c3.3,-0 6.3,-0 9.6,0.3c0.9,-0 0.9,0.3 1.2,1.2c2.7,4.8 4.8,9.9 6.9,14.7c0.6,1.5 1.2,3 1.8,4.5c1.5,2.7 2.4,6 3.3,9c0.3,1.8 0.6,3.3 0.9,5.4c1.2,6 3.6,10.2 4.2,14.1c1.2,5.1 -1.8,4.2 0.3,7.5c1.8,2.7 0.6,1.2 3,2.1c0.6,-0.6 0.6,-0.9 0.9,-0.9c0.3,-0 0,-0 0.6,-0.3c0.6,-2.7 0.3,-3.6 0.6,-6.6c0.3,-4.2 2.1,-7.5 0.6,-11.7c-0.6,-2.4 -0.9,-5.1 -1.8,-7.2l-1.2,-3.6c-2.7,-6.9 -7.8,-21.3 -11.1,-26.7l-1.8,-3c-0.6,-0.9 -0.9,-2.1 -1.5,-3c-1.8,-3 -3,-6.3 -4.5,-9.6l-3.3,-6.3c-1.8,-3.3 -3.9,-9.6 -5.7,-12.9c-2.1,-3 -2.7,-3.6 -4.2,-7.5c-2.4,-5.4 -5.7,-4.8 -11.1,-4.8c0.3,-1.2 0,-3.9 0.3,-6c0.3,-1.5 0.6,-3.9 0.3,-6c-0.9,-8.1 -0.9,-16.2 -1.8,-24.3c0,-2.1 -0.3,-7.8 -0.6,-9c-0.3,-1.5 -2.4,-6 -3,-7.2c-1.5,-4.2 -2.1,-5.4 -3.6,-9.9c-0.9,-3 -1.8,-7.5 -3.6,-9.9c-1.5,-2.4 -1.5,0.3 -1.2,-5.1c0.3,-0.3 0,-0.9 0.3,-1.2l0.3,-9.9c0,-3.3 0.3,-6.9 -0.3,-9.9c-3.6,0.9 -3.3,10.8 -3.3,13.8Z" style="fill:#373435;"/><path d="M810.433,984.8c2.4,-0 3.3,-0.6 4.8,-0.6l0.6,-14.1c0.3,-5.1 2.1,-9.3 -7.2,-6.9c-1.8,0.3 -1.5,0.6 -1.5,2.4l-0.3,7.2c0,4.5 -0.9,12 3.6,12Z" style="fill:#373435;"/><path d="M836.533,1132.4l-0.3,-10.5c-3,0.3 -5.1,0.9 -7.8,2.1c-3.3,2.1 -2.4,2.7 -2.7,6.9c-0.3,1.8 -0.3,4.5 -0.3,6.3c0,1.8 1.2,3.9 2.4,4.2c1.8,0.3 3,-0.9 4.5,-1.8c5.4,-2.7 4.2,-2.1 4.2,-7.2Z" style="fill:#373435;"/><path d="M827.233,963.2c-0.9,-0.3 -7.2,-0 -8.4,-0c0.3,4.8 1.8,5.4 0,12c-0.3,1.8 -0.6,4.8 0,6.6c0.3,1.2 3,2.4 4.5,2.4c6,0.3 3.9,-10.8 4.2,-15.6c0,-0.6 0,-3.9 -0.3,-5.4Z" style="fill:#373435;"/><path d="M836.833,1019c-11.4,0 -9.6,-0.6 -10.2,3.6c-0.3,2.4 -0.6,12.3 0.3,14.1c1.2,2.4 6,-0.6 7.8,-1.5c0.6,-0.6 0.3,0 0.6,-2.7c0.3,-2.1 1.8,-12 1.5,-13.5Z" style="fill:#373435;"/><path d="M825.433,1089.8c0.9,0.3 6.6,0.6 6.9,0.3c0.9,-0.3 0.6,-0.3 1.5,-1.5c2.7,-3.9 1.2,-10.8 0.6,-15.9c-1.8,0 -4.2,0.3 -6,0.6c-3.3,0.9 -3,-0.3 -3,3.3c0,4.2 -0.3,9 0,13.2Z" style="fill:#373435;"/><path d="M787.033,965c0,2.4 1.2,7.8 0.6,12.6c-0.3,1.8 -0.6,4.5 0.3,6c1.2,1.8 4.5,1.2 4.8,1.2c0.9,-0.6 1.8,-4.2 2.1,-6c0.3,-2.4 0,-5.7 0,-8.1c0,-2.4 0.6,-6.3 -1.2,-6.9c-2.1,-0.3 -5.1,0.3 -6.6,1.2Z" style="fill:#373435;"/><path d="M771.133,935.6c2.1,-0 3.9,-0.3 5.1,-2.4c0.6,-0.9 1.2,-1.2 1.5,-2.1c0.9,-2.4 0.6,-6 -0.3,-8.7c-0.9,-2.7 -1.5,-2.7 -4.2,-2.7c-5.4,0.3 -5.4,-0.6 -5.4,6.3c0,1.2 0,7.8 0.6,8.7c0.3,0.6 1.8,0.9 2.7,0.9Z" style="fill:#373435;"/><path d="M767.233,985.1c7.5,1.2 5.7,-6 6,-13.8c0,-3.9 -0.6,-5.7 -1.5,-9.3c-5.4,0.6 -5.4,4.2 -5.4,9.6c0,2.7 0.3,12 0.9,13.5Z" style="fill:#373435;"/><path d="M755.233,975.8c0,2.7 0.3,6 1.5,7.8c0.9,-0 2.4,-0.3 3.3,-0.6c0.9,-0.6 0.9,-0.6 1.5,-1.5c1.2,-2.4 1.2,-8.7 0.9,-12c-0.3,-2.1 0,-4.5 0,-6.9c-2.1,-0.6 -6.3,-3.6 -6,2.7c0,5.7 -1.2,7.5 -1.2,10.5Z" style="fill:#373435;"/><path d="M831.733,916.4c-7.2,-0.6 -6.6,2.4 -6.9,7.5c-0.3,2.7 0.3,6.9 2.4,8.4c0.6,0.6 4.2,0 5.1,-0.9c2.1,-2.1 2.1,-2.1 2.1,-4.5c0,-2.1 0,-4.2 -0.6,-6c-0.6,-2.4 -0.9,-3 -2.1,-4.5Z" style="fill:#373435;"/><path d="M838.633,964.7c0,3.3 0.9,4.2 0.9,9.6c0,1.8 -0.6,4.5 0,6.6c0.3,0.9 0.3,1.2 0.6,1.8c6,-0 6,-1.2 6,-8.7c0,-1.8 0,-4.5 -0.3,-6.6c0,-1.2 -0.6,-5.4 -2.4,-5.4c-1.5,0 -4.8,0 -4.8,2.7Z" style="fill:#373435;"/><path d="M830.833,962c-0.3,4.2 -0.6,7.8 -0.6,12c0,6.3 -2.1,8.7 5.1,8.7c2.7,-6.6 0.3,-6 1.5,-13.5c0.3,-0.9 1.2,-4.2 0.9,-4.8c-0.3,-0.9 -0.3,-0.6 -0.9,-1.2c-0.6,-0.6 -0.3,-0.6 -0.9,-1.5c-1.5,0.6 -3.6,0.3 -5.1,0.3Z" style="fill:#373435;"/><path d="M849.733,967.4c0,2.1 -0.3,5.1 -0.6,7.5c-0.3,2.4 -0.3,4.8 0.3,6.9c1.2,0.3 2.1,0.3 3.3,0.3l0.9,0l0.6,-0.3l0.3,0c0.9,-0.3 1.8,-8.7 1.8,-9.6l0,-8.4c0,-1.2 0,-1.2 -0.9,-1.5l-5.4,-0.3c-1.5,0 -0.9,0.6 -0.6,1.8c0.3,0.9 0.3,2.4 0.3,3.6Z" style="fill:#373435;"/><path d="M777.433,971.9c-0.3,1.8 -0.9,11.1 0.3,12.3c0.9,0.9 3.9,0.6 5.1,-1.2c0.9,-1.8 0.6,-3.9 0.6,-5.4c0.3,-2.4 0.3,-4.8 0.3,-6.9c0,-2.4 0.3,-4.2 0.3,-6.3l-3.3,-0c-1.5,-0 -2.7,-0 -3,0.6c-0.3,0.9 -0.3,6 -0.3,6.9Z" style="fill:#373435;"/><path d="M749.833,1135.7c0,1.2 0,2.7 1.5,3.3c0.6,0.3 2.4,0.6 3.3,0.3c0.3,-0.3 1.2,-2.1 1.5,-2.7c0.3,-1.2 0.6,-2.7 0.6,-3.6c0,-2.7 -0.6,-5.4 -0.6,-7.5c-6.6,-1.2 -6,0.6 -6,6.3c0,1.5 -0.3,2.4 -0.3,3.9Z" style="fill:#373435;"/><path d="M752.233,1085.3l4.2,0.3c2.1,-2.4 2.7,-10.5 2.4,-11.7c0,-0.3 -5.4,-4.2 -6.3,1.5c-0.3,1.5 -0.6,8.4 -0.3,9.9Z" style="fill:#373435;"/><path d="M783.133,1194.2c-0.3,3 -0.6,7.5 0.3,10.2c0.3,0.9 1.2,1.5 1.8,2.1c0.9,0.3 3,-1.2 3.6,-1.5c1.2,-0.9 0.9,-2.1 0.9,-3.9c0,-1.5 -0.3,-3 -0.6,-4.2c-0.3,-1.5 -1.2,-3 -1.2,-3.9c-1.8,0 -3.6,0.9 -4.8,1.2Z" style="fill:#373435;"/><path d="M757.033,1211c-0.3,2.4 0.3,3.6 0.6,6c0,1.5 0.6,3.9 1.2,4.8c1.2,0 4.8,-0.6 4.8,-2.1l0.3,-1.8c0.3,-2.7 -0.3,-6 -0.9,-8.7c-3,0 -4.2,0.3 -6,1.8Z" style="fill:#373435;"/></g></g></g><defs><radialGradient id="_Radial2" cx="0" cy="0" r="1" gradientUnits="userSpaceOnUse" gradientTransform="matrix(1030.2,0,0,1030.2,1099.03,1080.5)"><stop offset="0" style="stop-color:#7ee6df;stop-opacity:1"/><stop offset="0.7" style="stop-color:#5cb4d1;stop-opacity:1"/><stop offset="1" style="stop-color:#3a82c4;stop-opacity:1"/></radialGradient><linearGradient id="_Linear3" x1="0" y1="0" x2="1" y2="0" gradientUnits="userSpaceOnUse" gradientTransform="matrix(39.198,-1839.82,1839.82,39.198,1514.41,1721.03)"><stop offset="0" style="stop-color:#0aa30f;stop-opacity:1"/><stop offset="0.34" style="stop-color:#70cc7c;stop-opacity:1"/><stop offset="1" style="stop-color:#d7f5e9;stop-opacity:1"/></linearGradient></defs></svg>