<?xml version="1.0" encoding="UTF-8" standalone="no"?>
<!DOCTYPE svg PUBLIC "-//W3C//DTD SVG 1.1//EN" "http://www.w3.org/Graphics/SVG/1.1/DTD/svg11.dtd">
<svg width="100%" height="100%" viewBox="0 0 153 72" version="1.1" xmlns="http://www.w3.org/2000/svg" xmlns:xlink="http://www.w3.org/1999/xlink" xml:space="preserve"  style="fill-rule:evenodd;clip-rule:evenodd;stroke-linejoin:round;stroke-miterlimit:2;">
    <g transform="matrix(1,0,0,1,-389.285,-18.3929)">
        <g id="Glider" transform="matrix(0.477058,0,0,0.477058,328.042,-61.8445)">
            <path d="M280.872,231.264C281.232,230.832 280.656,231.048 281.304,231.12C282.096,231.12 282.024,231.48 282.888,231.912C285.264,232.92 297.36,238.824 298.152,239.904C297.576,240.336 295.272,240.984 294.48,241.2C294.048,241.344 293.616,241.344 293.184,241.56C292.824,241.704 292.464,241.92 292.032,241.992C288.792,242.928 280.8,245.664 278.136,245.88C277.848,247.608 279.504,248.472 280.512,248.112C281.16,247.896 281.592,247.68 282.312,247.392L284.256,246.816C284.976,246.528 285.408,246.528 286.128,246.24L286.92,245.952C289.224,245.448 291.384,244.656 293.688,244.152C295.704,243.648 297.288,243 299.304,242.352C301.68,241.632 301.752,240.84 305.784,242.568C308.448,243.72 306.576,242.568 307.944,243.072C307.584,243.648 306.648,244.368 306.144,244.872C305.28,245.592 305.064,246.024 304.272,246.888C303.48,247.752 302.256,248.616 301.464,249.624C300.888,250.344 301.032,250.2 300.528,250.704C300.168,250.992 299.952,251.352 299.664,251.712L297.864,253.656C296.424,255.384 294.624,256.752 293.04,258.336C291.384,259.92 290.016,261.576 288.432,263.088C288.072,263.376 287.784,263.736 287.496,264.096L281.88,269.856C281.16,270.576 280.656,270.864 280.008,271.584C278.568,273.24 276.84,274.536 275.256,276.192C274.68,276.84 274.896,277.704 273.168,278.64C271.728,279.432 273.168,279.72 269.64,281.52C268.632,282.096 266.976,282.744 266.256,283.464C265.896,283.896 265.68,284.04 265.392,284.4C264.24,285.696 263.88,286.632 263.304,288.504C262.656,290.592 262.08,292.176 262.44,294.264C262.656,295.272 263.016,295.776 263.952,296.28C264.456,296.568 264.816,296.856 265.464,296.856L269.496,296.784C271.152,296.568 275.184,295.632 276.336,294.408L276.48,294.192C276.912,293.472 279.72,293.328 280.296,293.904C280.872,293.184 280.08,293.472 281.088,293.4C280.872,294.12 280.728,294.12 280.584,294.696C280.584,294.48 280.8,294.048 281.016,293.688C281.304,293.328 281.016,293.544 281.448,293.256C281.88,292.896 281.664,293.04 281.952,293.112C282.744,293.112 284.04,292.968 284.76,292.68L288.216,291.6C288.648,290.736 288.432,291.672 288.288,291.24C288.864,291.672 288.864,291.6 289.512,291.168C290.232,290.736 290.376,290.304 291.024,290.088C291.096,290.016 291.096,290.016 291.168,290.016L292.032,289.512C293.904,288.36 292.752,288.36 296.064,289.296C298.008,289.872 299.232,290.52 301.464,291.024C302.472,291.312 303.408,291.744 304.488,292.032C305.28,289.152 302.832,289.512 301.248,289.08C299.52,288.576 298.152,287.568 296.856,287.352C296.352,287.28 296.064,287.28 295.704,286.92C295.92,286.56 296.064,286.344 296.352,285.984L296.424,285.912L300.6,283.104C300.672,283.104 300.744,283.032 300.744,283.032C301.896,282.6 302.328,282.384 303.696,282.888C304.056,283.968 304.2,287.064 304.488,287.784C304.992,289.008 305.064,287.928 305.64,291.096C305.928,292.68 306.576,292.248 306.864,293.616C307.008,294.048 307.08,294.336 307.224,294.84C307.584,295.632 309.312,297.504 310.104,297.936L313.128,299.88C313.272,299.952 313.848,300.096 313.848,300.096L315.432,300.312C315.504,299.448 315.288,298.584 315,297.864C314.64,297.072 315,297.432 314.712,297.072L314.424,296.784C314.064,296.352 313.56,295.776 313.056,295.272C312.48,294.696 312.408,294.264 312.048,293.544C311.616,292.68 311.4,292.68 311.112,291.744C310.968,290.952 310.536,290.016 310.464,289.296L309.024,281.592C308.88,280.656 309.096,280.152 308.952,279.216L308.88,279.144L308.736,278.352L308.736,278.208L308.592,277.848C307.728,273.888 306.864,273.96 306.288,272.88L304.92,270.144C305.352,269.64 304.848,270.072 305.568,269.856L307.008,269.28C307.368,269.136 307.512,269.136 307.8,268.92C309.528,268.128 311.688,265.464 311.76,263.448C311.76,262.44 311.472,261.072 311.04,260.136C310.608,259.2 309.528,258.336 308.52,257.976C307.224,257.472 305.568,257.184 304.2,257.904L303.984,258.048C303.768,258.192 303.552,258.264 303.336,258.408C300.096,260.352 300.816,260.352 298.656,263.16C298.224,263.736 297.216,263.808 296.784,264.24C295.992,265.032 295.704,264.456 294.624,265.104C293.904,265.464 293.328,265.752 292.752,266.4C292.464,266.688 292.392,266.688 292.104,266.976C289.296,269.712 290.592,270.72 288.432,271.224L280.512,275.256C279.864,275.688 279.864,275.976 278.928,276.12C279.432,274.968 280.224,274.968 281.016,274.104L283.032,272.088C283.752,271.368 284.328,271.08 285.048,270.288C286.416,268.704 289.44,265.464 290.952,264.24C291.888,263.376 292.752,262.08 293.832,261.144L296.712,258.192C297.432,257.328 298.08,257.112 298.8,256.32C300.024,255.024 301.608,253.656 302.688,252.288C303.912,250.632 305.208,249.912 306.072,248.832C306.792,247.824 307.584,247.032 308.52,246.312C309.384,245.736 309.744,245.016 310.536,244.368C311.832,245.232 311.904,249.192 312.336,250.848C312.552,252.144 312.768,254.952 313.2,256.032C313.56,256.968 313.848,258.264 313.92,259.344C314.064,261.504 314.712,262.944 314.928,264.384C315,265.104 315,265.464 315.144,266.184C315.288,266.904 315.36,267.12 315.504,267.84L316.44,272.952C316.584,273.6 316.728,273.816 316.944,274.536C317.16,275.616 317.16,276.84 317.448,277.992C317.736,279.072 317.952,280.224 318.168,281.376C318.312,282.096 318.384,282.456 318.384,283.104L320.76,296.784C320.832,297.432 321.12,298.08 320.832,298.656L317.232,297.792C316.368,297.576 316.512,297.432 316.296,297.864C315.648,298.08 315.792,297.72 315.936,299.088C316.08,300.024 316.008,299.592 316.296,300.456L317.52,300.456C318.888,300.384 321.048,301.104 321.84,301.968C322.416,301.896 321.912,301.752 322.416,301.824C322.92,301.824 322.632,301.968 323.424,302.04C323.496,301.248 323.208,302.04 323.568,301.32C323.856,300.672 323.856,301.248 323.784,300.6C323.712,296.856 322.128,292.176 321.696,288.072L319.896,277.416C319.68,276.264 319.536,274.968 319.32,273.816C319.176,272.592 318.888,271.44 318.672,270.288L317.016,261.576C316.512,259.992 316.224,258.048 315.864,256.32C315.576,255.096 315.432,254.088 315.216,252.792C315,251.136 313.848,247.176 314.064,245.592C317.376,246.312 321.696,248.256 324.864,249.912C326.088,250.56 327.384,250.992 328.608,251.568C329.688,252.072 330.912,252.576 332.208,253.08L335.952,254.736C338.112,255.816 340.992,256.752 343.368,257.544C345.816,258.336 347.832,259.416 350.424,260.496L356.688,263.376C357.048,263.664 356.4,263.304 357.12,263.664L361.728,265.968C362.376,266.184 363.024,266.4 363.384,266.616C364.392,267.12 364.032,266.976 365.04,267.192C366.408,267.48 371.088,270.144 372.96,270.648C373.608,270.792 373.32,270.792 373.536,270.936C374.112,271.584 379.008,273.888 380.16,274.248L382.392,275.04C382.536,275.112 382.464,275.112 382.752,275.256L390.816,279.36C391.392,279.576 390.96,279.576 391.68,279.936L396.792,282.6C397.872,283.176 398.808,283.824 399.672,284.616C401.688,286.2 406.944,289.728 408.744,290.736C409.104,290.952 408.816,290.736 409.032,290.952L419.184,297.936C419.832,298.584 419.616,298.08 419.544,298.8C419.76,298.152 419.976,298.512 421.2,299.376C421.992,299.952 421.992,300.024 422.928,300.528C423.432,300.816 422.928,300.528 423.36,300.744C423.36,300.816 423.504,300.888 423.576,300.96C424.44,301.536 425.232,302.112 426.312,302.472C426.744,302.688 426.528,302.544 426.744,302.688L433.512,307.656C435.672,309.24 437.76,310.464 439.992,312.48L445.752,316.728C446.4,317.088 446.256,317.088 446.832,316.872C446.904,317.088 446.904,317.088 446.832,317.304C446.832,317.88 446.76,317.016 446.832,317.808C447.768,318.096 448.416,318.528 448.488,317.304C448.56,316.08 447.984,315.216 447.48,314.208C447.048,313.416 444.6,310.752 443.88,309.96C443.304,309.384 442.728,309.024 442.152,308.376L427.248,294.408C426.744,293.832 427.104,294.048 426.456,293.544L425.16,292.392C422.712,290.376 420.408,288.072 418.032,285.912L415.368,283.536C414.288,282.528 413.208,281.376 411.84,280.512C411.48,280.296 411.336,280.152 411.048,279.864C410.688,279.432 410.76,279.36 410.256,279C409.896,278.784 409.68,278.712 409.32,278.352L401.04,271.728C400.104,271.008 398.952,270.432 398.448,269.424C397.944,268.416 396.36,268.056 395.496,267.336C394.776,266.688 394.776,266.4 394.056,265.752C393.048,264.816 391.32,263.736 390.312,262.8C389.16,261.576 388.008,260.496 386.496,259.632C385.632,259.128 385.776,258.552 384.84,257.76L382.248,255.816C381.672,255.384 381.024,254.88 380.376,254.376L377.424,252.36C376.416,251.856 376.92,251.928 376.56,251.568C376.416,251.352 374.976,250.272 374.76,250.128C373.392,249.336 372.24,248.184 371.16,247.104C370.368,246.384 364.824,242.064 363.6,241.416C362.376,240.84 362.52,240.624 361.656,239.976L357.336,236.304C356.904,235.944 356.688,235.944 356.256,235.584C354.6,234.072 355.104,234.792 354.312,234.144C353.592,233.568 353.16,233.28 352.512,232.704L350.712,231.264C349.776,230.472 349.128,229.536 348.192,228.888C347.184,228.24 347.616,228.456 345.96,226.8C345.456,226.296 344.736,225.648 344.232,225.144C342.432,223.488 342.288,223.704 341.424,222.984C340.776,222.408 341.28,222.768 341.064,221.976C339.192,221.616 337.752,221.04 335.952,220.536C334.08,220.032 332.496,219.816 330.552,219.24C328.824,218.736 327.024,218.232 325.368,217.872L320.328,216.288C320.256,215.496 321.48,212.76 321.768,211.752C322.056,210.816 322.128,210.024 322.272,209.304C322.416,208.44 322.848,207.72 323.064,206.856C321.984,206.424 321.336,206.712 320.472,206.928L317.736,215.712C315.576,215.064 306.936,212.544 304.632,212.184L295.272,209.952C293.112,209.304 294.48,209.52 292.536,209.16C289.44,208.728 277.56,205.488 274.104,204.624C271.296,203.904 267.12,202.176 264.744,201.816C262.44,201.456 258.696,200.088 255.24,199.512C253.296,199.152 250.92,198.432 248.976,197.856L243.288,196.272C239.112,195.264 235.08,193.896 230.76,193.032C226.296,192.096 222.048,190.584 217.584,189.792C215.568,189.432 213.552,188.712 211.536,188.28C209.448,187.776 207.216,187.632 205.56,187.2C203.328,186.552 201.744,186.48 200.304,186.12L196.632,185.256C195.912,185.112 195.696,185.112 195.264,184.968C191.448,183.888 187.632,183.168 183.888,181.728C183.024,181.368 182.232,181.224 181.152,181.008C176.976,180.144 174.672,177.264 170.928,175.608C166.968,173.88 161.568,170.424 157.32,169.632C156.672,169.488 155.448,169.128 154.368,168.984C153.792,168.912 153.648,168.984 153,168.912C152.496,168.84 151.92,168.696 151.344,168.624L145.44,168.192C143.568,168.336 141.984,168.336 140.112,168.624C139.176,168.768 138.456,168.624 137.376,168.912C136.224,169.272 134.568,168.984 133.488,169.416L132.768,169.92C132.048,170.424 130.968,170.496 130.176,171C129.744,171.288 129.744,171.504 129.24,171.864C128.808,172.224 128.592,172.224 128.376,172.8C129.168,174.384 130.824,174.6 132.336,174.96L136.512,175.896C137.232,176.04 137.16,176.184 137.808,176.4C139.464,176.832 141.12,176.832 142.848,177.408C143.424,177.552 144.504,177.84 145.152,177.984C145.152,177.984 145.44,178.056 145.512,178.056C145.656,178.056 145.944,178.128 146.088,178.128L148.464,178.848C148.68,178.92 149.688,178.848 151.56,179.208C153.288,179.64 154.944,179.928 156.888,180.432C158.76,180.864 160.56,181.08 162.288,181.584C165.816,182.592 170.064,183.744 173.592,184.392C177.12,184.968 181.008,185.904 184.392,186.984C185.256,187.272 186.264,187.56 187.128,187.704C188.064,187.92 188.784,188.28 189.792,188.568C191.808,189.216 192.816,189 194.76,190.224C199.296,192.96 196.992,191.16 199.152,192.024C200.592,192.6 202.32,193.536 203.688,194.184L213.048,198.504C213.696,198.864 214.632,199.368 215.28,199.656C217.656,200.592 219.816,201.312 222.408,202.536L229.176,205.776C234.936,207.72 240.336,211.032 246.024,213.264C246.672,213.48 247.536,213.912 248.184,214.272C249.408,214.992 251.208,216.216 252.648,216.432C254.448,216.72 257.76,218.808 259.488,219.672C260.208,219.96 261.144,220.248 261.864,220.68C262.656,221.184 263.232,221.472 263.88,221.832L277.056,228.6C277.776,228.96 278.64,229.464 279.288,229.824C280.08,230.256 280.656,230.4 280.872,231.264Z" style="fill:rgb(34,58,69);"/>
        </g>
    </g>
</svg>
